<?xml version="1.0" standalone="no"?>
<!DOCTYPE svg PUBLIC "-//W3C//DTD SVG 1.1//EN" "http://www.w3.org/Graphics/SVG/1.1/DTD/svg11.dtd" >
<svg>
<metadata>
Created by FontForge 20090914 at Sun Oct 25 03:39:03 2015
 By www-data
Copyright (c) 2011 by M&#195;&#165;ns Greb&#195;&#164;ck. All rights reserved.
</metadata>
<defs>
<font id="Gretoon" horiz-adv-x="833" >
  <font-face 
    font-family="Gretoon"
    font-weight="400"
    font-stretch="normal"
    units-per-em="1000"
    panose-1="0 0 0 0 0 0 0 0 0 0"
    ascent="750"
    descent="-250"
    x-height="611.999"
    cap-height="859.001"
    bbox="-497.629 -729.989 1854.78 1197"
    underline-thickness="50"
    underline-position="-50"
    unicode-range="U+0020-U+FB02"
  />
<missing-glyph horiz-adv-x="500" 
 />
    <glyph glyph-name=".notdef" horiz-adv-x="500" 
 />
    <glyph glyph-name="space" unicode=" " horiz-adv-x="500" 
 />
    <glyph glyph-name="space" unicode="&#xa0;" horiz-adv-x="500" 
 />
    <glyph glyph-name="exclam" unicode="!" horiz-adv-x="292" 
d="M-22 54c0 -19.333 3.5 -37.166 10.5 -53.499s16.5 -30.5 28.5 -42.5s26.167 -21.5 42.5 -28.5s34.166 -10.5 53.499 -10.5c18.667 0 36.167 3.5 52.5 10.5s30.666 16.5 42.999 28.5s22.166 26.167 29.499 42.5s11 34.166 11 53.499c0 18.667 -3.66699 36.167 -11 52.5
s-17.166 30.666 -29.499 42.999s-26.666 22.166 -42.999 29.499s-33.833 11 -52.5 11c-19.333 0 -37.166 -3.66699 -53.499 -11s-30.5 -17.166 -42.5 -29.499s-21.5 -26.666 -28.5 -42.999s-10.5 -33.833 -10.5 -52.5zM225 914l35 -517.996
c0.666992 -17.333 -1.66602 -33.666 -6.99902 -48.999s-13 -28.833 -23 -40.5s-22.167 -21.334 -36.5 -29.001s-29.833 -11.834 -46.5 -12.501c-17.333 -1.33301 -33.666 0.5 -48.999 5.5s-29 12.667 -41 23s-21.667 22.666 -29 36.999s-11.666 30.166 -12.999 47.499
c-0.666992 10 0 21 2 33l92 510c3.33301 16 11.666 28.5 24.999 37.5s28 11.833 44 8.5c13.333 -3.33301 24.166 -9.83301 32.499 -19.5s13.166 -20.834 14.499 -33.501z" />
    <glyph glyph-name="quotedbl" unicode="&#x22;" horiz-adv-x="291" 
d="M167 748l-49.001 -204c-2.66699 -7.33301 -7.5 -13 -14.5 -17s-14.167 -5.33301 -21.5 -4c-12.667 3.33301 -19.667 10.666 -21 21.999l-38 206c-3.33301 20 0.666992 38.5 12 55.5s27 27.5 47 31.5c10 2 19.833 1.83301 29.5 -0.5s18.334 -6.16602 26.001 -11.499
s14.167 -12 19.5 -20s9 -17 11 -27c1.33301 -12.667 1 -23 -1 -31zM266.999 748l-49.001 -204c-2.66699 -7.33301 -7.5 -13 -14.5 -17s-14.167 -5.33301 -21.5 -4c-12.667 3.33301 -19.667 10.666 -21 21.999l-38 206c-3.33301 20 0.666992 38.5 12 55.5s27 27.5 47 31.5
c10 2 19.833 1.83301 29.5 -0.5s18.334 -6.16602 26.001 -11.499s14.167 -12 19.5 -20s9 -17 11 -27c1.33301 -12.667 1 -23 -1 -31z" />
    <glyph glyph-name="numbersign" unicode="#" horiz-adv-x="506" 
d="M474 295c22 -1.33301 38.498 -7.66504 49.498 -18.998s16.833 -24 17.5 -38s-4.33301 -27.167 -15 -39.5s-26.667 -19.833 -48 -22.5l-37 -2c-12 -0.666992 -24.333 -1.66699 -37 -3l-2 -57l-2 -57v-2h-1c-2.66699 -18 -9 -32 -19 -42s-21.333 -15.667 -34 -17
s-25 1.83398 -37 9.50098s-21.333 20.167 -28 37.5c0 2.66699 -0.166992 5 -0.5 7s-0.5 4.33301 -0.5 7v12l3 87c-9.33301 -1.33301 -18.333 -2.33301 -27 -3s-17.334 -1.66699 -26.001 -3c-5.33301 -0.666992 -10.666 -1.16699 -15.999 -1.5s-10.666 -0.5 -15.999 -0.5v-4
c-2.66699 -20.667 -10 -36.167 -22 -46.5s-24.833 -15.666 -38.5 -15.999s-26.334 4.5 -38.001 14.5s-18.834 24.667 -21.501 44c-10.667 -1.33301 -21.167 -3.33301 -31.5 -6s-20.166 -6 -29.499 -10c-19.333 -2 -35.333 0.5 -48 7.5s-21.167 16.5 -25.5 28.5
s-4.16602 24.833 0.500977 38.5s14.667 26.167 30 37.5c17.333 7.33301 35 12.666 53 15.999s36.667 6 56 8c0.666992 8.66699 1.16699 17.167 1.5 25.5s1.16602 16.833 2.49902 25.5l-52.5 -4c-17.667 -1.33301 -35.167 -2.33301 -52.5 -3c-18.667 4 -32.667 11.5 -42 22.5
s-14.333 22.667 -15 35s3.5 24.333 12.5 36s22.5 20.167 40.5 25.5c38.667 0.666992 77.667 3.66699 117 9c0.666992 9.33301 1 18.666 1 27.999s0.333008 18.666 1 27.999c5.33301 18.667 14 32.334 26 41.001s24.333 12.667 37 12s24.334 -5.83398 35.001 -15.501
s18 -23.834 22 -42.501c-0.666992 -6 -1 -12 -1 -18v-17c12 1.33301 24 2.83301 36 4.5s24.333 3.16699 37 4.5v81c5.33301 18.667 14 32.334 26 41.001s24.333 12.667 37 12s24.334 -5.83398 35.001 -15.501s18 -23.834 22 -42.501v-64
c7.33301 0.666992 14.833 1.16699 22.5 1.5s15.5 0.833008 23.5 1.5c22 -1.33301 38.5 -7.66602 49.5 -18.999s16.833 -24 17.5 -38s-4.33301 -27.167 -15 -39.5s-26.667 -19.833 -48 -22.5l-51 -3v-30c0 -10 -0.333008 -20 -1 -30c11.333 1.33301 22.5 2.33301 33.5 3z
M207.998 326.001c-1.33301 -10 -2.16797 -19.833 -2.50098 -29.5s-0.833008 -19.167 -1.5 -28.5c3.33301 0 6.83301 0.166992 10.5 0.5s7.5 0.833008 11.5 1.5c10 1.33301 20.167 2.33301 30.5 3s20.5 1.66699 30.5 3v30.5c0 10.333 0.333008 20.5 1 30.5
c-13.333 -1.33301 -26.666 -3 -39.999 -5z" />
    <glyph glyph-name="dollar" unicode="$" 
d="M701 590l-0.991211 1.00293l-2 1c-2 2 -3.66699 3.33301 -5 4c-1.33301 1.33301 -3 2.33301 -5 3s-3.66699 1.66699 -5 3l-23 13l-23 10l-24 10c-32 10.667 -64.333 16.667 -97 18c-8 0.666992 -16 0.666992 -24 0h-15c-1.33301 -0.666992 -2.66602 -1 -3.99902 -1h-7
c-6.66699 0.666992 -15 0.166992 -25 -1.5s-20.167 -3.66699 -30.5 -6s-19.833 -5.16602 -28.5 -8.49902s-14.667 -6.66602 -18 -9.99902s-3 -6.5 1 -9.5s13.333 -5.5 28 -7.5c8 -2.66699 16.333 -5.16699 25 -7.5l27 -7.5c9.33301 -2 18.833 -4.16699 28.5 -6.5
s19.167 -4.83301 28.5 -7.5l16 -4l8 -2l8 -2c5.33301 -1.33301 10.833 -3 16.5 -5s11.5 -3.66699 17.5 -5c11.333 -3.33301 22.833 -7.33301 34.5 -12s23.5 -9.66699 35.5 -15c22.667 -10.667 47 -24.667 73 -42c6.66699 -4.66699 13 -9.5 19 -14.5l18 -15.5
c6 -5.33301 12 -11 18 -17s11.667 -12.667 17 -20c10.667 -14 20.667 -29 30 -45c4.66699 -8 8.66699 -16.167 12 -24.5l10 -25.5c3.33301 -8.66699 6.16602 -17.167 8.49902 -25.5s4.16602 -17.166 5.49902 -26.499l2 -12.5l2 -12.5c0 -6 0.333008 -10.333 1 -13v-13l1 -2
v-22c0 -4.66699 -0.166992 -9 -0.5 -13s-0.833008 -8.33301 -1.5 -13c-0.666992 -9.33301 -1.83398 -18.5 -3.50098 -27.5s-3.83398 -18.167 -6.50098 -27.5c-5.33301 -19.333 -12.333 -38.333 -21 -57l-16 -27c-5.33301 -8.66699 -11.333 -17.334 -18 -26.001l-21.5 -23
c-7 -7.33301 -14.5 -14.333 -22.5 -21c-7.33301 -6.66699 -15 -12.667 -23 -18l-24 -16c-15.333 -9.33301 -30.666 -17 -45.999 -23c-8 -3.33301 -15.833 -6.33301 -23.5 -9l-22.5 -8c-14.667 -4.66699 -29 -8.5 -43 -11.5s-27.667 -5.5 -41 -7.5
c-6.66699 -1.33301 -13.334 -2.33301 -20.001 -3l-20 -2c-3.33301 -0.666992 -6.5 -1 -9.5 -1s-6.16699 -0.333008 -9.5 -1h-10l-4 -1h-30c-4 0 -8 0.166992 -12 0.5s-8 0.5 -12 0.5c-7.33301 0.666992 -14.166 1.33398 -20.499 2.00098s-12.833 1.66699 -19.5 3
c-2.66699 -9.33301 -5 -19 -7 -29l-6 -31c-0.666992 -2.66699 -1.33398 -6.16699 -2.00098 -10.5l-2 -12.5l-1.5 -9c-0.333008 -2 -0.5 -1.66699 -0.5 1s0.333008 5 1 7c-4.66699 -18.667 -13.167 -32.334 -25.5 -41.001s-25.333 -12.167 -39 -10.5s-25.834 8 -36.501 19
s-16.334 26.833 -17.001 47.5c0 16 1.83301 32.5 5.5 49.5s8.16699 33.5 13.5 49.5c-9.33301 3.33301 -18 6.83301 -26 10.5s-16.333 7.16699 -25 10.5c-12.667 5.33301 -24.834 11.166 -36.501 17.499l-34.5 19.5c-10.667 6 -22.334 13.333 -35.001 22l-8 6
c-2.66699 2 -5.66699 4 -9 6l-9 6l-5 4l-3 2l-1 2h-1l-2 2c-20 18 -35.667 38.5 -47 61.5s-17.666 47 -18.999 72s1.83398 49.833 9.50098 74.5s20.5 47 38.5 67s38.5 35.5 61.5 46.5s47 17.333 72 19s49.833 -1.33301 74.5 -9s47 -20.167 67 -37.5l1 -1
c0 -0.666992 0.666992 -1.66699 2 -3s2.5 -2.33301 3.5 -3s2.16699 -1.66699 3.5 -3l15 -12c12 -10 23 -17.667 33 -23c23.333 -14.667 44.333 -25 63 -31c2 -0.666992 4.16699 -1.33398 6.5 -2.00098s4.5 -1.33398 6.5 -2.00098c1.33301 0 2.5 -0.166992 3.5 -0.5
s2.16699 -0.5 3.5 -0.5l3 -1h4l3 -1h6c1.33301 0 3 -0.166992 5 -0.5s3.66699 -0.5 5 -0.5c3.33301 0 6.83301 -0.166992 10.5 -0.5s7.16699 -0.5 10.5 -0.5c24 5.33301 38.167 13 42.5 23s3.5 20.333 -2.5 31s-14.667 20.334 -26 29.001s-20.333 14.667 -27 18
c-4 1.33301 -7.83301 3 -11.5 5s-7.5 3.66699 -11.5 5l-12 6l-4 1l-3 1l-7 3l-28 11.5l-29 11.5c-19.333 8 -39.333 17 -60 27c-10.667 4.66699 -21.334 9.66699 -32.001 15s-21.667 11.666 -33 18.999c-6 3.33301 -11.833 6.83301 -17.5 10.5s-11.5 8.16699 -17.5 13.5
l-18.5 14.5c-6.33301 5 -12.5 11.167 -18.5 18.5c-6 4.66699 -12.333 12.334 -19 23.001c-6.66699 8.66699 -12.334 18.334 -17.001 29.001c-2.66699 5.33301 -5.16699 10.833 -7.5 16.5s-4.16602 11.834 -5.49902 18.501c-2.66699 11.333 -4 24.333 -4 39v16
c0.666992 3.33301 1.16699 6.16602 1.5 8.49902s0.833008 4.83301 1.5 7.5c0.666992 10.667 3.66699 21.667 9 33c2 5.33301 4.16699 10.5 6.5 15.5l7.5 15.5c6 8.66699 12.667 17.334 20 26.001l10.5 10l10.5 10c4 3.33301 7.83301 6.33301 11.5 9s7.16699 5 10.5 7
c15.333 9.33301 29.666 16.333 42.999 21c6.66699 3.33301 13.334 6 20.001 8s13 3.66699 19 5c6.66699 1.33301 13.167 2.5 19.5 3.5s12.5 2.16699 18.5 3.5c24 4 47.333 6 70 6c9.33301 0.666992 18.5 0.833984 27.5 0.500977s18.167 -0.833008 27.5 -1.5
c3.33301 15.333 8.33301 29.666 15 42.999s14 24.666 22 33.999c19.333 13.333 37.666 18.166 54.999 14.499s31.666 -15.5 42.999 -35.5l2 -4c4.66699 -26.667 0 -47.667 -14 -63c0 -2.66699 -0.333008 -4.33398 -1 -5.00098c32 -8.66699 63.333 -20.667 94 -36
c10.667 -5.33301 21 -10.833 31 -16.5s19.667 -11.834 29 -18.501l14 -10.5l14 -10.5c5.33301 -4 9.66602 -7.66699 12.999 -11c2 -1.33301 4.33301 -3.33301 7 -6l4 -3l4 -4c12.667 -11.333 19.5 -25.5 20.5 -42.5s-4.16699 -31.833 -15.5 -44.5
c-11.333 -13.333 -25.5 -20.333 -42.5 -21s-31.833 4.66602 -44.5 15.999h-1z" />
    <glyph glyph-name="percent" unicode="%" horiz-adv-x="780" 
d="M57 604c0 20.667 3.83301 40.167 11.5 58.5s18.334 34.5 32.001 48.5s29.5 25 47.5 33s37.667 12 59 12c20.667 0 40.167 -4 58.5 -12s34.5 -19 48.5 -33s25 -30.167 33 -48.5s12 -37.833 12 -58.5c0 -21.333 -4 -41 -12 -59s-19 -33.833 -33 -47.5
s-30.167 -24.334 -48.5 -32.001s-37.833 -11.5 -58.5 -11.5c-21.333 0 -41 3.83301 -59 11.5s-33.833 18.334 -47.5 32.001s-24.334 29.5 -32.001 47.5s-11.5 37.667 -11.5 59zM430 109c0 20.667 3.83301 40.167 11.5 58.5s18.334 34.5 32.001 48.5s29.5 25 47.5 33
s37.667 12 59 12c20.667 0 40.167 -4 58.5 -12s34.5 -19 48.5 -33s25 -30.167 33 -48.5s12 -37.833 12 -58.5c0 -21.333 -4 -41 -12 -59s-19 -33.833 -33 -47.5s-30.167 -24.334 -48.5 -32.001s-37.833 -11.5 -58.5 -11.5c-21.333 0 -41 3.83301 -59 11.5
s-33.833 18.334 -47.5 32.001s-24.334 29.5 -32.001 47.5s-11.5 37.667 -11.5 59zM695 621l-390.997 -656.002c-12.667 -21.333 -28.667 -39 -48 -53s-40.333 -23.833 -63 -29.5s-45.834 -7 -69.501 -4s-46.167 10.833 -67.5 23.5s-39 28.5 -53 47.5s-24 39.833 -30 62.5
s-7.5 45.834 -4.5 69.501s10.833 46.5 23.5 68.5c8.66699 14.667 18.667 27 30 37l539 539c17.333 17.333 37.666 25.833 60.999 25.5s43.666 -9.16602 60.999 -26.499c13.333 -14.667 21 -31.667 23 -51s-1.66699 -37 -11 -53z" />
    <glyph glyph-name="ampersand" unicode="&#x26;" horiz-adv-x="731" 
d="M525 596c2.66699 -8 3.00195 -16.3271 1.00195 -24.9941s-6.33301 -16 -13 -22c-8.66699 -8 -18.834 -11.833 -30.501 -11.5s-21.5 5.16602 -29.5 14.499l-12 13l-1 1v2l-2 2c-1.33301 1.33301 -2 2.66602 -2 3.99902s-0.666992 2.66602 -2 3.99902l-4.5 6.5l-4.5 6.5
c-35.333 28.667 -65.333 45.167 -90 49.5s-43.834 0.666016 -57.501 -11.001s-21.667 -29.334 -24 -53.001s1.16699 -49.334 10.5 -77.001s24.333 -55.334 45 -83.001s47.667 -51.167 81 -70.5c31.333 -20 64.666 -39 99.999 -57s70.5 -37.167 105.5 -57.5
s68.5 -42.666 100.5 -66.999s60 -52.166 84 -83.499c9.33301 -16 13.333 -31.333 12 -46s-6.5 -26.334 -15.5 -35.001s-20.833 -13.834 -35.5 -15.501s-30 2.5 -46 12.5l-42 36.5l-42 36.5l-2 -2l-2 -4c-1.33301 -3.33301 -2.66602 -5.66602 -3.99902 -6.99902
c-2 -6 -4.33301 -9.66699 -7 -11c-5.33301 -8.66699 -10 -15 -14 -19l-15.5 -17c-5 -5.33301 -10.167 -10.333 -15.5 -15c-20.667 -20 -42 -36.333 -64 -49c-24.667 -13.333 -48 -23.333 -70 -30l-35.5 -9.5c-11.667 -3 -23.167 -5.5 -34.5 -7.5
c-11.333 -1.33301 -22.333 -2.33301 -33 -3s-21.667 -1 -33 -1h-33l-1 1h-8c-1.33301 0 -3 0.166992 -5 0.5s-3.66699 0.5 -5 0.5c-4 0.666992 -8 1.16699 -12 1.5s-7.66699 0.5 -11 0.5c-7.33301 1.33301 -14.666 3.16602 -21.999 5.49902l-23 7.5
c-15.333 6 -29.666 13.333 -42.999 22c-7.33301 4 -13.833 8.66699 -19.5 14l-17.5 16c-6 5.33301 -11.5 11 -16.5 17l-14.5 18c-9.33301 12.667 -17 25.334 -23 38.001c-3.33301 6.66699 -6.33301 13.334 -9 20.001s-5 13.334 -7 20.001
c-8.66699 27.333 -13.334 53 -14.001 77c-1.33301 13.333 -1.66602 26 -0.999023 38s1.66699 24 3 36c2 12 4.33301 23.667 7 35s6 23 10 35c4 11.333 8.33301 22.333 13 33s10 21 16 31c12 19.333 23.667 35.666 35 48.999l38 43l-8.5 17.5l-11.5 25l-11.5 25.5
c-3.66699 8 -5.83398 14.667 -6.50098 20c-1.33301 5.33301 -2.16602 10.5 -2.49902 15.5s-0.833008 10.5 -1.5 16.5v16.5c0 5.66699 0.666992 11.5 2 17.5s2.83301 12 4.5 18s3.5 12 5.5 18c5.33301 13.333 10.333 24 15 32c7.33301 10 15 18.667 23 26
c3.33301 4 7.16602 7.66699 11.499 11l12.5 10c15.333 11.333 31.333 19.666 48 24.999c8.66699 4.66699 16.334 7.33398 23.001 8.00098c4.66699 1.33301 9 2.5 13 3.5s8 2.16699 12 3.5l24.5 4c8.33301 1.33301 16.833 2.33301 25.5 3
c9.33301 0.666992 18.166 0.5 26.499 -0.5s17.166 -2.16699 26.499 -3.5c17.333 -3.33301 34.333 -9 51 -17c8 -4 15.5 -8.5 22.5 -13.5l21.5 -15.5c6.66699 -6 12.834 -12 18.501 -18s11.167 -12.333 16.5 -19s10.166 -13.334 14.499 -20.001s8.16602 -13.667 11.499 -21
l6 -10.5c2 -3.66699 3.66699 -7.5 5 -11.5c0.666992 -2 2.33398 -5.66699 5.00098 -11c0.666992 -0.666992 1 -2.66699 1 -6l2 -4zM375.002 220.006c-19.333 9.33301 -38.166 19.668 -56.499 31.001s-35.5 25 -51.5 41c-10 4 -19.333 9.33301 -28 16
c-1.33301 -2 -2.5 -3.83301 -3.5 -5.5s-2.16699 -3.16699 -3.5 -4.5c-11.333 -17.333 -19 -37.333 -23 -60c-2 -10 -3 -20.333 -3 -31c-1.33301 -3.33301 -1 -8.33301 1 -15s5.5 -13.5 10.5 -20.5s11.667 -13.167 20 -18.5s18.166 -8 29.499 -8
c6 1.33301 11.667 2.66602 17 3.99902l16 4c5.33301 1.33301 10.333 3 15 5s8.66699 4.33301 12 7z" />
    <glyph glyph-name="quotesingle" unicode="'" horiz-adv-x="191" 
d="M167 748l-49.001 -204c-2.66699 -7.33301 -7.5 -13 -14.5 -17s-14.167 -5.33301 -21.5 -4c-12.667 3.33301 -19.667 10.666 -21 21.999l-38 206c-3.33301 20 0.666992 38.5 12 55.5s27 27.5 47 31.5c10 2 19.833 1.83301 29.5 -0.5s18.334 -6.16602 26.001 -11.499
s14.167 -12 19.5 -20s9 -17 11 -27c1.33301 -12.667 1 -23 -1 -31z" />
    <glyph glyph-name="parenleft" unicode="(" horiz-adv-x="270" 
d="M177 730c16.667 -0.666992 30.335 -4.66406 41.002 -11.9971s18 -16 22 -26s4.66699 -20.833 2 -32.5s-9 -22.167 -19 -31.5c-0.666992 -1.33301 -1.33398 -2.5 -2.00098 -3.5s-1.66699 -2.83301 -3 -5.5l-16.5 -28.5l-16.5 -29.5l-5.5 -10.5
c-2.33301 -4.33301 -4.5 -8.16602 -6.5 -11.499c-1.33301 -2.66699 -2.33301 -5.33398 -3 -8.00098s-1.66699 -5.66699 -3 -9l-6 -24.5l-6 -25.5c-2.66699 -14.667 -4.5 -29.834 -5.5 -45.501s-1.5 -31.167 -1.5 -46.5c0 -20 0.5 -39.333 1.5 -58s2.83301 -38 5.5 -58
c0.666992 -7.33301 3.83398 -21.833 9.50098 -43.5s12.167 -45.167 19.5 -70.5s15.166 -49.833 23.499 -73.5s16.166 -40.834 23.499 -51.501c11.333 -9.33301 17.666 -22.333 18.999 -39s-5 -33.334 -19 -50.001l3 3l-8 -8c1.33301 2 3 3.66699 5 5
c-12.667 -9.33301 -25.167 -14.333 -37.5 -15s-26.166 3.66602 -41.499 12.999c-10 10 -18.5 21.167 -25.5 33.5s-13 25.166 -18 38.499s-9.66699 26.833 -14 40.5s-8.83301 26.834 -13.5 39.501c-28 74.667 -45 150.834 -51 228.501s0.666992 155.167 20 232.5
c3.33301 12 9.16602 28 17.499 48s18.333 39.667 30 59s24.334 36.333 38.001 51s27.5 23 41.5 25zM240.001 -55.9971c-2.66699 -2.66699 -4.66699 -4.33398 -6 -5.00098c2.66699 2.66699 4.66699 4.33398 6 5.00098z" />
    <glyph glyph-name="parenright" unicode=")" horiz-adv-x="301" 
d="M28 687c10 12.667 20.832 21.499 32.499 26.499s22.667 6.66699 33 5s19.666 -6.16699 27.999 -13.5s13.833 -16.333 16.5 -27c2 -1.33301 5 -4 9 -8c8 -7.33301 13.5 -15.833 16.5 -25.5s5.83301 -20.167 8.5 -31.5c8.66699 -32 19.5 -62.667 32.5 -92
s23.167 -60 30.5 -92c5.33301 -20.667 8.83301 -42 10.5 -64s2.83398 -43.667 3.50098 -65c0.666992 -28 0.166992 -55.5 -1.5 -82.5s-3.16699 -54.5 -4.5 -82.5c-1.33301 -26 -3.16602 -48.833 -5.49902 -68.5s-6.5 -38 -12.5 -55s-14.333 -33.833 -25 -50.5
s-25 -35 -43 -55c-9.33301 -11.333 -19.666 -23.166 -30.999 -35.499s-24.333 -20.166 -39 -23.499c-16 -1.33301 -28.833 -0.166016 -38.5 3.50098s-19.834 11.5 -30.501 23.5c0 1.33301 -0.666992 2.66602 -2 3.99902c-9.33301 23.333 -9.5 42.833 -0.5 58.5
s21.167 25.5 36.5 29.5c0 1.33301 0.666992 2 2 2c5.33301 6.66699 11 13.167 17 19.5l17 18.5c8.66699 10.667 15.5 21.167 20.5 31.5s8.5 21 10.5 32s3.16699 22.167 3.5 33.5s0.5 23.666 0.5 36.999c1.33301 43.333 3.16602 86.333 5.49902 129s-0.5 85 -8.5 127
c-3.33301 16.667 -7.66602 33.334 -12.999 50.001s-11.333 33 -18 49l-19.5 48.5c-6.33301 16.333 -11.5 33.166 -15.5 50.499c-13.333 12 -23.5 26 -30.5 42s-5.5 33 4.5 51zM129.999 685.999l-0.998047 0.00195312c2 -1.33301 3.66699 -3 5 -5
c-0.666992 1.33301 -1.33398 2.16602 -2.00098 2.49902s-1.33398 1.16602 -2.00098 2.49902z" />
    <glyph glyph-name="asterisk" unicode="*" horiz-adv-x="344" 
d="M300 434c12.667 -14 18.8262 -28.5029 18.4932 -43.5029s-4.66602 -27.5 -12.999 -37.5s-20.166 -16.167 -35.499 -18.5s-31.666 1.83398 -48.999 12.501c-6 4.66699 -11.167 9.83398 -15.5 15.501s-9.16602 11.167 -14.499 16.5c-7.33301 6.66699 -16 13.834 -26 21.501
s-19.667 15.834 -29 24.501c-4 -4.66699 -7.66699 -9.5 -11 -14.5s-6 -10.5 -8 -16.5c-10 -19.333 -22.5 -31.833 -37.5 -37.5s-29 -5.83398 -42 -0.500977s-23 15.166 -30 29.499s-7.5 31.833 -1.5 52.5c4.66699 13.333 12.334 27.666 23.001 42.999
c-8 3.33301 -14.833 6 -20.5 8s-8.5 3.33301 -8.5 4c-17.333 2 -30.833 8.16699 -40.5 18.5s-15 22 -16 35s2.66699 25.667 11 38s22.166 21.166 41.499 26.499c14 2.66699 30 1.83398 48 -2.49902s35.667 -10.166 53 -17.499c0.666992 9.33301 1.83398 18.5 3.50098 27.5
s4.16699 18.167 7.5 27.5c11.333 15.333 24 25.166 38 29.499s26.833 4.33301 38.5 0s21 -12.833 28 -25.5s9.16699 -28.667 6.5 -48c-1.33301 -2.66699 -2 -5.66699 -2 -9v-2c11.333 2 22.666 3.5 33.999 4.5s22 1.83301 32 2.5c22 -1.33301 38.5 -7.66602 49.5 -18.999
s16.833 -24 17.5 -38s-4.33301 -27.167 -15 -39.5s-26.667 -19.833 -48 -22.5c-5.33301 0 -10 -0.166992 -14 -0.5s-8.66699 -0.833008 -14 -1.5l9 -7c2.66699 -2 5.33398 -4.33301 8.00098 -7c4 -3.33301 7.66699 -7.33301 11 -12s7 -9 11 -13
c-0.666992 0 -1.66699 0.666992 -3 2c0.666992 -2 2 -3.33301 4 -4c-0.666992 0 -1 0.666992 -1 2c0.666992 -0.666992 1.83398 -1.66699 3.50098 -3s1.83398 -1.66602 0.500977 -0.999023h-2zM26.9922 494.997h-4h4zM5.99219 492.997h-2h4h-2z" />
    <glyph glyph-name="plus" unicode="+" horiz-adv-x="474" 
d="M23 218c-18.667 4 -32.665 11.5 -41.998 22.5s-14.333 22.667 -15 35s3.5 24.333 12.5 36s22.5 20.167 40.5 25.5h139c0.666992 20 0.333984 37.667 -0.999023 53s-4 26 -8 32c-7.33301 18 -9 34 -5 48s11.333 24.667 22 32s23.334 10.5 38.001 9.5s29 -7.83301 43 -20.5
c9.33301 -11.333 15.666 -22.666 18.999 -33.999s5.66602 -24.666 6.99902 -39.999c1.33301 -10 2.16602 -23 2.49902 -39s0.5 -29.667 0.5 -41h108c22 -1.33301 38.5 -7.66602 49.5 -18.999s16.833 -24 17.5 -38s-4.33301 -27.167 -15 -39.5s-26.667 -19.833 -48 -22.5
h-116c0 -5.33301 -0.166992 -10.5 -0.5 -15.5s-0.5 -10.167 -0.5 -15.5c0 -12 0.166992 -24.5 0.5 -37.5s-0.666992 -25.167 -3 -36.5s-6.83301 -21.833 -13.5 -31.5s-17.334 -16.834 -32.001 -21.501c-14.667 -2 -27.5 -0.833008 -38.5 3.5s-19.833 10.166 -26.5 17.499
s-10.667 16.166 -12 26.499s0.333984 20.5 5.00098 30.5c-1.33301 9.33301 -1.83301 21 -1.5 35s1.16602 29 2.49902 45h-129v0z" />
    <glyph glyph-name="comma" unicode="," horiz-adv-x="191" 
d="M158 65l-89.0029 -190c-4 -7.33301 -9.66699 -12.333 -17 -15s-14.666 -2.33398 -21.999 0.999023c-5.33301 2.66699 -9.66602 6.33398 -12.999 11.001s-4.66602 9.66699 -3.99902 15l4 209c0.666992 20.667 8.16699 38.167 22.5 52.5s31.833 21.5 52.5 21.5
c20.667 -0.666992 38.167 -8.33398 52.5 -23.001s21.166 -32 20.499 -52c-0.666992 -5.33301 -1.66699 -10.666 -3 -15.999s-2.66602 -10 -3.99902 -14z" />
    <glyph glyph-name="hyphen" unicode="-" horiz-adv-x="536" 
d="M86 372l301.997 61c14.667 2.66699 28.834 2.5 42.501 -0.5s26.167 -8.16699 37.5 -15.5s21 -16.833 29 -28.5s13.667 -24.834 17 -39.501c2.66699 -14.667 2.66699 -28.834 0 -42.501s-7.83398 -26.167 -15.501 -37.5s-17.334 -21.166 -29.001 -29.499
s-24.834 -13.833 -39.501 -16.5c-1.33301 0 -2.66602 -0.166992 -3.99902 -0.5s-2.66602 -0.5 -3.99902 -0.5l-306 -36c-13.333 -2 -26 -1.16699 -38 2.5s-22.667 9.16699 -32 16.5s-17.166 16.333 -23.499 27s-10.166 22.667 -11.499 36
c-3.33301 25.333 2.33398 47.833 17.001 67.5s34 31.834 58 36.501z" />
    <glyph glyph-name="period" unicode="." horiz-adv-x="286" 
d="M-22 137c0 20.667 3.83301 40.167 11.5 58.5s18.334 34.5 32.001 48.5s29.5 25 47.5 33s37.667 12 59 12c20.667 0 40.167 -4 58.5 -12s34.5 -19 48.5 -33s25 -30.167 33 -48.5s12 -37.833 12 -58.5c0 -21.333 -4 -41 -12 -59s-19 -33.833 -33 -47.5
s-30.167 -24.334 -48.5 -32.001s-37.833 -11.5 -58.5 -11.5c-21.333 0 -41 3.83301 -59 11.5s-33.833 18.334 -47.5 32.001s-24.334 29.5 -32.001 47.5s-11.5 37.667 -11.5 59z" />
    <glyph glyph-name="slash" unicode="/" horiz-adv-x="691" 
d="M687 631l-390.997 -656.002c-12.667 -21.333 -28.667 -39 -48 -53s-40.333 -23.833 -63 -29.5s-45.834 -7 -69.501 -4s-46.167 10.833 -67.5 23.5s-39 28.5 -53 47.5s-24 39.833 -30 62.5s-7.5 45.834 -4.5 69.501s10.833 46.5 23.5 68.5c8.66699 14.667 18.667 27 30 37
l539 539c17.333 17.333 37.666 25.833 60.999 25.5s43.666 -9.16602 60.999 -26.499c13.333 -14.667 21 -31.667 23 -51s-1.66699 -37 -11 -53z" />
    <glyph glyph-name="zero" unicode="0" horiz-adv-x="696" 
d="M346 766c48 0 93 -12 135 -36s78.833 -56.833 110.5 -98.5s56.5 -90.5 74.5 -146.5s27 -115.667 27 -179s-9 -122.833 -27 -178.5s-42.833 -104.334 -74.5 -146.001s-68.5 -74.5 -110.5 -98.5s-87 -36 -135 -36s-93 12 -135 36s-78.667 56.833 -110 98.5
s-56 90.334 -74 146.001s-27 115.167 -27 178.5s9 123 27 179s42.667 104.833 74 146.5s68 74.5 110 98.5s87 36 135 36zM359 365c18.667 0 36.167 3.16699 52.5 9.5s30.5 14.833 42.5 25.5s21.5 23.167 28.5 37.5s10.5 29.833 10.5 46.5s-3.5 32.167 -10.5 46.5
s-16.5 27 -28.5 38s-26.167 19.667 -42.5 26s-33.833 9.5 -52.5 9.5s-36.167 -3.16699 -52.5 -9.5s-30.5 -15 -42.5 -26s-21.5 -23.667 -28.5 -38s-10.5 -29.833 -10.5 -46.5s3.5 -32.167 10.5 -46.5s16.5 -26.833 28.5 -37.5s26.167 -19.167 42.5 -25.5
s33.833 -9.5 52.5 -9.5z" />
    <glyph glyph-name="one" unicode="1" horiz-adv-x="395" 
d="M343 701l51.999 -701.998c2 -24.667 -1 -48.334 -9 -71.001s-19.5 -42.667 -34.5 -60s-33.167 -31.5 -54.5 -42.5s-44.333 -17.5 -69 -19.5c-25.333 -2 -49.166 0.833008 -71.499 8.5s-42.333 19.167 -60 34.5s-32 33.5 -43 54.5s-17.5 44.167 -19.5 69.5
c-1.33301 16.667 -0.333008 32.667 3 48l136 690c2 12 6.33301 22.667 13 32s14.5 17 23.5 23s19 10.167 30 12.5s22.5 2.5 34.5 0.5c19.333 -4 35.333 -13.333 48 -28s19.667 -31.334 21 -50.001zM-25.001 579.002l218 175.999c12.667 10 27 14.333 43 13
s29.333 -8.33301 40 -21c8 -9.33301 12.333 -20 13 -32s-2 -23 -8 -33l-144 -237c-8 -12 -17.667 -22.167 -29 -30.5s-23.833 -14.166 -37.5 -17.499s-27.5 -4.16602 -41.5 -2.49902s-27.333 6.16699 -40 13.5s-23.167 16.666 -31.5 27.999s-14.333 23.5 -18 36.5
s-4.5 26.333 -2.5 40s6.66699 26.834 14 39.501c3.33301 5.33301 7 10.166 11 14.499s8.33301 8.5 13 12.5z" />
    <glyph glyph-name="two" unicode="2" 
d="M-11 500l0.995117 7.00195c0 1.33301 0.166992 2.33301 0.5 3s0.5 1.66699 0.5 3c1.33301 5.33301 2 9.33301 2 12c1.33301 4 2.33301 7.83301 3 11.5s1.66699 7.5 3 11.5c2 8 4.33301 15.833 7 23.5s5.66699 15.167 9 22.5s6.83301 14.5 10.5 21.5l11.5 21.5
c7.33301 14 17 28 29 42c10 13.333 21.667 26 35 38c14 12.667 28.333 23.667 43 33c7.33301 5.33301 15 10 23 14s16 7.66699 24 11c16.667 6.66699 33.667 12.667 51 18c8.66699 2 17.334 3.83301 26.001 5.5s17.334 3.16699 26.001 4.5
c4.66699 0.666992 9.16699 1 13.5 1s8.5 0.333008 12.5 1c4.66699 0 9.16699 0.166992 13.5 0.5s8.83301 0.5 13.5 0.5c9.33301 0 18.666 -0.5 27.999 -1.5s19 -2.16699 29 -3.5c9.33301 -2 19.166 -4.5 29.499 -7.5s20.833 -6.83301 31.5 -11.5l15.5 -7.5
c5 -2.33301 10.167 -5.16602 15.5 -8.49902s10.333 -6.83301 15 -10.5l14 -11.5l13.5 -13.5c4.33301 -4.33301 8.5 -9.16602 12.5 -14.499l11.5 -15.5c3.66699 -5 7.16699 -10.167 10.5 -15.5s6.16602 -10.833 8.49902 -16.5s4.83301 -11.167 7.5 -16.5
c2 -5.33301 3.83301 -11 5.5 -17s3.16699 -11.667 4.5 -17c6 -22 9 -43 9 -63c0.666992 -10.667 1 -20.834 1 -30.501s-0.666992 -19.167 -2 -28.5s-2.5 -18.333 -3.5 -27s-2.5 -17.334 -4.5 -26.001c-3.33301 -17.333 -7.16602 -34 -11.499 -50
s-9.16602 -31.667 -14.499 -47s-11 -30.333 -17 -45s-12.333 -29.334 -19 -44.001l-9.5 -21l-9.5 -21l-10.5 -20l-10.5 -20l-22 -39.5l-22 -39.5l-23.5 -38.5l-23.5 -37.5c-31.333 -48 -65 -95.667 -101 -143v-2c-14 -18.667 -30.833 -33.667 -50.5 -45
s-40.334 -18.5 -62.001 -21.5s-43.667 -2 -66 3s-42.833 14.5 -61.5 28.5c-19.333 14 -34.666 30.833 -45.999 50.5s-18.5 40.334 -21.5 62.001s-2 43.5 3 65.5s14.5 42.667 28.5 62c3.33301 3.33301 6.33301 6.66602 9 9.99902s5.66699 6.33301 9 9l55 56l53 57
c9.33301 9.33301 18.166 18.833 26.499 28.5l24.5 29.5c8.66699 9.33301 17 19 25 29l23 29c3.33301 5.33301 7 10.333 11 15s7.66699 9.66699 11 15l21 30c7.33301 10 14.166 20 20.499 30s12.166 20 17.499 30c8 12 14.333 26.5 19 43.5s6.33398 33.833 5.00098 50.5
s-5.83301 32 -13.5 46s-19.167 24.167 -34.5 30.5s-35.166 7.5 -59.499 3.5s-53.5 -16 -87.5 -36c-10 -8 -18 -15.333 -24 -22c-4 -4 -7.83301 -8.16699 -11.5 -12.5s-7.16699 -8.83301 -10.5 -13.5c-3.33301 -5.33301 -6.66602 -10.333 -9.99902 -15
s-6.66602 -9.66699 -9.99902 -15c-1.33301 -2.66699 -2.66602 -5.16699 -3.99902 -7.5s-2.66602 -4.83301 -3.99902 -7.5l-2 -4l-2 -4l-2 -4v-1l-1 -1v-1l-1 -2c-4.66699 -12.667 -13 -21.834 -25 -27.501s-24.333 -6.16699 -37 -1.5c-11.333 4 -19.666 11 -24.999 21
s-7.33301 20.667 -6 32zM177.995 119.002l539.004 -10.9971c19.333 -0.666992 35.666 -8 48.999 -22s20 -30.667 20 -50c-0.666992 -15.333 -5.66699 -28.833 -15 -40.5s-20.666 -19.834 -33.999 -24.501l-515 -160c-20.667 -6.66699 -41.334 -8.83398 -62.001 -6.50098
s-40 8.16602 -58 17.499s-33.833 21.833 -47.5 37.5s-23.834 33.834 -30.501 54.501s-8.83398 41.5 -6.50098 62.5s8.16602 40.5 17.499 58.5s22 33.667 38 47s34.333 23.333 55 30c8 2.66699 16.333 4.66699 25 6s17 1.66602 25 0.999023z" />
    <glyph glyph-name="three" unicode="3" 
d="M90 610l0.994141 3.99121l2 4c0 1.33301 0.666992 3.33301 2 6c2.66699 5.33301 4.33398 9.33301 5.00098 12c2 4.66699 4 8.83398 6 12.501l6 11.5c8 16 18 31 30 45c5.33301 7.33301 11.333 14.333 18 21s13.667 13 21 19s15 11.667 23 17s16.667 10.333 26 15
s18.833 8.5 28.5 11.5s19.167 5.5 28.5 7.5c10 1.33301 20 2.5 30 3.5s20 1.16699 30 0.5c9.33301 -0.666992 18.666 -1.66699 27.999 -3s18.666 -3 27.999 -5c4.66699 -1.33301 9.16699 -2.5 13.5 -3.5s8.83301 -2.16699 13.5 -3.5c8.66699 -2 17.334 -5 26.001 -9
c18.667 -6 36.667 -15.333 54 -28l14 -10c4.66699 -3.33301 9 -7.33301 13 -12c4.66699 -4 9 -8.5 13 -13.5l12 -15.5c6.66699 -9.33301 12.667 -21 18 -35c5.33301 -14.667 9 -27.667 11 -39c1.33301 -6.66699 2 -13 2 -19v-18
c-0.666992 -6.66699 -1.16699 -12.834 -1.5 -18.501s-1.16602 -11.167 -2.49902 -16.5s-3.83301 -12.5 -7.5 -21.5s-8 -18.333 -13 -28l-14 -27c-4.33301 -8.33301 -7.5 -14.833 -9.5 -19.5l44 -47.5c12.667 -14.333 25.667 -32.166 39 -53.499
c13.333 -22.667 24 -46 32 -70c8.66699 -23.333 15 -48.666 19 -75.999c1.33301 -13.333 2.5 -26.666 3.5 -39.999s0.833008 -27 -0.5 -41c-1.33301 -13.333 -3.16602 -27.166 -5.49902 -41.499s-5.83301 -28.5 -10.5 -42.5s-10.667 -28.333 -18 -43
c-6.66699 -14 -15.334 -28 -26.001 -42c-10.667 -14.667 -22 -27.667 -34 -39c-6.66699 -6 -13.5 -11.667 -20.5 -17s-14.5 -10.333 -22.5 -15c-15.333 -10 -31.333 -18 -48 -24c-8.66699 -3.33301 -17 -6.16602 -25 -8.49902s-16.333 -4.16602 -25 -5.49902
c-4 -0.666992 -8 -1.16699 -12 -1.5s-8.33301 -0.833008 -13 -1.5c-2 0 -4 -0.166992 -6 -0.5s-4 -0.5 -6 -0.5h-6h-3l-1 -1h-1h-1h-1h-2h-5h-9h-18c-12 0 -24.167 0.5 -36.5 1.5s-24.833 2.16699 -37.5 3.5c-26 4 -52 10 -78 18s-52 19 -78 33
c-26 14.667 -50.333 32.334 -73 53.001c-6 5.33301 -11.833 10.833 -17.5 16.5s-11.167 11.834 -16.5 18.501c-5.33301 5.33301 -10.666 12.333 -15.999 21c-3.33301 3.33301 -6 7.33301 -8 12c-1.33301 1.33301 -2.16602 2.5 -2.49902 3.5s-1.16602 2.16699 -2.49902 3.5
c-0.666992 1.33301 -1 2.16602 -1 2.49902s-0.333008 1.16602 -1 2.49902l-2 2l-1 2l-1 2l-1 2c-9.33301 19.333 -14.166 39.333 -14.499 60s3 40.334 10 59.001s17.5 35.667 31.5 51s30.667 27.666 50 36.999c19.333 8.66699 39.333 13.334 60 14.001
s40.334 -2.5 59.001 -9.5s35.667 -17.5 51 -31.5s27.666 -30.667 36.999 -50l-1 2c-1.33301 2.66699 -2.66602 4.66699 -3.99902 6h-1c3.33301 -9.33301 9.16602 -17.5 17.499 -24.5s16.833 -12.167 25.5 -15.5c4.66699 -2.66699 9.66699 -5 15 -7l16 -6l18 -4
c6 -1.33301 12.333 -2.66602 19 -3.99902c12.667 -0.666992 23.667 1.83301 33 7.5s16.833 12.334 22.5 20.001s9.5 15.334 11.5 23.001s2.33301 13.167 1 16.5c0 11.333 -1 22.666 -3 33.999c-4.66699 24 -13.334 45.667 -26.001 65l-14 19c-6 8 -13 16.333 -21 25
s-16.5 17.167 -25.5 25.5s-18.167 15.166 -27.5 20.499l-14 34c24.667 9.33301 44.5 25 59.5 47s24.833 45.5 29.5 70.5s4.16699 49 -1.5 72s-16.834 40.167 -33.501 51.5s-39 14.5 -67 9.5s-61.667 -22.833 -101 -53.5l-5.5 -7.5
c-1.66699 -2.33301 -3.16699 -4.83301 -4.5 -7.5c-1.33301 -1.33301 -2.16602 -2.66602 -2.49902 -3.99902s-1.16602 -2.66602 -2.49902 -3.99902c0 -0.666992 -0.666992 -1.66699 -2 -3v-2l-1 -1l-13 -14c-9.33301 -10 -20.5 -15.333 -33.5 -16s-24.5 3.66602 -34.5 12.999
c-7.33301 6.66699 -12.166 14.667 -14.499 24s-1.83301 18.333 1.5 27z" />
    <glyph glyph-name="four" unicode="4" horiz-adv-x="737" 
d="M633 701l51.999 -701.998c2 -24.667 -1 -48.334 -9 -71.001s-19.5 -42.667 -34.5 -60s-33.167 -31.5 -54.5 -42.5s-44.333 -17.5 -69 -19.5c-25.333 -2 -49.166 0.833008 -71.499 8.5s-42.333 19.167 -60 34.5s-32 33.5 -43 54.5s-17.5 44.167 -19.5 69.5
c-1.33301 16.667 -0.333008 32.667 3 48l136 690c2 12 6.33301 22.667 13 32s14.5 17 23.5 23s19 10.167 30 12.5s22.5 2.5 34.5 0.5c19.333 -4 35.333 -13.333 48 -28s19.667 -31.334 21 -50.001zM37.999 341.002l443.998 409.999c14 13.333 30.333 19.5 49 18.5
s34.667 -8.5 48 -22.5c11.333 -12.667 17.5 -27.167 18.5 -43.5s-3.5 -31.166 -13.5 -44.499l-358 -486c-10.667 -14 -23.167 -25.167 -37.5 -33.5s-29.5 -13.833 -45.5 -16.5s-32.167 -2 -48.5 2s-31.5 11 -45.5 21c-14 10.667 -25.167 23.167 -33.5 37.5
s-13.833 29.5 -16.5 45.5s-2 32.167 2 48.5s11 31.5 21 45.5c2.66699 3.33301 5.33398 6.5 8.00098 9.5s5.33398 5.83301 8.00098 8.5zM129.997 368.001l613.999 -57.001c19.333 -2 35 -10.167 47 -24.5s17 -31.166 15 -50.499c-1.33301 -17.333 -8 -31.833 -20 -43.5
s-26 -18.167 -42 -19.5l-614 -56c-17.333 -2 -34 -0.333008 -50 5s-30.167 13.166 -42.5 23.499s-22.5 22.833 -30.5 37.5s-13 30.667 -15 48c-1.33301 17.333 0.5 33.833 5.5 49.5s12.833 29.834 23.5 42.501s23.334 23 38.001 31s30.667 12.667 48 14
c7.33301 1.33301 15 1.33301 23 0z" />
    <glyph glyph-name="five" unicode="5" horiz-adv-x="737" 
d="M521 525l-362.006 116.011l96 53l-38 -270l-69 104l77 -11l76 -11l154 -22l38 -6l5 -1h2h1l1 -1h1h1h2l4 -1c1.33301 -0.666992 2.5 -1 3.5 -1s2.16699 -0.333008 3.5 -1l14.5 -3.5l14.5 -3.5c9.33301 -3.33301 18.666 -7.16602 27.999 -11.499
s18.666 -9.16602 27.999 -14.499c18 -10.667 35.333 -23.667 52 -39c8 -7.33301 15.5 -15.333 22.5 -24s13.5 -17.667 19.5 -27c12 -19.333 21.333 -38.666 28 -57.999c6.66699 -20 11.667 -40 15 -60c2.66699 -20 3.66699 -40 3 -60
c-1.33301 -40.667 -8.66602 -79 -21.999 -115c-3.33301 -9.33301 -7.16602 -18.5 -11.499 -27.5s-9.16602 -18.167 -14.499 -27.5c-5.33301 -8.66699 -11 -17.167 -17 -25.5s-12.333 -16.5 -19 -24.5c-14 -16 -29.667 -30.667 -47 -44
c-9.33301 -7.33301 -18.666 -13.666 -27.999 -18.999l-29 -16c-18.667 -9.33301 -39.667 -16.666 -63 -21.999c-20.667 -4.66699 -42 -7.66699 -64 -9h-2h-1h-1c-2.66699 -0.666992 -2.16699 -0.833984 1.5 -0.500977s5.16699 0.5 4.5 0.5h-2v-1h-1h-8
c-2.66699 0 -5.16699 -0.166992 -7.5 -0.5s-4.83301 -0.5 -7.5 -0.5h-15c-4.66699 0 -9.66699 0.333008 -15 1c-9.33301 0.666992 -18.833 1.66699 -28.5 3l-28.5 4c-19.333 4 -37.666 8.83301 -54.999 14.5s-34 12.167 -50 19.5
c-33.333 15.333 -63.666 32.666 -90.999 51.999c-15.333 10 -29 20 -41 30c-3.33301 3.33301 -6.66602 6.16602 -9.99902 8.49902s-6.66602 5.16602 -9.99902 8.49902c-1.33301 1.33301 -3 2.83301 -5 4.5s-3.66699 3.5 -5 5.5c-2 1.33301 -3.66699 3 -5 5l-3 3l-2 2l-1 1
l-2 1c-14 16 -24.167 33.833 -30.5 53.5s-8.83301 39.5 -7.5 59.5s6.5 39.333 15.5 58s21.5 35 37.5 49s33.833 24.167 53.5 30.5s39.5 8.83301 59.5 7.5s39.333 -6.33301 58 -15s35 -21 49 -37h-1v1v-1l2 -2c0.666992 -0.666992 1.16699 -1.33398 1.5 -2.00098
s0.833008 -1.33398 1.5 -2.00098l9 -9c2.66699 -3.33301 5.5 -6.5 8.5 -9.5s6.16699 -5.83301 9.5 -8.5c6.66699 -6 13.334 -11.5 20.001 -16.5l20 -14.5c7.33301 -4 14.166 -7.5 20.499 -10.5l18.5 -8.5c3.33301 -1.33301 6.5 -2.33301 9.5 -3
s6.16699 -1.33398 9.5 -2.00098c1.33301 -0.666992 2.83301 -1 4.5 -1s3.16699 -0.333008 4.5 -1h4l1 -1h1h1h1c-0.666992 0 0.833008 0.166992 4.5 0.5s4.16699 0.166016 1.5 -0.500977h1c2 0 4 -0.166992 6 -0.5s4 -0.5 6 -0.5c1.33301 0.666992 3 1 5 1
s3.66699 0.333008 5 1c3.33301 0 6.66602 1 9.99902 3c3.33301 1.33301 7 3.66602 11 6.99902c8 6.66699 14.667 15 20 25c6 9.33301 10 20.333 12 33c2 10.667 2.33301 21.667 1 33c-0.666992 2 -1.16699 4.16699 -1.5 6.5s-1.16602 4.16602 -2.49902 5.49902
c-0.666992 2 -1.33398 3.83301 -2.00098 5.5s-1.66699 3.5 -3 5.5c-2.66699 4 -5.33398 7 -8.00098 9c-1.33301 1.33301 -3 2.66602 -5 3.99902s-4.33301 2.66602 -7 3.99902c-4 1.33301 -7 2.66602 -9 3.99902h-2v1h-1h-1l-1 1v-1v1h-1h-2l-5 2l-37 9l-149 40l-75 19
l-74 20l-10 2c-22 6 -38.833 18.833 -50.5 38.5s-14.5 40.5 -8.5 62.5v1l70 262l2 8c5.33301 18.667 16 32.667 32 42s33 11.666 51 6.99902c2 -0.666992 3.83301 -1.33398 5.5 -2.00098s3.5 -1.33398 5.5 -2.00098l346 -156c12.667 -6 21.334 -15.333 26.001 -28
s4.33398 -25.667 -0.999023 -39c-5.33301 -11.333 -13.833 -19.5 -25.5 -24.5s-23.5 -5.83301 -35.5 -2.5z" />
    <glyph glyph-name="six" unicode="6" horiz-adv-x="728" 
d="M158 312l0.999023 2l2 2l3 3c2.66699 2.66699 4.66699 5 6 7l13 13l12.5 12l13.5 12c18.667 16.667 39 32 61 46c2.66699 1.33301 5.33398 3 8.00098 5s5.33398 3.66699 8.00098 5c3.33301 1.33301 6.33301 3 9 5s5.66699 3.66699 9 5l18 9l10 4l10 4
c13.333 5.33301 27.166 9.83301 41.499 13.5s29.833 6.16699 46.5 7.5c8 0.666992 16.167 1 24.5 1s17.166 -0.666992 26.499 -2c16.667 -0.666992 34.667 -4.33398 54 -11.001c17.333 -6 34.666 -14 51.999 -24c8.66699 -5.33301 16.667 -10.833 24 -16.5
s14.666 -11.834 21.999 -18.501s14 -13.667 20 -21s11.667 -14.666 17 -21.999c10 -16 19 -32 27 -48c14 -32.667 23 -66.334 27 -101.001c2 -17.333 2.66699 -34.5 2 -51.5s-2.66699 -34.167 -6 -51.5s-7.66602 -34.333 -12.999 -51s-12.666 -33.334 -21.999 -50.001
c-4 -8.66699 -8.66699 -17 -14 -25s-11 -15.667 -17 -23c-6 -8 -12.333 -15.333 -19 -22c-3.33301 -4 -6.83301 -7.66699 -10.5 -11l-11.5 -10c-7.33301 -6.66699 -15 -12.834 -23 -18.501s-16.667 -11.167 -26 -16.5s-18.5 -10 -27.5 -14s-18.167 -7.66699 -27.5 -11
s-18.833 -6.16602 -28.5 -8.49902s-19.167 -4.16602 -28.5 -5.49902c-5.33301 -0.666992 -10.166 -1.16699 -14.499 -1.5s-9.16602 -0.833008 -14.499 -1.5c-2 0 -4.16699 -0.166992 -6.5 -0.5s-4.5 -0.5 -6.5 -0.5h-4h6h-1h-1h-2h-3l-5 -1h-5h-11
c-3.33301 -0.666992 -6.83301 -1 -10.5 -1h-11.5c-14.667 0 -30 1 -46 3c-8 0.666992 -16 1.66699 -24 3s-16.667 3 -26 5c-8.66699 2 -17.334 4.33301 -26.001 7s-17.667 6 -27 10c-9.33301 3.33301 -18.333 7.5 -27 12.5l-27 15.5
c-8.66699 5.33301 -16.834 11.333 -24.501 18s-15.167 13.667 -22.5 21s-14 14.666 -20 21.999s-11.667 14.666 -17 21.999c-11.333 14.667 -20.333 29.667 -27 45c-7.33301 16 -13.333 30.333 -18 43c-2.66699 6 -5 12.667 -7 20
c-1.33301 3.33301 -2.33301 6.66602 -3 9.99902s-1.66699 6.66602 -3 9.99902v1l-1 1v1v1l-1 1v2c-1.33301 4 -2 6.66699 -2 8c-0.666992 3.33301 -1.66699 7.66602 -3 12.999c-1.33301 4.66699 -2.16602 9 -2.49902 13s-0.833008 8 -1.5 12s-1.16699 7.83301 -1.5 11.5
s-0.833008 7.16699 -1.5 10.5c0 4 -0.166992 7.83301 -0.5 11.5s-0.5 7.16699 -0.5 10.5v41c0.666992 6.66699 1.16699 13.334 1.5 20.001s0.833008 13.334 1.5 20.001c1.33301 13.333 2.83301 26.333 4.5 39s3.83398 25.667 6.50098 39
c1.33301 6.66699 2.83301 13.167 4.5 19.5s3.16699 12.5 4.5 18.5c1.33301 6.66699 3 13.167 5 19.5l6 18.5c8 25.333 17.333 50.333 28 75l8 18c2.66699 6 5.66699 12 9 18l9 18c2 3.33301 3.83301 6.16602 5.5 8.49902s3.5 5.16602 5.5 8.49902c14 22.667 30 44.667 48 66
c16.667 19.333 36 38 58 56c20 17.333 42.333 32.333 67 45c6 3.33301 11.833 6.33301 17.5 9s11.5 5.66699 17.5 9c13.333 5.33301 25.666 10 36.999 14c12 4 24.167 7.5 36.5 10.5s24.833 5.83301 37.5 8.5c23.333 4 47.666 7 72.999 9c24 1.33301 47.833 1.33301 71.5 0
s47.167 -3.66602 70.5 -6.99902c13.333 -2 23.833 -8.16699 31.5 -18.5s10.5 -21.833 8.5 -34.5c-1.33301 -11.333 -6.16602 -20.666 -14.499 -27.999s-17.833 -11.666 -28.5 -12.999h-1c-43.333 -3.33301 -83.666 -9.66602 -120.999 -18.999
c-18 -4 -36.667 -9.66699 -56 -17c-18 -7.33301 -35 -15.333 -51 -24l-11.5 -7.5l-11.5 -7.5l-21 -15c-14 -12 -26.333 -24.333 -37 -37c-22.667 -25.333 -40 -54.333 -52 -87c-6 -16 -10.833 -32.667 -14.5 -50s-6.16699 -34.666 -7.5 -51.999
c-0.666992 -4.66699 -1 -9.16699 -1 -13.5v-13.5v-13.5c0 -4.33301 0.333008 -8.83301 1 -13.5l2 -27c0.666992 -8.66699 1.66699 -17.667 3 -27c1.33301 -4.66699 2.16602 -9 2.49902 -13s1.16602 -8.33301 2.49902 -13l3 -12c0.666992 -2 1.16699 -4.16699 1.5 -6.5
s0.833008 -4.16602 1.5 -5.49902l2 -6l2 -6c0.666992 -1.33301 1.16699 -3 1.5 -5s1.16602 -3.66699 2.49902 -5c0.666992 -2 1.66699 -4.33301 3 -7l2 -2v-1v1l1 -1c8.66699 -16.667 16.667 -29 24 -37c1.33301 -2.66699 2.83301 -4.83398 4.5 -6.50098l4.5 -4.5
c2 -1.33301 4.33301 -2.66602 7 -3.99902l4 -2l5 -2c2 -1.33301 5 -2.33301 9 -3c4 -1.33301 9 -2.33301 15 -3c3.33301 -0.666992 6.66602 -1.16699 9.99902 -1.5s6.66602 -0.5 9.99902 -0.5c2 0 3.83301 -0.166992 5.5 -0.5s3.5 -0.5 5.5 -0.5h6h6h1h2h2h7h3
c1.33301 -0.666992 3 -1 5 -1c3.33301 0 5.66602 0.333008 6.99902 1h6c0.666992 0 2.33398 0.666992 5.00098 2c1.33301 0 2.33301 0.333008 3 1s1.16699 1 1.5 1s0.833008 0.333008 1.5 1l6 6c5.33301 5.33301 9.66602 12.333 12.999 21
c4.66699 10 7.33398 19.667 8.00098 29c0.666992 4.66699 1 9.33398 1 14.001v13c-0.666992 2 -1 4 -1 6s-0.333008 4 -1 6l-3 9c-1.33301 4 -2.33301 6.66699 -3 8c-0.666992 2 -2.66699 4.66699 -6 8c-1.33301 1.33301 -2.66602 2.5 -3.99902 3.5s-3 2.16699 -5 3.5
c-4 2 -9 4 -15 6c-5.33301 1.33301 -11.666 2.33301 -18.999 3s-15 1 -23 1c-5.33301 0 -9.33301 -0.333008 -12 -1c-2.66699 0 -5 -0.166992 -7 -0.5s-4 -0.5 -6 -0.5c-2.66699 -0.666992 -5 -1 -7 -1s-4.33301 -0.333008 -7 -1c-2 -0.666992 -4.16699 -1.16699 -6.5 -1.5
s-4.5 -0.833008 -6.5 -1.5c-19.333 -4 -38.333 -9 -57 -15c-5.33301 -1.33301 -10.166 -3 -14.499 -5s-9.16602 -3.66699 -14.499 -5l-15 -6l-7 -2l-4 -2c-0.666992 0 -1.33398 -0.333008 -2.00098 -1h-2c-14 -5.33301 -27.667 -5 -41 1s-22.666 15.667 -27.999 29
c-4 9.33301 -5 18.833 -3 28.5s6 18.167 12 25.5z" />
    <glyph glyph-name="seven" unicode="7" horiz-adv-x="551" 
d="M584 618l-214.999 -700.998c-7.33301 -24 -18.833 -45 -34.5 -63s-33.667 -32.5 -54 -43.5s-42.333 -17.833 -66 -20.5s-47.5 -0.333984 -71.5 6.99902s-45 18.833 -63 34.5s-32.5 33.667 -43.5 54s-17.667 42.333 -20 66s0.166992 47.5 7.5 71.5
c2 7.33301 4.66699 14.5 8 21.5s7 13.833 11 20.5l386 624c6 10 13.667 18.333 23 25s19.333 11.167 30 13.5s21.667 2.66602 33 0.999023s22 -5.5 32 -11.5c17.333 -10.667 29.166 -25.167 35.499 -43.5s6.83301 -36.833 1.5 -55.5zM81.001 729.002l411.001 -0.00292969
c19.333 0 35.833 -6.66699 49.5 -20s20.5 -29.666 20.5 -48.999c0 -16 -4.83301 -30 -14.5 -42s-21.834 -20.333 -36.501 -25l-394 -113c-17.333 -5.33301 -34.333 -6.83301 -51 -4.5s-32 7.33301 -46 15s-26.5 18 -37.5 31s-18.833 28.167 -23.5 45.5
c-4.66699 16.667 -6 33.334 -4 50.001s7 32.167 15 46.5s18.5 26.833 31.5 37.5s27.833 18.334 44.5 23.001c13.333 3.33301 25 5 35 5z" />
    <glyph glyph-name="eight" unicode="8" horiz-adv-x="695" 
d="M347 468c48 0 93 -7.83301 135 -23.5s78.833 -36.834 110.5 -63.501s56.5 -58 74.5 -94s27 -74.333 27 -115c0 -41.333 -9 -80 -27 -116s-42.833 -67.333 -74.5 -94s-68.5 -47.834 -110.5 -63.501s-87 -23.5 -135 -23.5s-93 7.83301 -135 23.5
s-78.667 36.834 -110 63.501s-56 58 -74 94s-27 74.667 -27 116c0 40.667 9 79 27 115s42.667 67.333 74 94s68 47.834 110 63.501s87 23.5 135 23.5zM370 168c18.667 0 36.167 2 52.5 6s30.5 9.5 42.5 16.5s21.5 15.167 28.5 24.5s10.5 19.333 10.5 30
s-3.5 20.667 -10.5 30s-16.5 17.5 -28.5 24.5s-26.167 12.5 -42.5 16.5s-33.833 6 -52.5 6s-36.167 -2 -52.5 -6s-30.5 -9.5 -42.5 -16.5s-21.5 -15.167 -28.5 -24.5s-10.5 -19.333 -10.5 -30s3.5 -20.667 10.5 -30s16.5 -17.5 28.5 -24.5s26.167 -12.5 42.5 -16.5
s33.833 -6 52.5 -6zM370 726c34.667 0 67.167 -5.16699 97.5 -15.5s56.833 -24.5 79.5 -42.5s40.5 -39.167 53.5 -63.5s19.5 -50.166 19.5 -77.499c0 -28 -6.5 -54.167 -19.5 -78.5s-30.833 -45.5 -53.5 -63.5s-49.167 -32.167 -79.5 -42.5s-62.833 -15.5 -97.5 -15.5
s-67.167 5.16699 -97.5 15.5s-56.833 24.5 -79.5 42.5s-40.5 39.167 -53.5 63.5s-19.5 50.5 -19.5 78.5c0 27.333 6.5 53.166 19.5 77.499s30.833 45.5 53.5 63.5s49.167 32.167 79.5 42.5s62.833 15.5 97.5 15.5zM379 552c26.667 0 49.5 5 68.5 15s28.5 22.333 28.5 37
c0 14 -9.5 26.167 -28.5 36.5s-41.833 15.5 -68.5 15.5c-27.333 0 -50.333 -5.16699 -69 -15.5s-28 -22.5 -28 -36.5c0 -14.667 9.33301 -27 28 -37s41.667 -15 69 -15z" />
    <glyph glyph-name="nine" unicode="9" horiz-adv-x="712" 
d="M570 343l-4.00195 -2.00781l-4 -2l-8 -5l-15 -9c-10 -6 -20.667 -12 -32 -18s-22.666 -11.667 -33.999 -17s-23 -10.333 -35 -15c-12 -5.33301 -24.167 -9.83301 -36.5 -13.5s-25.166 -7.16699 -38.499 -10.5l-20 -4c-6.66699 -1.33301 -13.667 -2.33301 -21 -3
c-7.33301 -1.33301 -14.666 -2 -21.999 -2h-22c-13.333 0 -28.333 1.66699 -45 5c-8 1.33301 -15.833 3.16602 -23.5 5.49902s-15.167 5.16602 -22.5 8.49902s-14.666 7 -21.999 11s-14.333 8.33301 -21 13c-6.66699 5.33301 -13 10.666 -19 15.999s-11.667 11 -17 17
c-12 12 -21.333 24.667 -28 38c-8.66699 14 -15.334 27.667 -20.001 41c-5.33301 14 -9.33301 28.167 -12 42.5s-4.66699 28.833 -6 43.5c-1.33301 30 1 58.333 7 85l6 21c2 6.66699 4.33301 13.667 7 21c2.66699 6.66699 5.5 13.334 8.5 20.001s6.5 13.334 10.5 20.001
c3.33301 6.66699 7.16602 13 11.499 19s9.16602 12 14.499 18c8.66699 11.333 19.334 22.333 32.001 33s25.667 19.334 39 26.001c13.333 7.33301 27.666 13.666 42.999 18.999c7.33301 2.66699 14.833 4.83398 22.5 6.50098s15.167 3.16699 22.5 4.5
c3.33301 0.666992 7 1 11 1s7.66699 0.333008 11 1h11h3h-3h1h1l2 1h2h5h5c1.33301 0 2.83301 0.166992 4.5 0.5s3.16699 0.5 4.5 0.5h19h19.5c6.33301 0 13.166 -0.666992 20.499 -2l21 -2c6.66699 -0.666992 13.667 -1.66699 21 -3
c13.333 -2.66699 27.666 -6.66699 42.999 -12l11 -4.5l11 -4.5c3.33301 -2 7 -3.83301 11 -5.5s7.66699 -3.5 11 -5.5l10.5 -6.5l10.5 -6.5l9.5 -7.5l9.5 -7.5c6.66699 -5.33301 12.834 -10.666 18.501 -15.999s11.167 -11 16.5 -17c5.33301 -5.33301 10.333 -11 15 -17
s9 -12 13 -18c4.66699 -6 9 -11.833 13 -17.5s7.66699 -11.5 11 -17.5l10 -17.5l10 -16.5l1 -1v-1v-1l2 -4l3 -6c0.666992 -2.66699 2.33398 -6.66699 5.00098 -12c1.33301 -4 2.5 -7.83301 3.5 -11.5s2.16699 -7.16699 3.5 -10.5c5.33301 -14.667 9.33301 -28 12 -40
c2 -7.33301 3.66699 -14.166 5 -20.499l4 -19.5l6 -39c3.33301 -26.667 4.83301 -53.334 4.5 -80.001s-2.5 -53.667 -6.5 -81c-2 -14 -4.33301 -27.833 -7 -41.5s-6 -27.167 -10 -40.5c-4 -14 -8.33301 -28 -13 -42s-10.334 -27.667 -17.001 -41
c-6 -13.333 -12.5 -26.666 -19.5 -39.999s-15.167 -26.333 -24.5 -39c-8.66699 -13.333 -17.667 -26 -27 -38s-19.666 -23.667 -30.999 -35s-23 -22.166 -35 -32.499s-24.333 -20.166 -37 -29.499c-26 -18 -53 -34 -81 -48c-13.333 -6.66699 -27.166 -12.667 -41.499 -18
s-28.5 -10.333 -42.5 -15c-28 -9.33301 -56 -16.333 -84 -21c-7.33301 -1.33301 -14.333 -2.5 -21 -3.5s-13.667 -2.16699 -21 -3.5l-21 -2l-20 -2c-14 -1.33301 -27.667 -2.16602 -41 -2.49902s-26.666 -0.166016 -39.999 0.500977h-3c-25.333 0 -48.833 5 -70.5 15
s-40.667 23.333 -57 40s-29.166 36 -38.499 58s-13.666 45.667 -12.999 71c0 25.333 5 49 15 71s23.333 41.167 40 57.5s36 29 58 38s45.667 13.5 71 13.5c2 0 4.16699 -0.166992 6.5 -0.5s4.16602 -0.5 5.49902 -0.5c17.333 -1.33301 34.5 -2.16602 51.5 -2.49902
s33.167 0.166992 48.5 1.5c30.667 2 59 7 85 15c6 2 12 4.16699 18 6.5s12 4.83301 18 7.5c10 5.33301 20.667 11.666 32 18.999c5.33301 4 10.166 8 14.499 12l14.5 13c9.33301 10.667 18 21.334 26 32.001c4 6 7.83301 12.167 11.5 18.5s7.16699 13.166 10.5 20.499
c6.66699 14 12.667 29 18 45c3.33301 8 6 16 8 24l6 25c2 8.66699 3.83301 17.334 5.5 26.001s3.16699 17.334 4.5 26.001c1.33301 4.66699 2.16602 9.16699 2.49902 13.5s0.833008 8.83301 1.5 13.5c0 2 0.166992 4.16699 0.5 6.5s0.5 4.5 0.5 6.5
c0.666992 2 1 4.16699 1 6.5v6.5c0.666992 4 1 8.16699 1 12.5v11.5l1 11v3v2v1c-0.666992 5.33301 -1.33398 10.166 -2.00098 14.499s-1.66699 8.5 -3 12.5l-6 24c-2 6 -4.66699 12.667 -8 20c-2 5.33301 -5 10.666 -9 15.999c-2.66699 4 -4.33398 6.33301 -5.00098 7l-6 6
c-5.33301 4.66699 -10.333 8 -15 10c-10.667 6 -25 10.667 -43 14c-4 0.666992 -8.16699 1.16699 -12.5 1.5s-8.83301 0.833008 -13.5 1.5h-14h-7h-7h-2h-2h-5h-1h-6h-10c-3.33301 -0.666992 -6.66602 -1.16699 -9.99902 -1.5s-6.66602 -1.16602 -9.99902 -2.49902
c-11.333 -2.66699 -22.333 -8.33398 -33 -17.001c-5.33301 -3.33301 -10.166 -7.66602 -14.499 -12.999s-8.5 -11 -12.5 -17c-8 -13.333 -13.333 -27 -16 -41c-4 -14 -5.33301 -29 -4 -45s4.33301 -30.333 9 -43s11.334 -23.667 20.001 -33l6 -6c2 -2 4.33301 -3.66699 7 -5
s5.16699 -2.5 7.5 -3.5s4.83301 -2.16699 7.5 -3.5c3.33301 -1.33301 6.33301 -2.33301 9 -3s5.66699 -1.33398 9 -2.00098s6.66602 -1 9.99902 -1h10c7.33301 0.666992 14.666 1.5 21.999 2.5s15 2.83301 23 5.5c16 4.66699 32.333 11.334 49 20.001
c8.66699 4 17 8.5 25 13.5l24 15.5l12 8c4 2.66699 8 5.66699 12 9c5.33301 4 9 7 11 9l6 5l6 5c9.33301 7.33301 19.5 12.666 30.5 15.999s22 4.5 33 3.5s21.5 -4.16699 31.5 -9.5s19 -12.666 27 -21.999c7.33301 -9.33301 12.666 -19.333 15.999 -30s4.5 -21.5 3.5 -32.5
s-4.16699 -21.667 -9.5 -32s-12.666 -19.166 -21.999 -26.499c-2.66699 -2.66699 -6 -5 -10 -7v-1z" />
    <glyph glyph-name="colon" unicode=":" horiz-adv-x="222" 
d="M0 83c0 14 2.5 27 7.5 39s12 22.667 21 32s19.5 16.666 31.5 21.999s25 8 39 8s27 -2.66699 39 -8s22.667 -12.666 32 -21.999s16.666 -20 21.999 -32s8 -25 8 -39s-2.66699 -27 -8 -39s-12.666 -22.5 -21.999 -31.5s-20 -16 -32 -21s-25 -7.5 -39 -7.5
c-28 0 -51.5 9.5 -70.5 28.5s-28.5 42.5 -28.5 70.5zM0 414c0 13.333 2.5 26.166 7.5 38.499s12 23 21 32s19.5 16.167 31.5 21.5s25 8 39 8s27 -2.66699 39 -8s22.667 -12.5 32 -21.5s16.666 -19.667 21.999 -32s8 -25.166 8 -38.499c0 -14 -2.66699 -27.167 -8 -39.5
s-12.666 -23 -21.999 -32s-20 -16 -32 -21s-25 -7.5 -39 -7.5s-27 2.5 -39 7.5s-22.5 12 -31.5 21s-16 19.667 -21 32s-7.5 25.5 -7.5 39.5z" />
    <glyph glyph-name="semicolon" unicode=";" horiz-adv-x="222" 
d="M0 414c0 13.333 2.5 26.166 7.5 38.499s12 23 21 32s19.5 16.167 31.5 21.5s25 8 39 8s27 -2.66699 39 -8s22.667 -12.5 32 -21.5s16.666 -19.667 21.999 -32s8 -25.166 8 -38.499c0 -14 -2.66699 -27.167 -8 -39.5s-12.666 -23 -21.999 -32s-20 -16 -32 -21
s-25 -7.5 -39 -7.5s-27 2.5 -39 7.5s-22.5 12 -31.5 21s-16 19.667 -21 32s-7.5 25.5 -7.5 39.5zM158 65l-89.0029 -190c-4 -7.33301 -9.66699 -12.333 -17 -15s-14.666 -2.33398 -21.999 0.999023c-5.33301 2.66699 -9.66602 6.33398 -12.999 11.001
s-4.66602 9.66699 -3.99902 15l4 209c0.666992 20.667 8.16699 38.167 22.5 52.5s31.833 21.5 52.5 21.5c20.667 -0.666992 38.167 -8.33398 52.5 -23.001s21.166 -32 20.499 -52c-0.666992 -5.33301 -1.66699 -10.666 -3 -15.999s-2.66602 -10 -3.99902 -14z" />
    <glyph glyph-name="less" unicode="&#x3c;" horiz-adv-x="373" 
d="M184 57l-129.998 167c-4 6.66699 -5.33301 13.834 -4 21.501s4.66602 14.167 9.99902 19.5c11.333 8 21.666 8.66699 30.999 2l184 -98c18 -10 30 -24.833 36 -44.5s4.33301 -38.167 -5 -55.5c-9.33301 -18 -23.833 -30.167 -43.5 -36.5s-38.5 -4.83301 -56.5 4.5l-12 10
c-4 3.33301 -7.33301 6.66602 -10 9.99902zM278.002 304l-189.999 -88.002c-7.33301 -2.66699 -14.833 -2.5 -22.5 0.5s-13.167 7.83301 -16.5 14.5c-2.66699 5.33301 -3.5 10.833 -2.5 16.5s3.16699 10.167 6.5 13.5l137 158c14.667 15.333 32 23.833 52 25.5
s37.667 -4.16602 53 -17.499c8 -6.66699 14 -14.5 18 -23.5s6.33301 -18.333 7 -28s-0.333008 -19.167 -3 -28.5s-7.33398 -17.666 -14.001 -24.999c-8 -8 -16.333 -14 -25 -18z" />
    <glyph glyph-name="equal" unicode="=" horiz-adv-x="466" 
d="M84 304l250.002 26.0029c24 2 45.5 -3.33301 64.5 -16s30.167 -29.334 33.5 -50.001c3.33301 -21.333 -2.16699 -40 -16.5 -56s-33.5 -25 -57.5 -27c-1.33301 0 -2.5 -0.166992 -3.5 -0.5s-2.16699 -0.5 -3.5 -0.5l-251 -7c-10.667 -0.666992 -20.834 0.5 -30.501 3.5
s-18.167 7.33301 -25.5 13s-13.333 12.5 -18 20.5s-7.33398 16.667 -8.00098 26c-1.33301 17.333 4.5 32.666 17.5 45.999s29.167 20.666 48.5 21.999zM71.002 454.003l247.002 43.001c24 4 46 0.333008 66 -11s32.333 -27.333 37 -48
c5.33301 -20.667 1.16602 -39.5 -12.501 -56.5s-32.167 -27.5 -55.5 -31.5c-1.33301 0 -2.5 -0.166992 -3.5 -0.5s-2.16699 -0.5 -3.5 -0.5l-250 -25c-21.333 -2.66699 -40.333 1.66602 -57 12.999s-26.334 26 -29.001 44c-2.66699 17.333 2 33 14 47s27.667 22.667 47 26z
" />
    <glyph glyph-name="greater" unicode="&#x3e;" horiz-adv-x="319" 
d="M158 415l129.998 -167c4 -6.66699 5.33301 -13.834 4 -21.501s-4.66602 -14.167 -9.99902 -19.5c-11.333 -8 -21.666 -8.66699 -30.999 -2l-184 98c-18 10 -30 24.833 -36 44.5s-4.33301 38.167 5 55.5c9.33301 18 23.833 30.167 43.5 36.5s38.5 4.83301 56.5 -4.5
l12 -10c4 -3.33301 7.33301 -6.66602 10 -9.99902zM63.998 168l189.999 88.002c7.33301 2.66699 14.833 2.5 22.5 -0.5s13.167 -7.83301 16.5 -14.5c2.66699 -5.33301 3.5 -10.833 2.5 -16.5s-3.16699 -10.167 -6.5 -13.5l-137 -158c-14.667 -15.333 -32 -23.833 -52 -25.5
s-37.667 4.16602 -53 17.499c-8 6.66699 -14 14.5 -18 23.5s-6.33301 18.333 -7 28s0.333008 19.167 3 28.5s7.33398 17.666 14.001 24.999c8 8 16.333 14 25 18z" />
    <glyph glyph-name="question" unicode="?" horiz-adv-x="520" 
d="M-117 603l-0.00195312 1.00488v1v1v4v5v11c0 4 0.166992 7.83301 0.5 11.5s0.5 7.16699 0.5 10.5c1.33301 7.33301 2.5 14.5 3.5 21.5s2.16699 14.167 3.5 21.5c3.33301 14 7.66602 28.167 12.999 42.5s12 28.166 20 41.499c8.66699 14 17.667 26.667 27 38
c5.33301 6 10.833 11.667 16.5 17l17.5 16c6 5.33301 12.333 10.166 19 14.499l20 12.5c7.33301 4 14.5 7.66699 21.5 11s14.167 6.33301 21.5 9c14 5.33301 28.333 9.83301 43 13.5s29.334 6.5 44.001 8.5l21 3h11l3 1h1h1h3h1h2h5h6c2.66699 0.666992 6.33398 1 11.001 1
c4 -0.666992 8 -1 12 -1h11c8 -1.33301 16 -2.5 24 -3.5s16 -2.5 24 -4.5c17.333 -3.33301 33.666 -8.33301 48.999 -15s31 -15.334 47 -26.001c14.667 -11.333 28.667 -23.333 42 -36c12.667 -14 23.667 -29 33 -45c10 -15.333 18 -31.333 24 -48
c6.66699 -17.333 11.334 -34 14.001 -50c2 -8.66699 3.5 -17.167 4.5 -25.5s1.83301 -16.5 2.5 -24.5c1.33301 -17.333 1.33301 -34 0 -50c-0.666992 -8.66699 -1.66699 -17 -3 -25l-4 -25l-6 -25c-2 -8 -4.66699 -16.333 -8 -25c-5.33301 -15.333 -13.333 -32 -24 -50
c-5.33301 -8.66699 -11 -17.167 -17 -25.5s-13 -16.833 -21 -25.5c-1.33301 -1.33301 -2.5 -2.33301 -3.5 -3s-2.16699 -1.66699 -3.5 -3l-3 -3l-2 -2l-1 -1l-3 -3l-3 -3l-6 -6c-2 -2 -4 -3.66699 -6 -5c-16 -16 -31 -32 -45 -48l-9.5 -11.5l-9.5 -11.5
c-3.33301 -4 -6.33301 -7.83301 -9 -11.5s-5 -7.16699 -7 -10.5c-2.66699 -4 -4.33398 -7 -5.00098 -9c-2 -2 -3 -4 -3 -6h1c0.666992 0 1 0.333008 1 1s0.333008 1.33398 1 2.00098c0 0.666992 0.333008 1.66699 1 3s1.33398 3 2.00098 5c0.666992 1.33301 1 2.83301 1 4.5
s0.333008 3.16699 1 4.5c0 1.33301 0.166992 3 0.5 5s0.5 4.33301 0.5 7c0 -18 -3.5 -35.167 -10.5 -51.5s-16.5 -30.5 -28.5 -42.5s-26.167 -21.5 -42.5 -28.5s-33.5 -10.5 -51.5 -10.5s-35.167 3.5 -51.5 10.5s-30.5 16.5 -42.5 28.5s-21.5 26.167 -28.5 42.5
s-10.5 33.5 -10.5 51.5c0 4 0.166992 7.66699 0.5 11s0.833008 6.66602 1.5 9.99902s1.16699 6.33301 1.5 9s0.833008 5.33398 1.5 8.00098c1.33301 5.33301 2.83301 10.166 4.5 14.499s3.16699 8.5 4.5 12.5c1.33301 3.33301 2.83301 6.5 4.5 9.5s3.16699 6.16699 4.5 9.5
s2.83301 6.16602 4.5 8.49902s3.16699 4.83301 4.5 7.5c6 8.66699 12 16.667 18 24c4.66699 6.66699 10.334 13.334 17.001 20.001c5.33301 6 10.666 11.667 15.999 17l16 16c5.33301 5.33301 10.666 10.166 15.999 14.499l16 13.5c10.667 9.33301 21.167 18 31.5 26
l31.5 24c2.66699 1.33301 5.16699 3 7.5 5s5.16602 4 8.49902 6l4 3l3 3h1h1c1.33301 0 3.66602 1.66699 6.99902 5c1.33301 2 3 4 5 6s3.66699 4.66699 5 8s2.83301 6.5 4.5 9.5s3.16699 6.16699 4.5 9.5c3.33301 7.33301 5.66602 14.666 6.99902 21.999l4 22
c1.33301 7.33301 1.83301 14.666 1.5 21.999s-1.16602 14.333 -2.49902 21c-3.33301 13.333 -7.66602 24.666 -12.999 33.999c-3.33301 4.66699 -7 9.16699 -11 13.5s-8.66699 8.16602 -14 11.499c-11.333 7.33301 -25.666 13 -42.999 17
c-5.33301 1.33301 -9.66602 2.33301 -12.999 3c-1.33301 0 -2.33301 0.166992 -3 0.5s-1.66699 0.5 -3 0.5h-4l-3 1h-1h-1h-2h-1h-1h-2c-1.33301 0.666992 -3.66602 1 -6.99902 1h-15c-18.667 0.666992 -37 -1 -55 -5c-36 -7.33301 -64.667 -24.333 -86 -51
c-11.333 -13.333 -20.666 -29.333 -27.999 -48c-1.33301 -4.66699 -2.83301 -9.16699 -4.5 -13.5s-3.16699 -9.16602 -4.5 -14.499c-0.666992 -2.66699 -1.16699 -5 -1.5 -7s-0.833008 -4.33301 -1.5 -7c0 -3.33301 -0.333008 -5.66602 -1 -6.99902v-3v-2v-1
c-1.33301 -14 -7 -25.667 -17 -35s-22 -13.333 -36 -12c-12.667 0.666992 -23.334 5.33398 -32.001 14.001s-13.667 19 -15 31zM42.998 -9.99512c0 18 3.33301 35.167 10 51.5s16 30.5 28 42.5s26 21.5 42 28.5s33.333 10.5 52 10.5c18 0 35 -3.5 51 -10.5
s30.167 -16.5 42.5 -28.5s22 -26.167 29 -42.5s10.5 -33.5 10.5 -51.5c0 -18.667 -3.5 -36 -10.5 -52s-16.667 -30 -29 -42s-26.5 -21.333 -42.5 -28s-33 -10 -51 -10c-18.667 0 -36 3.33301 -52 10s-30 16 -42 28s-21.333 26 -28 42s-10 33.333 -10 52z" />
    <glyph glyph-name="at" unicode="@" horiz-adv-x="632" 
d="M356 367c6.66699 -12 10.501 -23.4961 11.501 -34.4961s-0.333008 -20.833 -4 -29.5s-9.16699 -15.834 -16.5 -21.501s-15.666 -9.5 -24.999 -11.5c-2 -2 -4.16699 -4.33301 -6.5 -7s-4.16602 -5.33398 -5.49902 -8.00098c0 -3.33301 1.33301 -5.66602 4 -6.99902
c6 -4 12.667 -6 20 -6s14 1.33301 20 4c1.33301 1.33301 2.16602 3 2.49902 5s0.833008 3.66699 1.5 5c11.333 15.333 24.333 25.333 39 30s27.667 4.33398 39 -0.999023l12.5 -4c4.33301 -1.33301 8.16602 -3.33301 11.499 -6c0 0.666992 1.16699 0.166992 3.5 -1.5
s4.16602 -2.83398 5.49902 -3.50098s2.16602 -1.16699 2.49902 -1.5s1.16602 -0.833008 2.49902 -1.5c0 4 0.333008 7.33301 1 10c0 4 -1 11.167 -3 21.5s-4.5 21 -7.5 32s-6.33301 21.167 -10 30.5s-6.83398 15.333 -9.50098 18c-19.333 7.33301 -41 14.5 -65 21.5
s-48.333 11.5 -73 13.5s-48.5 0.166992 -71.5 -5.5s-42.5 -17.5 -58.5 -35.5c-18.667 -20.667 -30.5 -43.5 -35.5 -68.5s-5 -50.167 0 -75.5s14.167 -49.666 27.5 -72.999s29 -43.666 47 -60.999c0.666992 -0.666992 2.5 -2.33398 5.5 -5.00098s6.5 -5.5 10.5 -8.5
s8.33301 -6 13 -9s8.66699 -4.83301 12 -5.5c10 -2 20.833 -1.5 32.5 1.5s23.834 7 36.501 12l37 15c12 5 23.667 8.5 35 10.5c18.667 -0.666992 33.667 -5.5 45 -14.5s18.333 -19.667 21 -32s0.5 -25 -6.5 -38s-18.833 -23.833 -35.5 -32.5
c-17.333 -2.66699 -34 -7.16699 -50 -13.5s-32.167 -12.166 -48.5 -17.499s-33 -9 -50 -11s-34.5 0 -52.5 6c-30.667 10 -58.5 26 -83.5 48s-46.5 47.833 -64.5 77.5s-31.667 61.667 -41 96s-13.666 68.5 -12.999 102.5s6.66699 66.5 18 97.5s29.333 58.167 54 81.5
c26.667 25.333 56.167 44 88.5 56s66.5 18.667 102.5 20c16.667 0.666992 35.667 0.166992 57 -1.5s42.666 -4.83398 63.999 -9.50098s42 -10.834 62 -18.501s36.667 -16.5 50 -26.5c18 -14 33.333 -34.167 46 -60.5s21.5 -54.5 26.5 -84.5s5.83301 -59.5 2.5 -88.5
s-11.666 -52.833 -24.999 -71.5c-8.66699 -12 -19.834 -21.833 -33.501 -29.5s-28.167 -11.167 -43.5 -10.5c-6 0.666992 -14 3 -24 7s-20.667 9 -32 15c-18 -16.667 -38.833 -26.834 -62.5 -30.501s-47.167 -2.16699 -70.5 4.5s-44.5 17.5 -63.5 32.5
s-32.667 32.833 -41 53.5s-9.83301 43.334 -4.5 68.001s21 49.667 47 75c10 9.33301 19.833 16.666 29.5 21.999s20.834 9.66602 33.501 12.999c12.667 -0.666992 22.334 -2.33398 29.001 -5.00098s14.667 -8 24 -16l3 -3v0z" />
    <glyph glyph-name="A" unicode="A" horiz-adv-x="948" 
d="M940 163c14.667 -23.333 23.832 -47.999 27.499 -73.999s2.66699 -51.333 -3 -76s-16.167 -47.667 -31.5 -69s-34.666 -39.333 -57.999 -54c-23.333 -14 -48 -23 -74 -27s-51.333 -3 -76 3s-47.667 16.5 -69 31.5s-39.333 34.167 -54 57.5
c-12 19.333 -20 39.666 -24 60.999l-167 748c-4 19.333 -1 37 9 53s24.667 26 44 30c15.333 3.33301 29.833 2 43.5 -4s24.167 -15 31.5 -27zM330.998 19.001c-7.33301 -24 -18.5 -45.166 -33.5 -63.499s-32.667 -33 -53 -44s-42.333 -18 -66 -21s-47.5 -0.833008 -71.5 6.5
c-24 6.66699 -45.167 17.667 -63.5 33s-33 33.166 -44 53.499s-18 42.166 -21 65.499s-0.833008 47 6.5 71c2 7.33301 4.66699 14.5 8 21.5s6.66602 13.5 9.99902 19.5l388 659c12 20.667 29.333 33.834 52 39.501s44.334 2.5 65.001 -9.5
c17.333 -10 29.5 -24.167 36.5 -42.5s7.83301 -36.833 2.5 -55.5zM685.998 296.002c18 1.33301 35.5 -0.833008 52.5 -6.5s32 -14 45 -25s23.667 -24.333 32 -40s13.166 -32.5 14.499 -50.5s-0.833984 -35.5 -6.50098 -52.5s-14 -32 -25 -45s-24.333 -23.667 -40 -32
s-32.5 -13.166 -50.5 -14.499c-7.33301 -1.33301 -14.666 -1.33301 -21.999 0l-502 42c-25.333 2 -46.166 12.5 -62.499 31.5s-23.5 41.167 -21.5 66.5c2 23.333 11 42.666 27 57.999s35 24 57 26z" />
    <glyph glyph-name="B" unicode="B" 
d="M308 781l51.999 -701.998c2 -24.667 -1 -48.334 -9 -71.001s-19.5 -42.667 -34.5 -60s-33.167 -31.5 -54.5 -42.5s-44.333 -17.5 -69 -19.5c-25.333 -2 -49.166 0.833008 -71.499 8.5s-42.333 19.167 -60 34.5s-32 33.5 -43 54.5s-17.5 44.167 -19.5 69.5
c-1.33301 16 -0.333008 32 3 48l136 690c2 12 6.33301 22.667 13 32s14.5 17 23.5 23s19 10.167 30 12.5s22.5 2.5 34.5 0.5c19.333 -4 35.333 -13.333 48 -28s19.667 -31.334 21 -50.001zM304.999 305.002l0.0078125 -0.995117h1c0 -0.666992 0.666992 -1 2 -1
c1.33301 -1.33301 3 -2 5 -2c2 -1.33301 5.66699 -2.66602 11 -3.99902c8.66699 -3.33301 16.334 -6 23.001 -8c41.333 -3.33301 73.5 -3 96.5 1s38.333 9.83301 46 17.5s8.66699 16 3 25s-16.334 16.667 -32.001 23s-35.667 10.5 -60 12.5s-50.833 -0.666992 -79.5 -8
l-30 3c-2.66699 0.666992 -5.16699 1 -7.5 1h-6.5l-8 1h-3c-1.33301 0 -2.33301 0.333008 -3 1l-11 194h1h1h3h6c2 0 4 0.166992 6 0.5s4 0.5 6 0.5h12c4 0 8.33301 0.333008 13 1c20 -4 40.333 -3.5 61 1.5s39.167 11.833 55.5 20.5s29.333 17.834 39 27.501
s13.667 17 12 22s-10.5 6.5 -26.5 4.5s-41.667 -10.333 -77 -25l-21.5 -12c-7 -4 -14.167 -8.33301 -21.5 -13l-10.5 -6.5l-10.5 -6.5c-1.33301 -1.33301 -3 -2.5 -5 -3.5s-3.66699 -2.16699 -5 -3.5l-5 -4l-5 -3l-2 -2c-12.667 -8.66699 -26.5 -11.667 -41.5 -9
s-26.833 10.334 -35.5 23.001c-8.66699 11.333 -12 24.166 -10 38.499s8 26.166 18 35.499l6 5l6 5c2 1.33301 3.83301 2.83301 5.5 4.5s3.5 3.16699 5.5 4.5c4 3.33301 7.83301 6.33301 11.5 9s7.5 5.66699 11.5 9c15.333 12.667 31 24 47 34
c8 5.33301 16.167 10.5 24.5 15.5s16.833 9.83301 25.5 14.5c9.33301 5.33301 18.5 10.166 27.5 14.499s18.833 8.5 29.5 12.5c5.33301 2 10.5 3.83301 15.5 5.5s10.167 3.16699 15.5 4.5s11 2.66602 17 3.99902s12 2.33301 18 3
c6.66699 1.33301 13.167 2.16602 19.5 2.49902s13.166 0.166016 20.499 -0.500977c13.333 0 28 -2.66699 44 -8c7.33301 -2 14.666 -4.83301 21.999 -8.5s14.666 -7.83398 21.999 -12.501c14 -10.667 25.667 -21.667 35 -33c8.66699 -12 16.334 -24.333 23.001 -37
c1.33301 -3.33301 2.66602 -6.33301 3.99902 -9s2.66602 -5.66699 3.99902 -9c0 -1.33301 0.166992 -2.16602 0.5 -2.49902s0.5 -1.16602 0.5 -2.49902l1 -2v-1h1v-2c0.666992 -1.33301 1.16699 -3 1.5 -5s0.833008 -3.66699 1.5 -5c2 -7.33301 3.66699 -15.166 5 -23.499
s1.66602 -16.833 0.999023 -25.5c0 -9.33301 -1 -18.333 -3 -27c-0.666992 -4.66699 -1.66699 -9.16699 -3 -13.5l-4 -12.5c-6.66699 -16.667 -15 -31.334 -25 -44.001l-15.5 -17c-5 -5.33301 -10.167 -10 -15.5 -14c-11.333 -10 -21.666 -17.667 -30.999 -23
c-10.667 -7.33301 -21 -13.333 -31 -18c-10 -5.33301 -20 -10 -30 -14s-20 -7.66699 -30 -11c-9.33301 -3.33301 -19 -6.5 -29 -9.5l-29 -8.5c-10 -2.66699 -19.833 -5.16699 -29.5 -7.5s-19.167 -4.5 -28.5 -6.5c-9.33301 -1.33301 -18.833 -3 -28.5 -5
s-19.5 -3.66699 -29.5 -5c-4.66699 -0.666992 -9.33398 -1.16699 -14.001 -1.5s-9.66699 -0.833008 -15 -1.5c-2.66699 -0.666992 -5 -1.16699 -7 -1.5s-4.33301 -0.5 -7 -0.5l-8 -1h-4h-2l-2 -1l-12 195c2 0.666992 4 1 6 1l5 1l9 1c3.33301 0.666992 6.5 1.16699 9.5 1.5
s6.16699 0.5 9.5 0.5c8 -22.667 17.333 -39.667 28 -51s22 -18.333 34 -21s24 -2.16699 36 1.5s23.667 9.5 35 17.5s21.666 17.167 30.999 27.5s17 20.5 23 30.5l40 -4c13.333 -1.33301 27 -3.66602 41 -6.99902s28 -7 42 -11s28.667 -9 44 -15l22.5 -10.5
c7.66699 -3.66699 15.5 -7.83398 23.5 -12.501l23 -15c8 -5.33301 15.667 -11.333 23 -18c14.667 -13.333 28.667 -28.333 42 -45c13.333 -18 24.666 -37 33.999 -57c8.66699 -19.333 15.667 -40 21 -62c1.33301 -5.33301 2.16602 -10.5 2.49902 -15.5
s1.16602 -10.167 2.49902 -15.5c0 -2.66699 0.166992 -5.33398 0.5 -8.00098s0.5 -5.33398 0.5 -8.00098v-7l1 -4v-3v-3v-1v-1v-1v-2v-6v-14c0 -4.66699 -0.166992 -9.33398 -0.5 -14.001s-0.833008 -9.66699 -1.5 -15c-2 -20.667 -6.33301 -41 -13 -61
c-6 -21.333 -15 -42 -27 -62c-11.333 -20.667 -24.666 -39.667 -39.999 -57c-7.33301 -8.66699 -15.166 -16.667 -23.499 -24s-16.833 -14.333 -25.5 -21s-17.334 -12.667 -26.001 -18l-26 -16l-26.5 -13c-8.33301 -4 -16.833 -7.66699 -25.5 -11s-17 -6.33301 -25 -9
s-16 -5 -24 -7c-31.333 -8.66699 -62.333 -15 -93 -19c-15.333 -2 -30.166 -3.66699 -44.499 -5s-28.5 -2.33301 -42.5 -3c-29.333 -1.33301 -57.333 -1.33301 -84 0l-42 3c-3.33301 0 -6.83301 0.166992 -10.5 0.5s-7.16699 0.833008 -10.5 1.5c-2 0 -4 0.166992 -6 0.5
s-4 0.5 -6 0.5l-6 1l-3 1h-1h-2h-1c-30 3.33301 -57.833 12.333 -83.5 27s-47.334 33.167 -65.001 55.5s-30.667 47.5 -39 75.5s-10.833 57.333 -7.5 88c3.33301 30 12.333 57.667 27 83s33.167 46.833 55.5 64.5s47.5 30.667 75.5 39s57.333 10.833 88 7.5
c18 -2 35 -6 51 -12h2z" />
    <glyph glyph-name="C" unicode="C" horiz-adv-x="918" 
d="M648 604l-1.00098 0.998047h-1v1h-1l-2 1c-1.33301 0.666992 -2.33301 1 -3 1s-1.33398 0.333008 -2.00098 1c-3.33301 1.33301 -7 2.66602 -11 3.99902l-10.5 4l-10.5 4c-7.33301 2 -14.5 3.5 -21.5 4.5s-14.167 2.16699 -21.5 3.5
c-7.33301 0.666992 -14.333 1.16699 -21 1.5s-13.667 0.166016 -21 -0.500977l-21 -3c-3.33301 -0.666992 -6.66602 -1.16699 -9.99902 -1.5s-6.66602 -1.16602 -9.99902 -2.49902c-25.333 -6.66699 -48.666 -18 -69.999 -34c-20 -15.333 -36.667 -33 -50 -53
c-6.66699 -10 -12.167 -20.333 -16.5 -31s-8.16602 -21.334 -11.499 -32.001c-6 -21.333 -9 -42.333 -9 -63c0 -5.33301 0.166992 -10.5 0.5 -15.5s0.833008 -10.167 1.5 -15.5c0.666992 -10 2.66699 -20 6 -30c2.66699 -9.33301 6 -18.333 10 -27s8.66699 -16.667 14 -24
c10.667 -16 22.334 -29.333 35.001 -40c12.667 -12 26.667 -22 42 -30c6 -3.33301 13.333 -6.66602 22 -9.99902c4 -2 8 -3.5 12 -4.5s8 -2.16699 12 -3.5c5.33301 -1.33301 9.66602 -2.33301 12.999 -3c5.33301 -1.33301 9.66602 -2 12.999 -2
c4.66699 -0.666992 9.16699 -1 13.5 -1h13.5c8.66699 0 18 1 28 3c2.66699 0.666992 7.33398 1.66699 14.001 3c1.33301 0.666992 2.5 1 3.5 1s2.16699 0.333008 3.5 1s2.5 1 3.5 1s2.16699 0.333008 3.5 1c19.333 6.66699 38.666 16.667 57.999 30l14 10.5
c4.66699 3.66699 9.33398 7.83398 14.001 12.501c8.66699 8 17 17.333 25 28c9.33301 11.333 17 22.333 23 33l5.5 9.5l5.5 9.5c1.33301 1.33301 2.16602 2.83301 2.49902 4.5s1.16602 3.5 2.49902 5.5l5 10l6 13c10.667 22 27.334 37 50.001 45s45 6.66699 67 -4
c12.667 -6 22.834 -14.167 30.501 -24.5s13.167 -21.833 16.5 -34.5c5.33301 -23.333 8.16602 -47.166 8.49902 -71.499s-1.5 -48.833 -5.5 -73.5c-5.33301 -26 -12.333 -50.667 -21 -74c-9.33301 -25.333 -20.666 -48.333 -33.999 -69c-13.333 -22.667 -29 -44 -47 -64
s-37.667 -38.333 -59 -55c-6.66699 -5.33301 -12.334 -9.66602 -17.001 -12.999c-2.66699 -2 -5.33398 -3.83301 -8.00098 -5.5l-9 -5.5c-5.33301 -4 -11 -7.66699 -17 -11s-12.333 -6.66602 -19 -9.99902c-12 -6.66699 -24.667 -12.5 -38 -17.5s-26.666 -9.5 -39.999 -13.5
s-26.833 -7.5 -40.5 -10.5s-27.834 -5.16699 -42.501 -6.5c-14 -2 -28 -3 -42 -3h-21.5c-7 0 -14.167 0.333008 -21.5 1c-27.333 2 -55.666 6.66699 -84.999 14c-28 8 -55 18 -81 30s-50.667 26.667 -74 44c-11.333 8.66699 -22.333 17.667 -33 27s-21 19 -31 29
c-40 42 -71 88.667 -93 140c-11.333 26 -20.333 52.333 -27 79s-11 54 -13 82c-2 27.333 -2 54.333 0 81c1.33301 13.333 3 26.666 5 39.999s4.66699 26.666 8 39.999c6.66699 26.667 15.5 52.167 26.5 76.5s24.167 47.5 39.5 69.5c29.333 43.333 65.333 80.333 108 111
c10.667 7.33301 21.5 14.333 32.5 21s22.167 13 33.5 19c21.333 10.667 44.666 19.667 69.999 27l36 9l36 6c6.66699 0.666992 13 1.16699 19 1.5s12 0.833008 18 1.5h36c6 -0.666992 12 -1.16699 18 -1.5s11.667 -1.16602 17 -2.49902
c12.667 -1.33301 24.334 -3.33301 35.001 -6c22.667 -4.66699 45 -11.334 67 -20.001c11.333 -4.66699 22 -9.66699 32 -15s19.667 -11 29 -17c10.667 -6 20 -12.333 28 -19c2 -1.33301 4.16699 -3 6.5 -5s4.5 -3.66699 6.5 -5l6 -6l4 -3l1 -1l1 -1
c13.333 -12 20.166 -26.667 20.499 -44s-5.16699 -32.333 -16.5 -45c-10 -10.667 -22 -17.167 -36 -19.5s-27.333 -0.166016 -40 6.50098z" />
    <glyph glyph-name="D" unicode="D" 
d="M306 781l51.999 -701.998c2 -24.667 -1 -48.334 -9 -71.001s-19.5 -42.667 -34.5 -60s-33.167 -31.5 -54.5 -42.5s-44.333 -17.5 -69 -19.5c-25.333 -2 -49.166 0.833008 -71.499 8.5s-42.333 19.167 -60 34.5s-32 33.5 -43 54.5s-17.5 44.167 -19.5 69.5
c-1.33301 16 -0.333008 32 3 48l136 690c2 12 6.33301 22.667 13 32s14.5 17 23.5 23s19 10.167 30 12.5s22.5 2.5 34.5 0.5c19.333 -4 35.333 -13.333 48 -28s19.667 -31.334 21 -50.001zM170.999 662.002l1.00391 0.995117c0.666992 0 1 0.333008 1 1h1l3 3l5 4
c4 4 7.33301 7 10 9c3.33301 2.66699 6.66602 5.16699 9.99902 7.5s6.66602 5.16602 9.99902 8.49902l21.5 15l21.5 14c16 10.667 31.333 19.667 46 27c8 4.66699 16.167 8.83398 24.5 12.501l25.5 11.5c18.667 7.33301 37 13.333 55 18
c10 2.66699 20.167 4.83398 30.5 6.50098s20.833 3.16699 31.5 4.5c5.33301 0.666992 11 1.16699 17 1.5s11.667 0.5 17 0.5c6 -0.666992 12 -1 18 -1s12 -0.666992 18 -2c12 -1.33301 24.333 -3.83301 37 -7.5s25 -8.16699 37 -13.5s23.667 -11.5 35 -18.5
s22 -14.5 32 -22.5c20.667 -17.333 38 -35.666 52 -54.999c7.33301 -10 13.833 -20 19.5 -30l16.5 -30c5.33301 -9.33301 10 -19 14 -29s7.66699 -19.667 11 -29c3.33301 -10 6.33301 -19.833 9 -29.5l8 -28.5l6 -27.5c2 -9 3.66699 -18.167 5 -27.5l4 -27.5l4 -26.5l3 -27
v-3v-4l1 -7v-14c1.33301 -18 1.83301 -36.667 1.5 -56s-1.5 -39 -3.5 -59s-5.16699 -40.5 -9.5 -61.5s-10.166 -42.167 -17.499 -63.5c-4 -11.333 -8.33301 -22.333 -13 -33s-10 -21.334 -16 -32.001c-6 -11.333 -12.5 -22.333 -19.5 -33s-14.5 -21 -22.5 -31
c-16 -20 -34.667 -39 -56 -57c-5.33301 -4.66699 -10.666 -9 -15.999 -13l-16 -12c-10.667 -6.66699 -22 -13.334 -34 -20.001c-11.333 -6.66699 -23 -12.5 -35 -17.5s-24 -9.5 -36 -13.5c-22.667 -8 -46 -14 -70 -18c-11.333 -2.66699 -22.5 -4.5 -33.5 -5.5
s-22.167 -2.16699 -33.5 -3.5c-11.333 -0.666992 -22.333 -1 -33 -1s-21.334 0.666992 -32.001 2c-42.667 3.33301 -82.334 10.666 -119.001 21.999l-27.5 10c-9 3.33301 -17.833 7.33301 -26.5 12l-13.5 6c-4.33301 2 -8.83301 4.33301 -13.5 7
c-2 1.33301 -4.16699 2.66602 -6.5 3.99902s-4.5 2.66602 -6.5 3.99902l-4 2l-3 2l-4 3l-1 1h-1l-3 2c-20.667 8.66699 -38.5 20.667 -53.5 36s-26.333 32.5 -34 51.5s-11.667 39.167 -12 60.5s3.83398 42.333 12.501 63s20.667 38.334 36 53.001s32.5 26 51.5 34
s39.167 12.167 60.5 12.5s42.333 -3.83398 63 -12.501v1h2h2h2h8h9c2.66699 0 5.66699 -0.333008 9 -1c6 0 12 -0.166992 18 -0.5s11.667 -0.833008 17 -1.5c11.333 -1.33301 22.5 -2.33301 33.5 -3s21.5 -1.66699 31.5 -3c5.33301 -0.666992 10.333 -1 15 -1
s9 -0.333008 13 -1c4.66699 -0.666992 9.16699 -1 13.5 -1h12.5c3.33301 0 6.66602 0.166992 9.99902 0.5s6.66602 0.833008 9.99902 1.5s6.33301 1.16699 9 1.5s5 0.833008 7 1.5c3.33301 0.666992 7.66602 2.33398 12.999 5.00098c2 0.666992 3.83301 1.5 5.5 2.5
s3.5 2.16699 5.5 3.5c4 2.66699 8 6.66699 12 12c4 4.66699 8 10.667 12 18s7.83301 15.5 11.5 24.5s6.83398 18.833 9.50098 29.5c6 20.667 10 44 12 70l1 10l1 4v3v1v1c0.666992 3.33301 1 6.66602 1 9.99902v10c0.666992 6.66699 1.16699 13.167 1.5 19.5
s0.5 12.833 0.5 19.5v18c0 6 -0.333008 12 -1 18c0 11.333 -1 22.666 -3 33.999c-0.666992 5.33301 -1.33398 10.333 -2.00098 15s-1.66699 9.33398 -3 14.001l-3.5 12.5c-1 3.66699 -2.16699 7.16699 -3.5 10.5s-2.66602 6.33301 -3.99902 9l-4 8
c-2 4 -4.66699 7.66699 -8 11c-2.66699 3.33301 -7.33398 6.66602 -14.001 9.99902c-1.33301 0.666992 -2.83301 1.33398 -4.5 2.00098s-3.5 1.33398 -5.5 2.00098c-5.33301 1.33301 -9.66602 2.33301 -12.999 3c-4.66699 0.666992 -9.5 1.16699 -14.5 1.5
s-10.167 0.5 -15.5 0.5c-11.333 0 -23 -1 -35 -3c-6.66699 -1.33301 -13 -2.66602 -19 -3.99902s-12.333 -2.66602 -19 -3.99902s-13.167 -3 -19.5 -5l-19.5 -6c-6.66699 -2 -13.167 -4.16699 -19.5 -6.5l-19.5 -7.5c-3.33301 -1.33301 -6.5 -2.66602 -9.5 -3.99902
s-6.16699 -2.66602 -9.5 -3.99902l-10 -4l-4 -2l-2 -1l-1 -1h-1l-1 -1c-18 -9.33301 -36.333 -10.666 -55 -3.99902s-32.667 18.667 -42 36c-7.33301 14.667 -9.33301 29.834 -6 45.501s10.666 28.834 21.999 39.501z" />
    <glyph glyph-name="E" unicode="E" horiz-adv-x="902" 
d="M235 860l517.002 -61.9951c14.667 -2 28 -6.5 40 -13.5s22.167 -15.667 30.5 -26s14.5 -22.333 18.5 -36s5.33301 -27.834 4 -42.501c-2 -14.667 -6.5 -28 -13.5 -40s-15.833 -22.333 -26.5 -31s-22.834 -15 -36.501 -19s-27.834 -5 -42.501 -3
c-5.33301 1.33301 -9.33301 2 -12 2l-404 97l12 -161l193 39c14.667 2.66699 28.834 2.5 42.501 -0.5s26.167 -8.16699 37.5 -15.5s21 -16.833 29 -28.5s13.667 -24.834 17 -39.501c2.66699 -14.667 2.66699 -28.834 0 -42.501s-7.83398 -26.167 -15.501 -37.5
s-17.334 -21.166 -29.001 -29.499s-24.834 -13.833 -39.501 -16.5c-1.33301 0 -2.66602 -0.166992 -3.99902 -0.5s-2.66602 -0.5 -3.99902 -0.5l-213 -25l3 -42l402 68c19.333 3.33301 38.166 2.66602 56.499 -2.00098s35 -12.167 50 -22.5s27.5 -23.5 37.5 -39.5
s16.667 -33.667 20 -53c2.66699 -17.333 2.33398 -34.5 -0.999023 -51.5s-9.33301 -32.5 -18 -46.5s-19.667 -26.333 -33 -37s-28.333 -18.667 -45 -24l-552 -177c-3.33301 -1.33301 -6.83301 -2.33301 -10.5 -3l-11.5 -2
c-7.33301 -2.66699 -14.833 -4.83398 -22.5 -6.50098s-15.5 -2.83398 -23.5 -3.50098c-25.333 -2 -49.166 0.833008 -71.499 8.5s-42.333 19.167 -60 34.5s-32 33.5 -43 54.5s-17.5 44.167 -19.5 69.5c-1.33301 16 -0.333008 32 3 48l136 690c4 21.333 14.667 38.5 32 51.5
s36.666 18.833 57.999 17.5h12z" />
    <glyph glyph-name="F" unicode="F" horiz-adv-x="646" 
d="M227 793l178.998 -685c7.33301 -27.333 9 -54.5 5 -81.5s-12.833 -52 -26.5 -75s-31.167 -42.833 -52.5 -59.5s-46 -28.667 -74 -36c-27.333 -7.33301 -54.5 -9 -81.5 -5s-52 12.833 -75 26.5s-42.833 31.167 -59.5 52.5s-28.667 46 -36 74c-6 22.667 -8 45.667 -6 69
l57 705c0.666992 12 3.83398 23 9.50098 33s12.667 18.5 21 25.5s17.833 12.333 28.5 16s22 5.16699 34 4.5c19.333 -1.33301 35.833 -8 49.5 -20s22.834 -26.667 27.501 -44zM147.998 860l517 -62.001c14.667 -2 28 -6.5 40 -13.5s22.167 -15.667 30.5 -26
s14.5 -22.333 18.5 -36s5.33301 -27.834 4 -42.501c-2 -14.667 -6.5 -28 -13.5 -40s-15.833 -22.333 -26.5 -31s-22.834 -15 -36.501 -19s-27.834 -5 -42.501 -3c-5.33301 1.33301 -9.33301 2 -12 2l-505 122c-20.667 4.66699 -36.5 15.834 -47.5 33.501
s-13.833 36.834 -8.5 57.501c4.66699 19.333 14.834 34.333 30.501 45s32.834 15 51.501 13zM125.998 502.999l301.997 61c14.667 2.66699 28.834 2.5 42.501 -0.5s26.167 -8.16699 37.5 -15.5s21 -16.833 29 -28.5s13.667 -24.834 17 -39.501
c2.66699 -14.667 2.66699 -28.834 0 -42.501s-7.83398 -26.167 -15.501 -37.5s-17.334 -21.166 -29.001 -29.499s-24.834 -13.833 -39.501 -16.5c-1.33301 0 -2.66602 -0.166992 -3.99902 -0.5s-2.66602 -0.5 -3.99902 -0.5l-306 -36c-13.333 -2 -26 -1.16699 -38 2.5
s-22.667 9.16699 -32 16.5s-17.166 16.333 -23.499 27s-10.166 22.667 -11.499 36c-3.33301 25.333 2.33398 47.833 17.001 67.5s34 31.834 58 36.501z" />
    <glyph glyph-name="G" unicode="G" horiz-adv-x="954" 
d="M648 604l-0.998047 1.00195h-1l-1 1l-2 1c-1.33301 0.666992 -2.33301 1 -3 1s-1.33398 0.333008 -2.00098 1c-2 1.33301 -3.83301 2.16602 -5.5 2.49902s-3.5 1.16602 -5.5 2.49902c-3.33301 1.33301 -6.83301 2.5 -10.5 3.5s-7.16699 2.16699 -10.5 3.5
c-15.333 4.66699 -29.666 7.33398 -42.999 8.00098c-14 2 -28 2.5 -42 1.5s-27.667 -3.16699 -41 -6.5c-26.667 -7.33301 -50.334 -18.333 -71.001 -33c-21.333 -16 -38.333 -33.667 -51 -53c-7.33301 -10 -13.166 -20.333 -17.499 -31s-8.16602 -21.334 -11.499 -32.001
c-1.33301 -4.66699 -2.66602 -10.334 -3.99902 -17.001c-0.666992 -2.66699 -1.16699 -5.16699 -1.5 -7.5s-0.833008 -5.16602 -1.5 -8.49902c-0.666992 -5.33301 -1.16699 -10.666 -1.5 -15.999s-0.5 -10.666 -0.5 -15.999c0 -10.667 1 -21 3 -31
c0 -3.33301 0.666992 -8.33301 2 -15c0.666992 -2.66699 1.33398 -5.16699 2.00098 -7.5s1.33398 -4.83301 2.00098 -7.5c6 -18 14.667 -35 26 -51c1.33301 -2 2.83301 -3.83301 4.5 -5.5s3.16699 -3.5 4.5 -5.5c4 -4 7 -7.33301 9 -10
c6 -6.66699 12.667 -12.334 20 -17.001c6.66699 -5.33301 13.5 -9.83301 20.5 -13.5s14.167 -7.16699 21.5 -10.5c3.33301 -2 7 -3.5 11 -4.5s7.66699 -2.16699 11 -3.5c6.66699 -2.66699 14 -4.66699 22 -6c1.33301 0 2.33301 -0.166992 3 -0.5s1.66699 -0.5 3 -0.5
c2.66699 0 4.66699 -0.333008 6 -1c5.33301 0 9.33301 -0.333008 12 -1h12c4 0 8 0.333008 12 1c16 0.666992 32.333 4.33398 49 11.001c8.66699 3.33301 17.167 7.33301 25.5 12s16.5 10 24.5 16l12 10l12 10l10.5 12c3.66699 4 7.16699 8.33301 10.5 13
c14 18.667 26 40 36 64l4 -32v11v11v11c0 1.33301 0.166992 2.33301 0.5 3s0.5 1.66699 0.5 3v6c0.666992 15.333 4.5 29.666 11.5 42.999s16 24.666 27 33.999s23.667 16.5 38 21.5s29.166 6.83301 44.499 5.5c19.333 -1.33301 36.666 -6.83301 51.999 -16.5
s27.666 -22.167 36.999 -37.5c0.666992 -0.666992 1.66699 -2.33398 3 -5.00098c1.33301 -1.33301 2 -2.66602 2 -3.99902c1.33301 -2.66699 3.33301 -6 6 -10l5 -10c2.66699 -4 4.33398 -7.33301 5.00098 -10l-2 5l6 -36c3.33301 -25.333 4.66602 -50.833 3.99902 -76.5
s-4 -51.5 -10 -77.5c-5.33301 -27.333 -13.333 -52.666 -24 -75.999c-9.33301 -24 -22 -48 -38 -72c-15.333 -23.333 -32.5 -45.166 -51.5 -65.499s-39.833 -38.833 -62.5 -55.5c-23.333 -17.333 -48 -32 -74 -44c-24.667 -12 -51.667 -22.333 -81 -31
c-14 -4 -28.167 -7.33301 -42.5 -10s-28.833 -4.66699 -43.5 -6c-3.33301 0 -6.83301 -0.166992 -10.5 -0.5s-7.5 -0.5 -11.5 -0.5h-5h-1h-1h-1h-3h-10h-22c-4 0.666992 -7.83301 1 -11.5 1s-7.16699 0.333008 -10.5 1c-30.667 3.33301 -59.667 8.66602 -87 15.999
c-14 4.66699 -27.667 9.5 -41 14.5s-26.666 11.167 -39.999 18.5c-26.667 12.667 -51.334 28 -74.001 46l-33 28c-10.667 9.33301 -21 19.666 -31 30.999c-38.667 42.667 -68.667 90 -90 142c-22 52.667 -34.667 106.334 -38 161.001c-2 28 -2 55 0 81
c1.33301 13.333 3.16602 26.666 5.49902 39.999s5.16602 26.666 8.49902 39.999c6.66699 26 15.667 51 27 75c5.33301 12.667 11.333 24.334 18 35.001c5.33301 10.667 12.333 22 21 34c3.33301 5.33301 7 10.5 11 15.5l12 15.5c8 10 16.667 19.667 26 29
c2.66699 2.66699 5 5.16699 7 7.5s4.33301 4.5 7 6.5s5 4.16699 7 6.5s4.33301 4.5 7 6.5l30 24l32 21c10.667 6.66699 21.667 12.667 33 18c5.33301 3.33301 11 6.16602 17 8.49902s11.667 4.83301 17 7.5l36 12c11.333 3.33301 23 6.33301 35 9s24.333 5 37 7
c24 2.66699 48 3.66699 72 3c23.333 -0.666992 46.666 -3.66699 69.999 -9c22 -4.66699 44.333 -11.667 67 -21c10.667 -4.66699 21.167 -9.5 31.5 -14.5s20.166 -10.5 29.499 -16.5c4.66699 -3.33301 9.33398 -6.5 14.001 -9.5s9.33398 -6.16699 14.001 -9.5
c2 -2 4.16699 -3.83301 6.5 -5.5l6.5 -4.5l6 -6l4 -3l1 -1l1 -1c13.333 -12 20.166 -26.5 20.499 -43.5s-5.16699 -32.167 -16.5 -45.5c-10 -10.667 -22 -17.167 -36 -19.5s-27.333 -0.166016 -40 6.50098zM790.002 273.002l-331.001 56.9951
c-19.333 3.33301 -34.5 12.833 -45.5 28.5s-14.833 33.167 -11.5 52.5c2.66699 14.667 9.33398 27.167 20.001 37.5s23 16.5 37 18.5l331 58c17.333 2.66699 34.166 2 50.499 -2s31.166 -10.667 44.499 -20s24.5 -21.166 33.5 -35.499s15.167 -30.166 18.5 -47.499
c2.66699 -17.333 2.16699 -34.166 -1.5 -50.499s-10.167 -31.166 -19.5 -44.499s-21.166 -24.666 -35.499 -33.999s-30.166 -15.333 -47.499 -18c-7.33301 -1.33301 -14.5 -2 -21.5 -2s-14.167 0.666992 -21.5 2z" />
    <glyph glyph-name="H" unicode="H" horiz-adv-x="830" 
d="M612 803l226.999 -669.999c9.33301 -27.333 12.833 -54.5 10.5 -81.5s-9.33301 -52.333 -21 -76s-27.667 -44.667 -48 -63s-43.833 -32.166 -70.5 -41.499c-27.333 -9.33301 -54.666 -12.833 -81.999 -10.5s-52.833 9.33301 -76.5 21s-44.667 27.667 -63 48
s-32.166 44.166 -41.499 71.499c-7.33301 23.333 -11 46 -11 68l8 707c0 24 8.5 44.333 25.5 61s37.5 25 61.5 25c19.333 -0.666992 36.166 -6.33398 50.499 -17.001s24.5 -24.667 30.5 -42zM309.999 781.001l51.999 -701.998c2 -24.667 -1 -48.334 -9 -71.001
s-19.5 -42.667 -34.5 -60s-33.167 -31.5 -54.5 -42.5s-44.333 -17.5 -69 -19.5c-25.333 -2 -49.166 0.833008 -71.499 8.5s-42.333 19.167 -60 34.5s-32 33.5 -43 54.5s-17.5 44.167 -19.5 69.5c-1.33301 16 -0.333008 32 3 48l136 690c2 12 6.33301 22.667 13 32
s14.5 17 23.5 23s19 10.167 30 12.5s22.5 2.5 34.5 0.5c19.333 -4 35.333 -13.333 48 -28s19.667 -31.334 21 -50.001zM573.998 261.003l-331.001 57c-19.333 3.33301 -34.5 12.833 -45.5 28.5s-14.833 33.167 -11.5 52.5c2.66699 15.333 9.33398 28 20.001 38
s23 16.333 37 19l331 57c17.333 2.66699 34.166 2.16699 50.499 -1.5s31.166 -10.334 44.499 -20.001s24.5 -21.5 33.5 -35.5s15.167 -29.667 18.5 -47c2.66699 -17.333 2.16699 -34.333 -1.5 -51s-10.167 -31.667 -19.5 -45s-21.166 -24.666 -35.499 -33.999
s-30.166 -15.333 -47.499 -18c-14.667 -2 -29 -2 -43 0z" />
    <glyph glyph-name="I" unicode="I" horiz-adv-x="397" 
d="M330 781l51.999 -761.998c2 -24.667 -1 -48.334 -9 -71.001s-19.5 -42.667 -34.5 -60s-33.167 -31.5 -54.5 -42.5s-44.333 -17.5 -69 -19.5c-25.333 -2 -49.166 0.833008 -71.499 8.5s-42.333 19.167 -60 34.5s-32 33.5 -43 54.5s-17.5 44.167 -19.5 69.5
c-1.33301 16 -0.333008 32 3 48l136 750c2 12 6.33301 22.667 13 32s14.5 17 23.5 23s19 10.167 30 12.5s22.5 2.5 34.5 0.5c19.333 -4 35.333 -13.333 48 -28s19.667 -31.334 21 -50.001z" />
    <glyph glyph-name="J" unicode="J" horiz-adv-x="408" 
d="M168 767c2 -4 3.83594 -7.99414 5.50293 -11.9941s3.16699 -8 4.5 -12s3 -7.83301 5 -11.5s3.66699 -7.5 5 -11.5c3.33301 -8 6.33301 -15.833 9 -23.5s5.66699 -15.5 9 -23.5l18 -46.5c6 -15.667 11.667 -31.5 17 -47.5l32.5 -95.5
c10.333 -31.667 20.166 -63.834 29.499 -96.501s18.166 -65.334 26.499 -98.001s16.166 -66 23.499 -100c3.33301 -17.333 6.5 -34.666 9.5 -51.999s6.16699 -34.666 9.5 -51.999c5.33301 -36 9.33301 -71.667 12 -107c2.66699 -36.667 3.66699 -74.334 3 -113.001
c-0.666992 -10 -1.16699 -20 -1.5 -30s-1.16602 -20 -2.49902 -30l-4 -31.5c-1.33301 -10.333 -3.33301 -20.833 -6 -31.5c-4 -21.333 -10 -43.666 -18 -66.999c-4 -11.333 -8.33301 -22.833 -13 -34.5s-10.334 -23.5 -17.001 -35.5c-6.66699 -11.333 -14 -23 -22 -35
s-16.667 -23.667 -26 -35c-20.667 -24 -43.667 -44.667 -69 -62c-13.333 -9.33301 -26.833 -17.666 -40.5 -24.999s-27.834 -13.666 -42.501 -18.999s-29.167 -9.83301 -43.5 -13.5s-28.166 -6.83398 -41.499 -9.50098c-28 -4 -54.667 -6 -80 -6
c-12.667 0 -25 0.333008 -37 1s-23.667 1.66699 -35 3s-22.5 2.83301 -33.5 4.5s-21.833 3.83398 -32.5 6.50098c-11.333 2 -22 4.16699 -32 6.5s-20 5.16602 -30 8.49902c-40.667 11.333 -78.334 23.666 -113.001 36.999l-6 2c-28 10.667 -52.167 26 -72.5 46
s-36.166 42.5 -47.499 67.5s-17.5 51.667 -18.5 80s3.83301 56.5 14.5 84.5s25.834 52.167 45.501 72.5s42.167 36.166 67.5 47.499s52.166 17.666 80.499 18.999s56.5 -3.33398 84.5 -14.001c11.333 -5.33301 22.666 -11 33.999 -17
c21.333 -13.333 43.666 -25.666 66.999 -36.999c11.333 -5.33301 21.833 -10 31.5 -14s19.167 -7.66699 28.5 -11c4.66699 -1.33301 9 -2.5 13 -3.5s7.66699 -2.16699 11 -3.5c4 -0.666992 7.5 -1.33398 10.5 -2.00098s5.5 -1 7.5 -1c4.66699 -0.666992 8 -1.66699 10 -3
c2 0 3.66699 -0.666992 5 -2c2 -1.33301 4 -1.33301 6 0c4 1.33301 7.66699 3.66602 11 6.99902c2 2 4 4.5 6 7.5s4.33301 6.16699 7 9.5c2 3.33301 4.16699 7.16602 6.5 11.499s4.5 9.16602 6.5 14.499c8.66699 21.333 15.334 44.333 20.001 69c6 24.667 10 51.667 12 81
c1.33301 14 2.5 28.167 3.5 42.5s1.5 29.166 1.5 44.499c0.666992 15.333 0.833984 30.5 0.500977 45.5s-0.833008 30.167 -1.5 45.5c-1.33301 30.667 -3.16602 61.334 -5.49902 92.001s-5.16602 61.667 -8.49902 93c-6.66699 61.333 -15.667 124 -27 188l-8.5 47
c-3 16 -6.16699 31.667 -9.5 47c-1.33301 7.33301 -2.83301 15 -4.5 23s-3.16699 15.667 -4.5 23c-1.33301 4 -2.33301 8 -3 12s-1.33398 7.66699 -2.00098 11c-1.33301 4 -2.33301 8 -3 12s-1.33398 7.66699 -2.00098 11l-1 1c-5.33301 22 -2 42.667 10 62
s29 31.666 51 36.999c20 4.66699 38.833 2.33398 56.5 -6.99902s30.167 -23 37.5 -41z" />
    <glyph glyph-name="K" unicode="K" horiz-adv-x="786" 
d="M296 781l51.001 -701.996c2 -24.667 -0.833008 -48.334 -8.5 -71.001s-19.167 -42.667 -34.5 -60s-33.666 -31.5 -54.999 -42.5s-44.333 -17.5 -69 -19.5s-48.334 0.833008 -71.001 8.5s-42.667 19.167 -60 34.5s-31.5 33.5 -42.5 54.5s-17.5 44.167 -19.5 69.5
c-1.33301 16.667 -0.333008 32.667 3 48l136 690c4.66699 23.333 16.667 41.666 36 54.999s40.666 17.666 63.999 12.999c19.333 -4 35.5 -13.333 48.5 -28s20.167 -31.334 21.5 -50.001zM81.001 384.004l527.998 448.001c16.667 14 35.834 20.167 57.501 18.5
s39.5 -10.834 53.5 -27.501c12.667 -15.333 18.834 -32.333 18.501 -51s-6.16602 -35.334 -17.499 -50.001l-438 -536c-12.667 -15.333 -27.334 -27.333 -44.001 -36s-34 -14 -52 -16s-36 -0.333008 -54 5s-34.667 14 -50 26c-15.333 12.667 -27.333 27.334 -36 44.001
s-14 34.167 -16 52.5s-0.333008 36.5 5 54.5s14 34.667 26 50l9.5 9.5c3 3 6.16699 5.83301 9.5 8.5zM420.999 507.005l338 -352.998c15.333 -16 26.833 -34.167 34.5 -54.5s11.167 -40.833 10.5 -61.5s-5.16699 -41 -13.5 -61s-20.5 -37.667 -36.5 -53
s-34 -26.833 -54 -34.5s-40.333 -11.167 -61 -10.5s-41 5.16699 -61 13.5s-37.667 20.5 -53 36.5c-14 15.333 -24.667 31.666 -32 48.999l-190 451c-7.33301 18.667 -7.33301 37.167 0 55.5s20 31.166 38 38.499c14 6 28.333 7.33301 43 4s27 -10 37 -20z" />
    <glyph glyph-name="L" unicode="L" horiz-adv-x="720" 
d="M309 781l51.999 -701.998c2 -24.667 -1 -48.334 -9 -71.001s-19.5 -42.667 -34.5 -60s-33.167 -31.5 -54.5 -42.5s-44.333 -17.5 -69 -19.5c-25.333 -2 -49.166 0.833008 -71.499 8.5s-42.333 19.167 -60 34.5s-32 33.5 -43 54.5s-17.5 44.167 -19.5 69.5
c-1.33301 16.667 -0.333008 32.667 3 48l136 690c2 12 6.33301 22.667 13 32s14.5 17 23.5 23s19 10.167 30 12.5s22.5 2.5 34.5 0.5c19.333 -4 35.333 -13.333 48 -28s19.667 -31.334 21 -50.001zM201.999 244.002l475.001 0.998047c20.667 0 38.167 -7.16699 52.5 -21.5
s21.5 -32.166 21.5 -53.499c0 -14.667 -3.83301 -28 -11.5 -40s-17.834 -21 -30.501 -27l-429 -203c-22.667 -10.667 -45.834 -16.5 -69.501 -17.5s-46.5 2.33301 -68.5 10s-42 19.5 -60 35.5s-32.333 35.333 -43 58s-16.5 45.834 -17.5 69.501s2.5 46.5 10.5 68.5
s19.833 42 35.5 60s34.834 32.333 57.501 43c26 11.333 51.667 17 77 17z" />
    <glyph glyph-name="M" unicode="M" horiz-adv-x="1014" 
d="M285 781l51.001 -701.996c2 -24.667 -0.833008 -48.334 -8.5 -71.001s-19.167 -42.667 -34.5 -60s-33.666 -31.5 -54.999 -42.5s-44.333 -17.5 -69 -19.5s-48.334 0.833008 -71.001 8.5s-42.667 19.167 -60 34.5s-31.5 33.5 -42.5 54.5s-17.5 44.167 -19.5 69.5
c-1.33301 16.667 -0.333008 32.667 3 48l136 690c4.66699 23.333 16.667 41.666 36 54.999s40.666 17.666 63.999 12.999c19.333 -4 35.5 -13.333 48.5 -28s20.167 -31.334 21.5 -50.001zM828.001 800.004l198.998 -683c6.66699 -24 8.66699 -47.833 6 -71.5
s-9.66699 -45.667 -21 -66s-26.166 -38.166 -44.499 -53.499s-39.5 -26.333 -63.5 -33c-24 -7.33301 -47.833 -9.5 -71.5 -6.5s-45.667 10.167 -66 21.5s-38.166 26.166 -53.499 44.499s-26.333 39.5 -33 63.5c-2.66699 8.66699 -4.5 17.334 -5.5 26.001s-1.5 17 -1.5 25
l3 711c0 21.333 7.66699 39.666 23 54.999s33.666 23 54.999 23c17.333 -0.666992 32.833 -6.16699 46.5 -16.5s22.834 -23.5 27.501 -39.5zM380.999 268.004l300.002 543.001c9.33301 16 22.666 26.667 39.999 32s34 3.33301 50 -6c13.333 -7.33301 22.833 -18 28.5 -32
s6.83398 -28 3.50098 -42l-158 -601c-5.33301 -19.333 -13.833 -36.333 -25.5 -51s-25.334 -26.667 -41.001 -36s-33 -15.5 -52 -18.5s-37.833 -1.83301 -56.5 3.5c-19.333 5.33301 -36.333 13.833 -51 25.5s-26.667 25.5 -36 41.5s-15.5 33.167 -18.5 51.5
s-1.83301 37.166 3.5 56.499c1.33301 5.33301 3.16602 10.833 5.49902 16.5s4.83301 11.167 7.5 16.5zM362.001 157.005l-221.996 582.004c-4 10 -5.83301 20.167 -5.5 30.5s2.66602 20.166 6.99902 29.499s10.166 17.5 17.499 24.5s16 12.5 26 16.5
c18 7.33301 35.833 7.83301 53.5 1.5s31.5 -17.166 41.5 -32.499l336 -524c10.667 -16.667 17.5 -34.334 20.5 -53.001s2.5 -36.834 -1.5 -54.501s-11.333 -34.334 -22 -50.001s-24.334 -28.834 -41.001 -39.501s-34.167 -17.5 -52.5 -20.5s-36.5 -2.5 -54.5 1.5
s-34.833 11.167 -50.5 21.5s-28.834 23.833 -39.501 40.5c-2.66699 4 -5 8.16699 -7 12.5z" />
    <glyph glyph-name="N" unicode="N" 
d="M294 781l51.001 -701.996c2 -24.667 -0.833008 -48.334 -8.5 -71.001s-19.167 -42.667 -34.5 -60s-33.666 -31.5 -54.999 -42.5s-44.333 -17.5 -69 -19.5s-48.334 0.833008 -71.001 8.5s-42.667 19.167 -60 34.5s-31.5 33.5 -42.5 54.5s-17.5 44.167 -19.5 69.5
c-1.33301 16.667 -0.333008 32.667 3 48l136 690c4.66699 23.333 16.667 41.666 36 54.999s40.666 17.666 63.999 12.999c19.333 -4 35.5 -13.333 48.5 -28s20.167 -31.334 21.5 -50.001zM630.001 792.004l206.999 -676c7.33301 -24 9.83301 -48 7.5 -72
s-9 -46.167 -20 -66.5s-25.667 -38.333 -44 -54s-39.5 -27.167 -63.5 -34.5s-48 -9.66602 -72 -6.99902s-46.167 9.5 -66.5 20.5s-38.333 25.5 -54 43.5s-27.167 39 -34.5 63c-3.33301 10 -5.5 20 -6.5 30s-1.5 20 -1.5 30l24 706
c0.666992 17.333 7.33398 32.166 20.001 44.499s27.667 17.833 45 16.5c14 -0.666992 26.333 -5 37 -13s18 -18.333 22 -31zM497 0.00390625l-344.999 733c-4.66699 10 -7.16699 20.167 -7.5 30.5s1.33398 20.166 5.00098 29.499s8.83398 18 15.501 26s15 14.333 25 19
c17.333 8 34.833 9.66699 52.5 5s32.167 -14 43.5 -28l501 -635c14.667 -18.667 25 -39 31 -61s7.66699 -44 5 -66s-9.5 -42.833 -20.5 -62.5s-25.833 -36.834 -44.5 -51.501s-38.834 -25 -60.501 -31s-43.5 -7.66699 -65.5 -5s-42.833 9.33398 -62.5 20.001
s-36.834 25.334 -51.501 44.001c-4 5.33301 -7.83301 10.833 -11.5 16.5s-6.83398 11.167 -9.50098 16.5z" />
    <glyph glyph-name="O" unicode="O" 
d="M416 790c58 0 112.667 -12.333 164 -37s96 -58.334 134 -101.001s68 -92.667 90 -150s33 -118.666 33 -183.999s-11 -126.5 -33 -183.5s-52 -106.833 -90 -149.5s-82.667 -76.334 -134 -101.001s-106 -37 -164 -37s-112.5 12.333 -163.5 37s-95.5 58.334 -133.5 101.001
s-68 92.5 -90 149.5s-33 118.167 -33 183.5s11 126.666 33 183.999s52 107.333 90 150s82.5 76.334 133.5 101.001s105.5 37 163.5 37zM426 360c22.667 0 43.834 4.33301 63.501 13s36.834 20.334 51.501 35.001s26.334 31.834 35.001 51.501s13 40.834 13 63.501
s-4.33301 43.834 -13 63.501s-20.334 36.834 -35.001 51.501s-31.834 26.334 -51.501 35.001s-40.834 13 -63.501 13s-43.834 -4.33301 -63.501 -13s-36.834 -20.334 -51.501 -35.001s-26.334 -31.834 -35.001 -51.501s-13 -40.834 -13 -63.501s4.33301 -43.834 13 -63.501
s20.334 -36.834 35.001 -51.501s31.834 -26.334 51.501 -35.001s40.834 -13 63.501 -13z" />
    <glyph glyph-name="P" unicode="P" horiz-adv-x="700" 
d="M295 758l51.999 -701.998c2 -24.667 -1 -48.334 -9 -71.001s-19.5 -42.667 -34.5 -60s-33.167 -31.5 -54.5 -42.5s-44.333 -17.5 -69 -19.5c-25.333 -2 -49.166 0.833008 -71.499 8.5s-42.333 19.167 -60 34.5s-32 33.5 -43 54.5s-17.5 44.167 -19.5 69.5
c-1.33301 16 -0.333008 32 3 48l136 690c2 12 6.33301 22.667 13 32s14.5 17 23.5 23s19 10.167 30 12.5s22.5 2.5 34.5 0.5c19.333 -4 35.333 -13.333 48 -28s19.667 -31.334 21 -50.001zM235.999 713.002l1.00586 0.0078125v1h1l2 2l4 3c2.66699 1.33301 5 3 7 5
c2.66699 1.33301 5.16699 3 7.5 5s4.83301 3.66699 7.5 5l31 19c5.33301 3.33301 10.833 6.16602 16.5 8.49902s11.167 5.16602 16.5 8.49902l36 15l19.5 6c6.33301 2 13.166 3.66699 20.499 5c12.667 3.33301 27.667 5.66602 45 6.99902c4 0.666992 8 1 12 1h12
c4.66699 0 9 -0.166992 13 -0.5s8.33301 -0.833008 13 -1.5c8.66699 -1.33301 17.5 -3 26.5 -5s17.833 -4.66699 26.5 -8c16.667 -5.33301 33 -14 49 -26c7.33301 -5.33301 14 -10.833 20 -16.5s11.667 -11.834 17 -18.501c5.33301 -6 10.166 -12.167 14.499 -18.5
s8.16602 -12.5 11.499 -18.5c7.33301 -14 13.333 -26.333 18 -37c4.66699 -12 8.66699 -24 12 -36c2 -6 3.5 -12 4.5 -18s2.16699 -12 3.5 -18c2.66699 -10.667 4.66699 -22 6 -34c0.666992 -3.33301 1 -6.16602 1 -8.49902s0.333008 -5.16602 1 -8.49902v-2v-2l1 -4v-9
c0.666992 -11.333 0.833984 -23 0.500977 -35s-1.16602 -24.667 -2.49902 -38c-1.33301 -12.667 -3.5 -25.667 -6.5 -39s-7.16699 -26.666 -12.5 -39.999c-6.66699 -15.333 -13.667 -29 -21 -41c-4 -7.33301 -8.66699 -14.333 -14 -21l-16 -20c-11.333 -12 -25 -24 -41 -36
c-3.33301 -2.66699 -7 -5.16699 -11 -7.5s-8 -4.83301 -12 -7.5s-8 -5 -12 -7l-12 -6c-18.667 -8.66699 -35.667 -15.334 -51 -20.001c-8.66699 -2.66699 -17.167 -4.83398 -25.5 -6.50098s-16.833 -3.16699 -25.5 -4.5c-8 -1.33301 -16.167 -2.5 -24.5 -3.5
s-16.5 -1.5 -24.5 -1.5c-15.333 -1.33301 -30.666 -1.33301 -45.999 0c-28.667 2 -57.334 6.66699 -86.001 14l-19.5 6c-6.33301 2 -12.833 4.66699 -19.5 8c-3.33301 1.33301 -6.5 2.66602 -9.5 3.99902s-6.16699 2.66602 -9.5 3.99902
c-1.33301 1.33301 -3 2.16602 -5 2.49902s-3.66699 1.16602 -5 2.49902l-2 1l-3 2l-3 1v1h-1l-2 1c-15.333 5.33301 -28.333 13 -39 23s-18.834 21 -24.501 33s-8.5 24.667 -8.5 38s3 26.666 9 39.999c6 12.667 14.667 23.667 26 33s23.833 16.5 37.5 21.5
s28.167 7.66699 43.5 8s30.333 -2.16699 45 -7.5h1h2l1 1h6c3.33301 -0.666992 7.66602 -1 12.999 -1c4.66699 0 9 -0.166992 13 -0.5s8.33301 -0.833008 13 -1.5c8 -0.666992 15.833 -1.16699 23.5 -1.5s15.167 -0.833008 22.5 -1.5c4 -0.666992 7.66699 -1 11 -1
s6.66602 -0.333008 9.99902 -1h18c7.33301 0 12.333 0.333008 15 1c2 0.666992 4 1 6 1s3.66699 0.333008 5 1c4 0.666992 7 1.66699 9 3c4 1.33301 7 2.66602 9 3.99902c2.66699 2 5.33398 4.66699 8.00098 8l4.5 4.5c1.66699 1.66699 3.16699 3.83398 4.5 6.50098
c5.33301 8.66699 10.333 20 15 34c2 6.66699 3.66699 13.834 5 21.501l4 22.5l1 6v3v2v1c0.666992 3.33301 1 7.66602 1 12.999c0.666992 4 1 8 1 12v12v23c-0.666992 4 -1 7.83301 -1 11.5s-0.333008 7.16699 -1 10.5s-1.33398 6.5 -2.00098 9.5
s-1.33398 5.83301 -2.00098 8.5c-1.33301 3.33301 -2.33301 6.16602 -3 8.49902s-1.33398 4.5 -2.00098 6.5c-1.33301 2.66699 -3.33301 6 -6 10c-2.66699 3.33301 -4.66699 5.66602 -6 6.99902c-2 2.66699 -5.33301 5 -10 7c-0.666992 0 -3 0.666992 -7 2
c-1.33301 0.666992 -2.83301 1 -4.5 1s-3.16699 0.333008 -4.5 1c-3.33301 0.666992 -6.83301 1 -10.5 1h-11.5c-4 0 -8.16699 -0.166992 -12.5 -0.5s-8.83301 -0.833008 -13.5 -1.5c-4 -0.666992 -8.33301 -1.16699 -13 -1.5s-9.33398 -1.16602 -14.001 -2.49902l-13.5 -4
c-4.33301 -1.33301 -9.16602 -2.66602 -14.499 -3.99902c-10.667 -2 -20 -5 -28 -9c-2.66699 -0.666992 -5 -1.33398 -7 -2.00098s-4.33301 -1.66699 -7 -3l-7 -2l-3 -2h-1h-1l-1 -1h-1c-12.667 -5.33301 -25.667 -6.16602 -39 -2.49902s-23.333 11.167 -30 22.5
c-5.33301 9.33301 -6.83301 18.833 -4.5 28.5s7.5 18.167 15.5 25.5z" />
    <glyph glyph-name="Q" unicode="Q" horiz-adv-x="852" 
d="M414 790c58 0 112.667 -12.333 164 -37s96 -58.334 134 -101.001s68 -92.667 90 -150s33 -118.666 33 -183.999s-11 -126.5 -33 -183.5s-52 -106.833 -90 -149.5s-82.667 -76.334 -134 -101.001s-106 -37 -164 -37s-112.5 12.333 -163.5 37s-95.5 58.334 -133.5 101.001
s-68 92.5 -90 149.5s-33 118.167 -33 183.5s11 126.666 33 183.999s52 107.333 90 150s82.5 76.334 133.5 101.001s105.5 37 163.5 37zM424 360c22.667 0 43.834 4.33301 63.501 13s36.834 20.334 51.501 35.001s26.334 31.834 35.001 51.501s13 40.834 13 63.501
s-4.33301 43.834 -13 63.501s-20.334 36.834 -35.001 51.501s-31.834 26.334 -51.501 35.001s-40.834 13 -63.501 13s-43.834 -4.33301 -63.501 -13s-36.834 -20.334 -51.501 -35.001s-26.334 -31.834 -35.001 -51.501s-13 -40.834 -13 -63.501s4.33301 -43.834 13 -63.501
s20.334 -36.834 35.001 -51.501s31.834 -26.334 51.501 -35.001s40.834 -13 63.501 -13zM429 402c-6.66699 19.333 -5.49902 38.167 3.50098 56.5s23.167 30.833 42.5 37.5c14.667 5.33301 29.334 5.83301 44.001 1.5s26.667 -12.166 36 -23.499l362 -424
c16 -19.333 27.667 -40.333 35 -63s10 -45.5 8 -68.5s-8.33301 -45.167 -19 -66.5s-25.334 -40 -44.001 -56s-39.334 -27.5 -62.001 -34.5s-45.5 -9.5 -68.5 -7.5s-45.167 8.16699 -66.5 18.5s-40 24.833 -56 43.5c-14.667 17.333 -25.667 36.666 -33 57.999z" />
    <glyph glyph-name="R" unicode="R" horiz-adv-x="770" 
d="M289 758l51.999 -701.998c2 -24.667 -1 -48.334 -9 -71.001s-19.5 -42.667 -34.5 -60s-33.167 -31.5 -54.5 -42.5s-44.333 -17.5 -69 -19.5c-25.333 -2 -49.166 0.833008 -71.499 8.5s-42.333 19.167 -60 34.5s-32 33.5 -43 54.5s-17.5 44.167 -19.5 69.5
c-1.33301 16 -0.333008 32 3 48l136 690c2 12 6.33301 22.667 13 32s14.5 17 23.5 23s19 10.167 30 12.5s22.5 2.5 34.5 0.5c19.333 -4 35.333 -13.333 48 -28s19.667 -31.334 21 -50.001zM229.999 713.002l1.00684 0.00683594v1h1l2 2l4 3c2.66699 1.33301 5 3 7 5
c2.66699 1.33301 5.16699 3 7.5 5s4.83301 3.66699 7.5 5l31 19c5.33301 3.33301 10.833 6.16602 16.5 8.49902s11.167 5.16602 16.5 8.49902l36 15l19.5 6c6.33301 2 13.166 3.66699 20.499 5c12.667 3.33301 27.667 5.66602 45 6.99902c4 0.666992 8 1 12 1h12
c4.66699 0 9 -0.166992 13 -0.5s8.33301 -0.833008 13 -1.5c8.66699 -1.33301 17.5 -3 26.5 -5s17.833 -4.66699 26.5 -8c16.667 -5.33301 33 -14 49 -26c7.33301 -5.33301 14 -10.833 20 -16.5s11.667 -11.834 17 -18.501c5.33301 -6 10.166 -12.167 14.499 -18.5
s8.16602 -12.5 11.499 -18.5c7.33301 -14 13.333 -26.333 18 -37c4.66699 -12 8.66699 -24 12 -36c2 -6 3.5 -12 4.5 -18s2.16699 -12 3.5 -18c2.66699 -10.667 4.66699 -22 6 -34c0.666992 -3.33301 1 -6.16602 1 -8.49902s0.333008 -5.16602 1 -8.49902v-2v-2l1 -4v-9
c0.666992 -11.333 0.833984 -23 0.500977 -35s-1.16602 -24.667 -2.49902 -38c-1.33301 -12.667 -3.5 -25.667 -6.5 -39s-7.16699 -26.666 -12.5 -39.999c-6.66699 -15.333 -13.667 -29 -21 -41c-4 -7.33301 -8.66699 -14.333 -14 -21l-16 -20c-11.333 -12 -25 -24 -41 -36
c-3.33301 -2.66699 -7 -5.16699 -11 -7.5s-8 -4.83301 -12 -7.5s-8 -5 -12 -7l-12 -6c-18.667 -8.66699 -35.667 -15.334 -51 -20.001c-8.66699 -2.66699 -17.167 -4.83398 -25.5 -6.50098s-16.833 -3.16699 -25.5 -4.5c-8 -1.33301 -16.167 -2.5 -24.5 -3.5
s-16.5 -1.5 -24.5 -1.5c-15.333 -1.33301 -30.666 -1.33301 -45.999 0c-28.667 2 -57.334 6.66699 -86.001 14l-19.5 6c-6.33301 2 -12.833 4.66699 -19.5 8c-3.33301 1.33301 -6.5 2.66602 -9.5 3.99902s-6.16699 2.66602 -9.5 3.99902
c-1.33301 1.33301 -3 2.16602 -5 2.49902s-3.66699 1.16602 -5 2.49902l-2 1l-3 2l-3 1v1h-1l-2 1c-15.333 5.33301 -28.333 13 -39 23s-18.834 21 -24.501 33s-8.5 24.667 -8.5 38s3 26.666 9 39.999c6 12.667 14.667 23.667 26 33s23.833 16.5 37.5 21.5
s28.167 7.66699 43.5 8s30.333 -2.16699 45 -7.5h1h2l1 1h6c1.33301 0 -1.83398 3.66699 -9.50098 11l-25.5 24.5l-26 25c-8 7.66699 -11.333 11.5 -10 11.5c2 0 9 -1.16699 21 -3.5s24.833 -5 38.5 -8l38.5 -8.5c12 -2.66699 19 -4 21 -4
c8 -0.666992 15.833 -1.16699 23.5 -1.5s15.167 -0.833008 22.5 -1.5c4 -0.666992 7.66699 -1 11 -1s6.66602 -0.333008 9.99902 -1h18c7.33301 0 12.333 0.333008 15 1c2 0.666992 4 1 6 1s3.66699 0.333008 5 1c4 0.666992 7 1.66699 9 3c4 1.33301 7 2.66602 9 3.99902
c2.66699 2 5.33398 4.66699 8.00098 8l4.5 4.5c1.66699 1.66699 3.16699 3.83398 4.5 6.50098c9.33301 28 14.666 50.333 15.999 67s2 27.334 2 32.001c-0.666992 4 -1 7.83301 -1 11.5s-0.333008 7.16699 -1 10.5s-1.33398 6.5 -2.00098 9.5s-1.33398 5.83301 -2.00098 8.5
c-1.33301 3.33301 -2.33301 6.16602 -3 8.49902s-1.33398 4.5 -2.00098 6.5c-1.33301 2.66699 -3.33301 6 -6 10c-2.66699 3.33301 -4.66699 5.66602 -6 6.99902c-2 2.66699 -5.33301 5 -10 7c-0.666992 0 -3 0.666992 -7 2c-1.33301 0.666992 -2.83301 1 -4.5 1
s-3.16699 0.333008 -4.5 1c-3.33301 0.666992 -6.83301 1 -10.5 1h-11.5c-4 0 -8.16699 -0.166992 -12.5 -0.5s-8.83301 -0.833008 -13.5 -1.5c-4 -0.666992 -8.33301 -1.16699 -13 -1.5s-9.33398 -1.16602 -14.001 -2.49902l-13.5 -4
c-4.33301 -1.33301 -9.16602 -2.66602 -14.499 -3.99902c-10.667 -2 -20 -5 -28 -9c-2.66699 -0.666992 -5 -1.33398 -7 -2.00098s-4.33301 -1.66699 -7 -3l-7 -2l-3 -2h-1h-1l-1 -1h-1c-12.667 -5.33301 -25.667 -6.16602 -39 -2.49902s-23.333 11.167 -30 22.5
c-5.33301 9.33301 -6.83301 18.833 -4.5 28.5s7.5 18.167 15.5 25.5zM449.006 -70.9912l-257.998 403.002c-11.333 17.333 -14.833 35.833 -10.5 55.5s15.166 35.167 32.499 46.5c12.667 8 26.334 11.833 41.001 11.5s27.667 -4.16602 39 -11.499l404 -255
c21.333 -13.333 38.833 -29.833 52.5 -49.5s23 -40.834 28 -63.501s5.66699 -45.834 2 -69.501s-12.167 -45.834 -25.5 -66.501c-13.333 -21.333 -29.833 -38.833 -49.5 -52.5s-40.834 -23 -63.501 -28s-45.834 -5.66699 -69.501 -2s-46.167 12.167 -67.5 25.5
c-24 15.333 -42.333 34 -55 56z" />
    <glyph glyph-name="S" unicode="S" 
d="M702 590l-0.994141 0.000976562l-1 1l-2 1c-2 2 -3.66699 3.33301 -5 4c-1.33301 1.33301 -3 2.33301 -5 3s-3.66699 1.66699 -5 3l-23 13l-23 10l-24 10c-32 10.667 -64.333 16.667 -97 18c-8 0.666992 -16 0.666992 -24 0h-12h-3
c-1.33301 -0.666992 -2.66602 -1 -3.99902 -1h-7c-6.66699 0.666992 -15 0.166992 -25 -1.5s-20.167 -3.66699 -30.5 -6s-19.833 -5.16602 -28.5 -8.49902s-14.667 -6.66602 -18 -9.99902s-3 -6.5 1 -9.5s13.333 -5.5 28 -7.5c8 -2.66699 16.333 -5.16699 25 -7.5l27 -7.5
c9.33301 -2 18.833 -4.16699 28.5 -6.5s19.167 -4.83301 28.5 -7.5l16 -4l8 -2l8 -2c5.33301 -1.33301 10.833 -3 16.5 -5s11.5 -3.66699 17.5 -5c11.333 -3.33301 22.833 -7.33301 34.5 -12s23.5 -9.66699 35.5 -15c22.667 -10.667 47 -24.667 73 -42
c6.66699 -4.66699 13 -9.5 19 -14.5l18 -15.5c6 -5.33301 12 -11 18 -17s11.667 -12.667 17 -20c10.667 -14 20.667 -29 30 -45c4.66699 -8 8.66699 -16.167 12 -24.5l10 -25.5c3.33301 -8.66699 6.16602 -17.167 8.49902 -25.5s4.16602 -17.166 5.49902 -26.499l2 -12.5
l2 -12.5c0 -6 0.333008 -10.333 1 -13v-6v-4v-2v-1l1 -2v-1v-2v-7v-12c0 -4.66699 -0.166992 -9 -0.5 -13s-0.833008 -8.33301 -1.5 -13c-0.666992 -9.33301 -1.83398 -18.5 -3.50098 -27.5s-3.83398 -18.167 -6.50098 -27.5c-5.33301 -19.333 -12.333 -38.333 -21 -57
l-16 -27c-5.33301 -8.66699 -11.333 -17.334 -18 -26.001l-21.5 -23c-7 -7.33301 -14.5 -14.333 -22.5 -21c-7.33301 -6.66699 -15 -12.667 -23 -18l-24 -16c-15.333 -9.33301 -30.666 -17 -45.999 -23c-8 -3.33301 -15.833 -6.33301 -23.5 -9l-22.5 -8
c-14.667 -4.66699 -29 -8.5 -43 -11.5s-27.667 -5.5 -41 -7.5c-6.66699 -1.33301 -13.334 -2.33301 -20.001 -3l-20 -2c-3.33301 -0.666992 -6.5 -1 -9.5 -1s-6.16699 -0.333008 -9.5 -1h-10l-4 -1h-1h-1h-1h-1h-2h-6h-6h-12c-4 0 -8 0.166992 -12 0.5s-8 0.5 -12 0.5
c-15.333 0.666992 -30.333 2.66699 -45 6c-28.667 4 -57.334 10.667 -86.001 20c-13.333 4.66699 -26.333 9.5 -39 14.5l-38 15.5c-12.667 5.33301 -24.834 11.166 -36.501 17.499l-34.5 19.5c-10.667 6 -22.334 13.333 -35.001 22l-8 6c-2.66699 2 -5.66699 4 -9 6l-9 6
l-5 4l-3 2l-1 2h-1l-2 2c-20 18 -35.667 38.5 -47 61.5s-17.666 47 -18.999 72s1.83398 49.833 9.50098 74.5s20.5 47 38.5 67s38.667 35.667 62 47s47.5 17.666 72.5 18.999s49.833 -1.83398 74.5 -9.50098s47 -20.5 67 -38.5l-1 1c0 -0.666992 0.333008 -1 1 -1
c0 -0.666992 0.666992 -1.66699 2 -3s2.5 -2.33301 3.5 -3s2.16699 -1.66699 3.5 -3l15 -12c12 -10 23 -17.667 33 -23c23.333 -14.667 44.333 -25 63 -31c2 -0.666992 4.16699 -1.33398 6.5 -2.00098s4.5 -1.33398 6.5 -2.00098c1.33301 0 2.5 -0.166992 3.5 -0.5
s2.16699 -0.5 3.5 -0.5l3 -1h3h1l3 -1h6c1.33301 0 3 -0.166992 5 -0.5s3.66699 -0.5 5 -0.5c3.33301 0 6.83301 -0.166992 10.5 -0.5s7.16699 -0.5 10.5 -0.5c24 5.33301 38.167 13 42.5 23s3.5 20.333 -2.5 31s-14.667 20.334 -26 29.001s-20.333 14.667 -27 18
c-4 1.33301 -7.83301 3 -11.5 5s-7.5 3.66699 -11.5 5l-12 6l-4 1l-3 1l-7 3l-28 11.5l-29 11.5c-19.333 8 -39.333 17 -60 27c-10.667 4.66699 -21.334 9.66699 -32.001 15s-21.667 11.666 -33 18.999c-6 3.33301 -11.833 6.83301 -17.5 10.5s-11.5 8.16699 -17.5 13.5
l-18.5 14.5c-6.33301 5 -12.5 11.167 -18.5 18.5c-6 4.66699 -12.333 12.334 -19 23.001c-6.66699 8.66699 -12.334 18.334 -17.001 29.001c-2.66699 5.33301 -5.16699 10.833 -7.5 16.5s-4.16602 11.834 -5.49902 18.501c-2.66699 11.333 -4 24.333 -4 39v3v1v1v1v2v8
c0.666992 3.33301 1.16699 6.16602 1.5 8.49902s0.833008 4.83301 1.5 7.5c0.666992 10.667 3.66699 21.667 9 33c2 5.33301 4.16699 10.5 6.5 15.5l7.5 15.5c6 8.66699 12.667 17.334 20 26.001l10.5 10l10.5 10c4 3.33301 7.83301 6.33301 11.5 9s7.16699 5 10.5 7
c15.333 9.33301 29.666 16.333 42.999 21c6.66699 3.33301 13.334 6 20.001 8s13 3.66699 19 5c6.66699 1.33301 13.167 2.5 19.5 3.5s12.5 2.16699 18.5 3.5c24 4 47.333 6 70 6c11.333 0.666992 22.5 0.833984 33.5 0.500977s22.167 -0.833008 33.5 -1.5h8l4 -1h2h1h2
c3.33301 0 6.33301 -0.166992 9 -0.5s5.66699 -0.5 9 -0.5l18 -2c6 -0.666992 12 -1.66699 18 -3c48 -9.33301 92.333 -24.333 133 -45c10.667 -5.33301 21 -10.833 31 -16.5s19.667 -11.834 29 -18.501l14 -10.5l14 -10.5c5.33301 -4 9.66602 -7.66699 12.999 -11
c2 -1.33301 4.33301 -3.33301 7 -6l4 -3l4 -4c12.667 -11.333 19.5 -25.5 20.5 -42.5s-4.16699 -31.833 -15.5 -44.5c-11.333 -13.333 -25.5 -20.333 -42.5 -21s-31.833 4.66602 -44.5 15.999z" />
    <glyph glyph-name="T" unicode="T" horiz-adv-x="707" 
d="M423 720l52.001 -641.997c2 -24.667 -0.833008 -48.334 -8.5 -71.001s-19 -42.834 -34 -60.501s-33.167 -32.167 -54.5 -43.5s-44.333 -18 -69 -20c-25.333 -2 -49.333 0.833008 -72 8.5s-42.667 19 -60 34s-31.666 33.167 -42.999 54.5s-18 44.333 -20 69
c-1.33301 9.33301 -1.5 18.333 -0.5 27s2.16699 17.334 3.5 26.001l136 630c2.66699 11.333 7.33398 21.666 14.001 30.999s14.5 17 23.5 23s19.167 10.167 30.5 12.5s22.666 2.16602 33.999 -0.500977c19.333 -4.66699 35.166 -14.167 47.499 -28.5
s19.166 -30.833 20.499 -49.5zM-41.999 782.003l712 60c20.667 2 40.667 -0.333008 60 -7s36.5 -16.167 51.5 -28.5s27.167 -27.5 36.5 -45.5s15 -37.333 17 -58c2 -21.333 -0.333008 -41.5 -7 -60.5s-16.167 -36 -28.5 -51s-27.5 -27.167 -45.5 -36.5s-37.333 -15 -58 -17
h-24l-712 52c-27.333 2 -49.5 13 -66.5 33s-24.833 43.333 -23.5 70c2 24 11.333 44.333 28 61s36.667 26 60 28z" />
    <glyph glyph-name="U" unicode="U" horiz-adv-x="772" 
d="M270 703c0 -2 0.162109 -3.99414 0.495117 -5.99414s0.5 -4 0.5 -6l1 -13v-12.5c0 -4.33301 0.333008 -8.5 1 -12.5l2 -50c0.666992 -16.667 1.16699 -33.167 1.5 -49.5s1.16602 -32.5 2.49902 -48.5c0.666992 -15.333 1.66699 -30.666 3 -45.999l4 -46
c2.66699 -30 6.66699 -58 12 -84c2.66699 -13.333 5.66699 -25.333 9 -36l5.5 -16.5c1.66699 -5 3.5 -9.83301 5.5 -14.5l6 -12c1.33301 -2.66699 3.33301 -6 6 -10c2 -2 3.66699 -4.33301 5 -7c1.33301 -1.33301 2.33301 -2.16602 3 -2.49902
s1.33398 -0.833008 2.00098 -1.5c2.66699 -2 4.66699 -3 6 -3h2h1l2 -1c1.33301 0 2.66602 -0.333008 3.99902 -1c3.33301 0 5.66602 -0.333008 6.99902 -1c4 0 7.33301 -0.333008 10 -1h6h3h2h4h3h6c1.33301 0.666992 2.83301 1 4.5 1h4.5c2 0.666992 4.33301 1 7 1
c1.33301 0.666992 3 1 5 1c0.666992 0 1.16699 0.166992 1.5 0.5s0.833008 0.5 1.5 0.5h2c1.33301 0 2.33301 0.333008 3 1c0.666992 0 1.33398 0.333008 2.00098 1c0.666992 0 1.33398 0.333008 2.00098 1l4.5 4.5c1.66699 1.66699 3.5 3.83398 5.5 6.50098
c4.66699 6.66699 8.66699 14 12 22c8.66699 18.667 15.334 41 20.001 67l4 20l4 21c1.33301 7.33301 2.33301 14.5 3 21.5l2 21.5c2 15.333 3.5 30.666 4.5 45.999s2.16699 31 3.5 47s2.33301 32 3 48l2 50l2 50c0.666992 4 1 8.16699 1 12.5s0.333008 8.5 1 12.5v13l1 6
c0 3.33301 0.333008 5.33301 1 6l2 13c3.33301 15.333 11.666 27.5 24.999 36.5s28 11.833 44 8.5c7.33301 -1.33301 14 -4 20 -8s11 -8.66699 15 -14l9 -12l4 -6l4 -6c2.66699 -3.33301 5.16699 -7 7.5 -11s4.83301 -8 7.5 -12c5.33301 -8 10.166 -16 14.499 -24l13.5 -24
c8.66699 -16.667 16.667 -33.5 24 -50.5l22 -51.5c13.333 -35.333 24.333 -71.666 33 -108.999c4 -18.667 7.5 -37.834 10.5 -57.501s5.16699 -39.834 6.5 -60.501c0.666992 -10.667 1.16699 -21.334 1.5 -32.001s-0.166992 -21.667 -1.5 -33
c-0.666992 -11.333 -1.5 -22.666 -2.5 -33.999s-2.83301 -23 -5.5 -35l-8.5 -36.5c-3 -12.333 -7.16699 -24.833 -12.5 -37.5s-11.166 -25.334 -17.499 -38.001s-14.166 -25.334 -23.499 -38.001c-16.667 -25.333 -38 -49 -64 -71c-6 -5.33301 -12.333 -10.166 -19 -14.499
l-20 -13.5l-21.5 -11.5c-7 -3.66699 -14.167 -7.16699 -21.5 -10.5c-28.667 -12.667 -57 -21.334 -85 -26.001s-54.667 -7 -80 -7h-5h-5h-9c-3.33301 0.666992 -6.66602 1 -9.99902 1s-6.66602 0.333008 -9.99902 1l-20 2c-6.66699 0.666992 -13.667 1.66699 -21 3
s-14.333 2.83301 -21 4.5l-21 5.5c-16 4 -30.333 9.33301 -43 16c-8.66699 3.33301 -16 6.66602 -22 9.99902l-21 12c-7.33301 4 -14.166 8.33301 -20.499 13l-19.5 15l-18 16.5c-6 5.66699 -11.667 11.5 -17 17.5c-5.33301 5.33301 -10.333 11.166 -15 17.499l-14 18.5
c-17.333 26.667 -31 52.334 -41 77.001c-1.33301 3.33301 -2.33301 6.5 -3 9.5s-1.66699 6.16699 -3 9.5s-2.33301 6.5 -3 9.5s-1.66699 6.16699 -3 9.5c-4 12 -7 24 -9 36c-2.66699 12 -4.5 23.667 -5.5 35s-1.83301 22.666 -2.5 33.999
c-1.33301 11.333 -1.83301 22.333 -1.5 33s0.833008 21.334 1.5 32.001c1.33301 21.333 3.33301 41.666 6 60.999s6.33398 38.666 11.001 57.999c4 19.333 8.66699 38 14 56s11.333 35.667 18 53c3.33301 9.33301 6.83301 18.166 10.5 26.499l11.5 25.5l5 12
c1.33301 3.33301 3.33301 7.66602 6 12.999l6 12c2 4 4.33301 8.33301 7 13c8 16 17 32 27 48c2.66699 4 5.16699 8 7.5 12s4.83301 7.66699 7.5 11l4 6l4 6l4 6l2 3l2 2l1 1c11.333 13.333 25.833 21 43.5 23s33.167 -2.66699 46.5 -14c14 -10.667 22 -24.667 24 -42v-5z
" />
    <glyph glyph-name="V" unicode="V" horiz-adv-x="640" 
d="M669 674l-204.999 -674.998c-7.33301 -24 -18.666 -45.167 -33.999 -63.5s-33.333 -33 -54 -44s-42.834 -17.833 -66.501 -20.5s-47.5 -0.333984 -71.5 6.99902s-45 18.666 -63 33.999s-32.5 33.333 -43.5 54s-17.833 42.834 -20.5 66.501s-0.333984 47.5 6.99902 71.5
c5.33301 15.333 12 29.666 20 42.999l376 597c6.66699 10 14.667 18.167 24 24.5s19.333 10.833 30 13.5s21.667 3 33 1s22 -6 32 -12c16.667 -10.667 28.167 -25 34.5 -43s6.83301 -36 1.5 -54zM167.001 766.002l282 -646.997c10 -22.667 15 -46 15 -70
s-4.16699 -46.667 -12.5 -68s-20.666 -40.833 -36.999 -58.5s-35.833 -31.5 -58.5 -41.5c-23.333 -10 -46.833 -15 -70.5 -15s-46.334 4.16699 -68.001 12.5s-41.167 20.666 -58.5 36.999s-31 36.166 -41 59.499c-3.33301 7.33301 -6 15 -8 23s-3.66699 15.667 -5 23
l-102 698c-1.33301 12 -0.5 23.5 2.5 34.5s7.66699 20.833 14 29.5s14.333 16 24 22s20.5 9.66699 32.5 11c19.333 3.33301 37.5 0.166016 54.5 -9.50098s29.167 -23.167 36.5 -40.5z" />
    <glyph glyph-name="W" unicode="W" horiz-adv-x="891" 
d="M948 674l-205.001 -674.998c-7.33301 -24 -18.666 -45.167 -33.999 -63.5s-33.166 -33 -53.499 -44s-42.333 -17.833 -66 -20.5s-47.5 -0.333984 -71.5 6.99902s-45.167 18.666 -63.5 33.999s-33 33.333 -44 54s-17.833 42.834 -20.5 66.501s-0.333984 47.5 6.99902 71.5
c5.33301 15.333 12 29.666 20 42.999l377 597c6 10 13.667 18.167 23 24.5s19.333 10.833 30 13.5s21.667 3 33 1s22 -6 32 -12c16.667 -10.667 28.167 -25 34.5 -43s6.83301 -36 1.5 -54zM396.999 759.002l328.001 -627.999c11.333 -22 17.833 -45 19.5 -69s-1 -47 -8 -69
s-18 -42.333 -33 -61s-33.5 -33.667 -55.5 -45s-45 -17.833 -69 -19.5s-47 1 -69 8s-42.333 18 -61 33s-33.667 33.5 -45 55.5c-8 15.333 -13.333 30.333 -16 45l-151 692c-5.33301 23.333 -1.5 44.833 11.5 64.5s31.167 32.167 54.5 37.5
c19.333 4.66699 37.666 2.66699 54.999 -6s30.333 -21.334 39 -38.001zM653 651.003l-233.001 -660.001c-8 -23.333 -20.167 -43.833 -36.5 -61.5s-34.833 -31.5 -55.5 -41.5s-43 -15.667 -67 -17s-47.667 2 -71 10s-43.833 20.167 -61.5 36.5s-31.5 34.833 -41.5 55.5
s-15.833 43 -17.5 67s1.5 47.667 9.5 71c3.33301 8 6.83301 15.667 10.5 23s7.5 14.333 11.5 21l400 574c6.66699 10 14.834 17.833 24.501 23.5s20 9.5 31 11.5s22 1.83301 33 -0.5s21.5 -6.83301 31.5 -13.5c16 -11.333 26.833 -26.166 32.5 -44.499s5.5 -36.5 -0.5 -54.5
zM126.999 766.002l281.999 -646.997c10 -22.667 15 -46 15 -70s-4.16699 -46.667 -12.5 -68s-20.666 -40.833 -36.999 -58.5s-35.833 -31.5 -58.5 -41.5c-23.333 -10 -46.833 -15 -70.5 -15s-46.334 4.16699 -68.001 12.5s-41.167 20.666 -58.5 36.999
s-31 36.166 -41 59.499c-6.66699 14 -11 29.333 -13 46l-102 698c-2 12 -1.5 23.5 1.5 34.5s7.83301 20.833 14.5 29.5s14.834 16 24.501 22s20.5 9.66699 32.5 11c19.333 3.33301 37.5 0.166016 54.5 -9.50098s29.167 -23.167 36.5 -40.5z" />
    <glyph glyph-name="X" unicode="X" horiz-adv-x="741" 
d="M653 661l-360.998 -690.003c-11.333 -22 -26.333 -40.5 -45 -55.5s-39 -26 -61 -33s-44.833 -9.5 -68.5 -7.5s-46.5 8.66699 -68.5 20s-40.5 26.333 -55.5 45s-26 39 -33 61s-9.5 45 -7.5 69s8.66699 47 20 69c7.33301 14 15.666 26 24.999 36l515 582
c8 8.66699 17 15.5 27 20.5s20.5 7.83301 31.5 8.5s21.833 -0.666016 32.5 -3.99902s20.667 -9 30 -17c15.333 -13.333 24.666 -29.666 27.999 -48.999s0.333008 -37.666 -9 -54.999zM215.002 787.997l501.995 -622.994c16 -19.333 27.167 -40.5 33.5 -63.5
s8.33301 -46 6 -69s-9.16602 -45 -20.499 -66s-26.666 -39.167 -45.999 -54.5c-19.333 -16 -40.5 -27.167 -63.5 -33.5s-46 -8.33301 -69 -6s-45 9.16602 -66 20.499s-39.167 26.666 -54.5 45.999c-8.66699 10.667 -16.334 22.667 -23.001 36l-343 722
c-5.33301 10.667 -8.16602 21.667 -8.49902 33s1.33398 22.166 5.00098 32.499s9.33398 19.666 17.001 27.999s16.834 15.166 27.501 20.499c18 9.33301 36.667 11.666 56 6.99902s35 -14.667 47 -30z" />
    <glyph glyph-name="Y" unicode="Y" horiz-adv-x="466" 
d="M518 668l-173.001 -738.998c-5.33301 -24 -15.333 -45.5 -30 -64.5s-32.167 -34.667 -52.5 -47s-42.666 -20.833 -66.999 -25.5s-49.5 -4.33398 -75.5 0.999023s-49.167 14.666 -69.5 27.999s-37.166 29.5 -50.499 48.5s-22.333 39.833 -27 62.5s-4.33398 46 0.999023 70
c1.33301 6.66699 3.33301 13.5 6 20.5s5.66699 13.167 9 18.5l359 681c5.33301 10 12.5 18.667 21.5 26s19 12.666 30 15.999s22.5 4.83301 34.5 4.5s23.667 -3.16602 35 -8.49902c19.333 -8 33.333 -20.667 42 -38s11 -35.333 7 -54zM44.999 761.002l278.005 -427.001
c8.66699 -13.333 14.167 -27.5 16.5 -42.5s1.66602 -29.667 -2.00098 -44s-10.334 -27.666 -20.001 -39.999s-21.834 -22.5 -36.501 -30.5s-30.167 -13.167 -46.5 -15.5s-32.333 -1.66602 -48 2.00098s-30.334 9.83398 -44.001 18.501s-24.834 20 -33.501 34
c-1.33301 3.33301 -2.83301 6.66602 -4.5 9.99902s-3.16699 6.66602 -4.5 9.99902l-186 467c-3.33301 8.66699 -4.83301 17.5 -4.5 26.5s2.5 17.333 6.5 25s9.5 14.5 16.5 20.5s15.167 10.667 24.5 14c17.333 6 34 6.16699 50 0.5s28.667 -15.167 38 -28.5z" />
    <glyph glyph-name="Z" unicode="Z" horiz-adv-x="795" 
d="M693 661l-360.998 -690.003c-11.333 -22 -26.333 -40.5 -45 -55.5s-39 -26 -61 -33s-44.833 -9.5 -68.5 -7.5s-46.5 8.66699 -68.5 20s-40.5 26.333 -55.5 45s-26 39 -33 61s-9.5 45 -7.5 69s8.66699 47 20 69c7.33301 14 15.666 26 24.999 36l515 582
c8 8.66699 17 15.5 27 20.5s20.5 7.83301 31.5 8.5s21.833 -0.666016 32.5 -3.99902s20.667 -9 30 -17c15.333 -13.333 24.666 -29.666 27.999 -48.999s0.333008 -37.666 -9 -54.999zM636.002 647.997l-492.003 -51c-14.667 -1.33301 -28.667 0 -42 4
s-25.166 10.333 -35.499 19s-19 19 -26 31s-11.167 25.333 -12.5 40s0 28.667 4 42s10.333 25.166 19 35.499s19 19 31 26s25.333 11.167 40 12.5h16l495 -26c18 -1.33301 33.333 -8.66602 46 -21.999s18.334 -29.333 17.001 -48c-1.33301 -16.667 -7.66602 -31 -18.999 -43
s-25 -18.667 -41 -20zM736.999 -39.0029l-564.001 -83.001c-23.333 -2.66699 -45.833 -0.666992 -67.5 6s-41 17 -58 31s-31 30.833 -42 50.5s-17.833 41.167 -20.5 64.5s-0.666992 45.833 6 67.5s17 41 31 58s30.833 31 50.5 42s41.167 17.833 64.5 20.5
c4.66699 0 9.16699 0.166992 13.5 0.5s8.83301 0.166016 13.5 -0.500977l568 -42c14.667 -0.666992 28.334 -4.16699 41.001 -10.5s23.667 -14.666 33 -24.999s16.5 -22.166 21.5 -35.499s7.16699 -27.333 6.5 -42c-1.33301 -27.333 -11.333 -50.5 -30 -69.5
s-41 -29.833 -67 -32.5z" />
    <glyph glyph-name="bracketleft" unicode="[" horiz-adv-x="308" 
d="M200 605c22 -1.33301 38.499 -7.66211 49.499 -18.9951s16.833 -24 17.5 -38s-4.33301 -27.167 -15 -39.5s-26.667 -19.833 -48 -22.5c-9.33301 0 -19.166 0.666992 -29.499 2s-20.833 2 -31.5 2c-2 -19.333 -3 -39.5 -3 -60.5s0.5 -42 1.5 -63s2.33301 -41.667 4 -62
s2.83398 -39.166 3.50098 -56.499c1.33301 -29.333 2.83301 -58.333 4.5 -87s2.5 -58 2.5 -88c0 -11.333 -0.333008 -22.333 -1 -33s-0.666992 -21.334 0 -32.001c10 2.66699 19.667 3.16699 29 1.5s17.5 -5.83398 24.5 -12.501s12.333 -15.334 16 -26.001s4.5 -23 2.5 -37
c-8 -21.333 -20.833 -36.333 -38.5 -45s-36.334 -11.667 -56.001 -9s-38.167 10.667 -55.5 24s-29.333 31.666 -36 54.999c-5.33301 22 -7.66602 45 -6.99902 69l2 70c-3.33301 63.333 -6.5 126.5 -9.5 189.5s-3.83301 126.167 -2.5 189.5c0 8 0.166992 16.833 0.5 26.5
s1.33301 19.5 3 29.5s4.16699 19.5 7.5 28.5s8.33301 16.5 15 22.5c9.33301 9.33301 20.166 15.666 32.499 18.999s25.333 5.16602 39 5.49902s27.167 -0.166992 40.5 -1.5s26 -2 38 -2zM123.999 -11.9961l2 2c-0.666992 0 -1 -0.333008 -1 -1z" />
    <glyph glyph-name="backslash" unicode="\" horiz-adv-x="474" 
d="M98 390l-32 68.5c-10.667 23.667 -23.334 45.834 -38.001 66.501c-9.33301 4.66699 -17 12.167 -23 22.5s-9.33301 23.166 -10 38.499c0.666992 1.33301 1 2.66602 1 3.99902c10.667 36 34.667 53 72 51c14 -2 27 -9.5 39 -22.5s23 -27.667 33 -44s18.667 -33 26 -50
s13.666 -30.833 18.999 -41.5c20.667 -42.667 40.334 -86 59.001 -130l56.5 -131.5c19 -43.667 39.167 -86.667 60.5 -129s45.666 -83.166 72.999 -122.499c10.667 -18.667 14.334 -35.834 11.001 -51.501s-10.833 -27.5 -22.5 -35.5s-25.5 -11.167 -41.5 -9.5
s-31 10.834 -45 27.501c-26 38 -49.5 77 -70.5 117s-40.667 80.667 -59 122l-53.5 125c-17.333 42 -35.666 83.667 -54.999 125z" />
    <glyph glyph-name="bracketright" unicode="]" horiz-adv-x="328" 
d="M74 454c-21.333 -2.66699 -38.5 0.832031 -51.5 10.499s-21 21.334 -24 35.001s-0.5 27.5 7.5 41.5s22.667 24 44 30c22 5.33301 46.5 7.16602 73.5 5.49902s51.167 -5.16699 72.5 -10.5c15.333 -5.33301 26.333 -12.166 33 -20.499s11.667 -20.166 15 -35.499
c5.33301 -68 10.166 -135.667 14.499 -203l13.5 -203c1.33301 -21.333 3.33301 -44.5 6 -69.5s1.66699 -48.833 -3 -71.5c-5.33301 -10.667 -10.666 -18.667 -15.999 -24s-13.666 -10.666 -24.999 -15.999c-10 -3.33301 -20.5 -5.5 -31.5 -6.5s-22.167 -1.33301 -33.5 -1
s-22.666 1 -33.999 2s-22 1.83301 -32 2.5c-18.667 4 -32.667 11.5 -42 22.5s-14.333 22.667 -15 35s3.5 24.333 12.5 36s22.5 20.167 40.5 25.5c9.33301 -0.666992 18.666 -1.16699 27.999 -1.5s18.666 -0.5 27.999 -0.5c-0.666992 9.33301 -1 18.166 -1 26.499
s-0.333008 17.166 -1 26.499l-12 181.5c-4 60.333 -8.33301 120.833 -13 181.5c-16 2 -31.667 3 -47 3c-1.33301 -0.666992 -2.5 -1 -3.5 -1s-2.16699 -0.333008 -3.5 -1z" />
    <glyph glyph-name="asciicircum" unicode="^" horiz-adv-x="436" 
d="M42 746l165 130.998c6.66699 4 13.834 5.33301 21.501 4s14.167 -4.66602 19.5 -9.99902c3.33301 -4.66699 5.33301 -9.83398 6 -15.501s-0.333008 -10.5 -3 -14.5l-97 -186c-10 -18 -24.667 -30.167 -44 -36.5s-38 -4.83301 -56 4.5
c-9.33301 4.66699 -17 10.834 -23 18.501s-10.5 16.167 -13.5 25.5s-4.16699 18.833 -3.5 28.5s3.33398 18.834 8.00098 27.501c3.33301 4.66699 6.66602 9 9.99902 13s6.66602 7.33301 9.99902 10zM289 652.998l-90.001 189.998c-2.66699 7.33301 -2.5 14.833 0.5 22.5
s7.83301 13.167 14.5 16.5c5.33301 2.66699 10.833 3.5 16.5 2.5s10.167 -3.16699 13.5 -6.5l159 -136c15.333 -14 24 -31.167 26 -51.5s-3.66699 -38.166 -17 -53.499c-6.66699 -8 -14.5 -14 -23.5 -18s-18.333 -6.33301 -28 -7s-19.167 0.333008 -28.5 3
s-17.666 7.33398 -24.999 14.001c-8 8 -14 16 -18 24z" />
    <glyph glyph-name="underscore" unicode="_" horiz-adv-x="534" 
d="M45 13c2.66699 0 4.99902 -0.170898 6.99902 -0.503906s4.33301 -0.833008 7 -1.5v1c9.33301 -1.33301 18.666 -2 27.999 -2s18.666 -0.666992 27.999 -2c56.667 -0.666992 113.334 2.33301 170.001 9s113.334 13 170.001 19c22 -1.33301 38.5 -7.66602 49.5 -18.999
s16.833 -24 17.5 -38s-4.33301 -27.167 -15 -39.5s-26.667 -19.833 -48 -22.5l-103 -12.5c-34.667 -4.33301 -69.334 -8.16602 -104.001 -11.499s-69.5 -5.16602 -104.5 -5.49902s-69.5 1.5 -103.5 5.5c-18.667 4 -32.667 11.5 -42 22.5s-14.166 22.833 -14.499 35.5
s3.83398 24.834 12.501 36.501s22 20.167 40 25.5h5zM80.999 8.99609c3.33301 -0.666992 6.5 -1 9.5 -1h9.5c-6 0.666992 -11.5 1 -16.5 1s-5.83301 0 -2.5 0z" />
    <glyph glyph-name="grave" unicode="`" horiz-adv-x="366" 
d="M309 708c6.66699 -5.33301 10.6689 -11.833 12.002 -19.5s-0.333984 -14.834 -5.00098 -21.501c-3.33301 -4.66699 -7.5 -8.16699 -12.5 -10.5s-10.167 -2.83301 -15.5 -1.5l-206 37c-20 4 -35.833 14.333 -47.5 31s-15.834 35 -12.501 55s13.5 35.833 30.5 47.5
s35.167 15.834 54.5 12.501c11.333 -3.33301 21 -7.33301 29 -12z" />
    <glyph glyph-name="a" unicode="a" horiz-adv-x="885" 
d="M396 411c54.667 0 106.167 -7 154.5 -21s90.5 -33.167 126.5 -57.5s64.333 -52.833 85 -85.5s31 -67.334 31 -104.001c0 -37.333 -10.333 -72.166 -31 -104.499s-49 -60.666 -85 -84.999s-78.167 -43.5 -126.5 -57.5s-99.833 -21 -154.5 -21s-106 7 -154 21
s-90 33.167 -126 57.5s-64.333 52.666 -85 84.999s-31 67.166 -31 104.499c-0 36.667 10.333 71.334 31 104.001s49 61.167 85 85.5s78 43.5 126 57.5s99.333 21 154 21zM410 177c21.333 0 41.333 1.83301 60 5.5s35 8.66699 49 15s25 13.666 33 21.999s12 17.5 12 27.5
c0 9.33301 -4 18.166 -12 26.499s-19 15.666 -33 21.999s-30.333 11.333 -49 15s-38.667 5.5 -60 5.5s-41.166 -1.83301 -59.499 -5.5s-34.5 -8.66699 -48.5 -15s-25 -13.666 -33 -21.999s-12 -17.166 -12 -26.499c0 -10 4 -19.167 12 -27.5s19 -15.666 33 -21.999
s30.167 -11.333 48.5 -15s38.166 -5.5 59.499 -5.5zM115 584l1.00781 -0.00390625l1 1l2 2l4 3l4 2c1.33301 0.666992 2.66602 1.66699 3.99902 3c4.66699 3.33301 10 6.66602 16 9.99902c9.33301 6.66699 19.666 13.334 30.999 20.001
c23.333 12.667 45.666 23.667 66.999 33c11.333 5.33301 23.166 10.166 35.499 14.499s24.833 8.5 37.5 12.5c12.667 3.33301 25.667 6.33301 39 9s27 5 41 7c28 3.33301 57.667 3.33301 89 0c15.333 -2 30.666 -4.83301 45.999 -8.5s30.666 -8.5 45.999 -14.5
s29.833 -13.167 43.5 -21.5s27.167 -17.166 40.5 -26.499c25.333 -19.333 47.666 -41.333 66.999 -66c10 -11.333 19 -23.166 27 -35.499l23 -36.5c14 -25.333 26 -50.333 36 -75s18.667 -49.334 26 -74.001s13.666 -49 18.999 -73c6 -24.667 10.833 -49 14.5 -73l10.5 -71
c6 -48 10 -95.333 12 -142v-2c1.33301 -24 -2 -46.5 -10 -67.5s-19.333 -39.667 -34 -56s-32.167 -29.5 -52.5 -39.5s-42.5 -15.667 -66.5 -17c-23.333 -1.33301 -45.666 2 -66.999 10s-40.166 19.333 -56.499 34s-29.5 32.167 -39.5 52.5s-15.667 42.166 -17 65.499
c-0.666992 5.33301 -0.833984 10.333 -0.500977 15s0.833008 9.33398 1.5 14.001c2 20 3.83301 39.833 5.5 59.5s3.16699 39.167 4.5 58.5c2 38.667 2 76.667 0 114c-1.33301 18.667 -3 36.667 -5 54s-4.66699 34.333 -8 51c-7.33301 32.667 -17 60.667 -29 84
c-5.33301 11.333 -12 21.333 -20 30c-6.66699 8 -14.667 15.333 -24 22c-4.66699 3.33301 -9.5 6.33301 -14.5 9s-10.5 5 -16.5 7c-12 3.33301 -25.667 5.66602 -41 6.99902c-7.33301 1.33301 -15 1.83301 -23 1.5s-16.333 -1.16602 -25 -2.49902
c-16.667 -0.666992 -34 -3.66699 -52 -9c-8.66699 -2 -17.334 -4.33301 -26.001 -7s-17.667 -5.66699 -27 -9s-18 -6.66602 -26 -9.99902c-2 -1.33301 -4 -2.16602 -6 -2.49902s-4 -1.16602 -6 -2.49902l-6 -3l-6 -2l-4 -2c-10.667 -5.33301 -21.5 -8.16602 -32.5 -8.49902
s-21.5 1.33398 -31.5 5.00098s-19.167 9.16699 -27.5 16.5s-14.833 16.333 -19.5 27c-9.33301 18 -11.5 36.667 -6.5 56s15.167 34.666 30.5 45.999z" />
    <glyph glyph-name="b" unicode="b" horiz-adv-x="938" 
d="M547 640c54.667 0 106.167 -10.333 154.5 -31s90.5 -49 126.5 -85s64.333 -78.167 85 -126.5s31 -99.833 31 -154.5s-10.333 -106 -31 -154s-49 -90 -85 -126s-78.167 -64.333 -126.5 -85s-99.833 -31 -154.5 -31s-106 10.333 -154 31s-90 49 -126 85s-64.333 78 -85 126
s-31 99.333 -31 154s10.333 106.167 31 154.5s49 90.5 85 126.5s78 64.333 126 85s99.333 31 154 31zM561 294c21.333 0 41.333 2.66699 60 8s35 12.666 49 21.999s25 20.333 33 33s12 26 12 40s-4 27.333 -12 40s-19 23.667 -33 33s-30.333 16.666 -49 21.999
s-38.667 8 -60 8s-41.166 -2.66699 -59.499 -8s-34.5 -12.666 -48.5 -21.999s-25 -20.333 -33 -33s-12 -26 -12 -40s4 -27.333 12 -40s19 -23.667 33 -33s30.167 -16.666 48.5 -21.999s38.166 -8 59.499 -8zM407 71c2 -30 -1.99805 -58.334 -11.998 -85.001
s-24.333 -50.334 -43 -71.001s-40.667 -37.334 -66 -50.001s-53 -20 -83 -22c-30 -1.33301 -58.333 2.83398 -85 12.501s-50.334 23.834 -71.001 42.501s-37.334 40.667 -50.001 66s-20 53 -22 83c-1.33301 22 0.666992 42.667 6 62l163 687c3.33301 15.333 9.5 29 18.5 41
s19.667 21.833 32 29.5s26 12.834 41 15.501s30.167 2.33398 45.5 -0.999023c25.333 -6 45.833 -18.833 61.5 -38.5s24.167 -41.834 25.5 -66.501z" />
    <glyph glyph-name="c" unicode="c" horiz-adv-x="847" 
d="M600 415l-2.00684 1.00195h-1c-0.666992 0 -1 0.166992 -1 0.5s-0.333008 0.5 -1 0.5c-1.33301 0 -2.16602 0.166992 -2.49902 0.5s-1.16602 0.5 -2.49902 0.5c-1.33301 0.666992 -2.66602 1.16699 -3.99902 1.5s-2.66602 0.833008 -3.99902 1.5
c-3.33301 1.33301 -6.33301 2.16602 -9 2.49902s-5.66699 0.833008 -9 1.5c-6 1.33301 -12.167 2.33301 -18.5 3l-18.5 2c-12 0.666992 -23.833 0.333984 -35.5 -0.999023s-23.167 -3.33301 -34.5 -6c-23.333 -6 -43.666 -15 -60.999 -27
c-9.33301 -5.33301 -17.5 -11.5 -24.5 -18.5s-13.5 -14.167 -19.5 -21.5c-5.33301 -7.33301 -9.83301 -14.833 -13.5 -22.5s-6.5 -15.167 -8.5 -22.5c-2.66699 -6 -4 -12.667 -4 -20c-1.33301 -6 -1.33301 -11.667 0 -17c0 -3.33301 0.166992 -6 0.5 -8
s0.833008 -4.33301 1.5 -7c0.666992 -2 1.66699 -4.33301 3 -7c0 -0.666992 0.666992 -3 2 -7c4.66699 -7.33301 10.334 -14.333 17.001 -21c3.33301 -3.33301 7 -6.66602 11 -9.99902s8.66699 -6.66602 14 -9.99902s10.5 -6.33301 15.5 -9l16.5 -9
c6 -2.66699 12.333 -5.33398 19 -8.00098s13.667 -4.66699 21 -6c2 -0.666992 3.83301 -1.16699 5.5 -1.5s3.5 -0.833008 5.5 -1.5h3l1 -1h1h1h1h2l2 -1c4 -0.666992 8 -1.16699 12 -1.5s8 -0.5 12 -0.5c7.33301 -0.666992 15 -0.833984 23 -0.500977s16 1.16602 24 2.49902
s16 3 24 5s16 4.66699 24 8c4 1.33301 7.83301 3 11.5 5l11.5 6c3.33301 2.66699 7 5 11 7s7.66699 4.66699 11 8c3.33301 2.66699 6.83301 5.66699 10.5 9l10.5 10c1.33301 2 3 4 5 6s3.66699 4 5 6c1.33301 1.33301 2.16602 2.33301 2.49902 3s1.16602 1.66699 2.49902 3
c1.33301 2.66699 3 5 5 7l15 22c6.66699 10 14.834 18 24.501 24s20 10 31 12s22 1.83301 33 -0.5s21.5 -6.83301 31.5 -13.5c18 -12 29.667 -28.333 35 -49c1.33301 -4.66699 2.66602 -10.334 3.99902 -17.001c0.666992 -2.66699 1 -5.33398 1 -8.00098
s0.333008 -5.33398 1 -8.00098c0.666992 -5.33301 1.16699 -11 1.5 -17s0.5 -11.667 0.5 -17c-1.33301 -24.667 -4.66602 -47.334 -9.99902 -68.001c-5.33301 -23.333 -13.333 -45.333 -24 -66c-10.667 -22.667 -23 -42.334 -37 -59.001
c-28 -37.333 -62 -68.666 -102 -93.999l-30 -18c-5.33301 -2.66699 -10.666 -5.16699 -15.999 -7.5s-10.666 -4.83301 -15.999 -7.5c-10.667 -4.66699 -21.5 -8.83398 -32.5 -12.501s-22.167 -7.16699 -33.5 -10.5c-22 -5.33301 -45 -9.33301 -69 -12
c-3.33301 0 -6 -0.333008 -8 -1h-5h-2h-1h-1h-1h-1h-2l-5 -1h-8h-35c-23.333 1.33301 -46.833 4.33301 -70.5 9s-46.834 11.667 -69.501 21c-47.333 17.333 -89.666 42.333 -126.999 75c-19.333 16.667 -37 35 -53 55s-30.333 41.667 -43 65
c-3.33301 5.33301 -6.16602 11 -8.49902 17l-7.5 19c-2.66699 6 -5.16699 12 -7.5 18s-4.5 12.333 -6.5 19c-3.33301 12.667 -6.33301 25.5 -9 38.5s-4.66699 26.167 -6 39.5c-0.666992 7.33301 -1.16699 14.166 -1.5 20.499s-0.5 12.833 -0.5 19.5
c0.666992 6.66699 1 13.167 1 19.5s0.666992 12.833 2 19.5c1.33301 13.333 3.5 26.333 6.5 39s6.5 25.334 10.5 38.001c8 24.667 18.667 47.667 32 69c6.66699 11.333 13.667 21.666 21 30.999l23 28c16.667 18 34.334 33.833 53.001 47.5s37.667 25.5 57 35.5
c38.667 19.333 79.667 32.666 123 39.999c5.33301 0.666992 10.333 1.33398 15 2.00098s9.66699 1.33398 15 2.00098s10.5 1 15.5 1s10.167 0.333008 15.5 1h15c4.66699 0 9.66699 -0.333008 15 -1c5.33301 0 10.333 -0.166992 15 -0.5s9.66699 -0.833008 15 -1.5l29 -4
c10 -1.33301 19.667 -3.33301 29 -6c18 -4.66699 36.333 -10.667 55 -18c9.33301 -3.33301 18.166 -7.16602 26.499 -11.499l25.5 -13.5l24 -15c2 -2 5.66699 -5 11 -9c2.66699 -1.33301 4.66699 -2.66602 6 -3.99902l3 -2v-1h1l1 -1
c13.333 -11.333 20.666 -25.666 21.999 -42.999s-3.66699 -32.666 -15 -45.999c-9.33301 -10.667 -20.5 -17.667 -33.5 -21s-25.5 -2.33301 -37.5 3z" />
    <glyph glyph-name="d" unicode="d" horiz-adv-x="947" 
d="M-2 243c0 54.667 10.333 106.167 31 154.5s49 90.5 85 126.5s78 64.333 126 85s99.333 31 154 31s106.167 -10.333 154.5 -31s90.5 -49 126.5 -85s64.333 -78.167 85 -126.5s31 -99.833 31 -154.5s-10.333 -106 -31 -154s-49 -90 -85 -126s-78.167 -64.333 -126.5 -85
s-99.833 -31 -154.5 -31s-106 10.333 -154 31s-90 49 -126 85s-64.333 78 -85 126s-31 99.333 -31 154zM237 407c0 -14 4 -27.333 12 -40s19 -23.667 33 -33s30.167 -16.666 48.5 -21.999s38.166 -8 59.499 -8s41.333 2.66699 60 8s35 12.666 49 21.999s25 20.333 33 33
s12 26 12 40s-4 27.333 -12 40s-19 23.667 -33 33s-30.333 16.666 -49 21.999s-38.667 8 -60 8s-41.166 -2.66699 -59.499 -8s-34.5 -12.666 -48.5 -21.999s-25 -20.333 -33 -33s-12 -26 -12 -40zM961 109c6.66699 -29.333 7.5 -58.001 2.5 -86.001
s-14.667 -53.833 -29 -77.5s-33 -44 -56 -61s-49.167 -28.833 -78.5 -35.5c-29.333 -7.33301 -58 -8.5 -86 -3.5s-53.667 14.833 -77 29.5s-43.666 33.334 -60.999 56.001s-29.333 48.667 -36 78c-4 22.667 -5.66699 43.334 -5 62.001l39 705
c0.666992 16 4.33398 30.667 11.001 44s15.5 24.833 26.5 34.5s23.5 17.167 37.5 22.5s29 7.66602 45 6.99902c25.333 -1.33301 47.666 -10.333 66.999 -27s31.666 -37 36.999 -61z" />
    <glyph glyph-name="e" unicode="e" horiz-adv-x="839" 
d="M423 177c6 -2.66699 11.6641 -4.33398 16.9971 -5.00098c2 -0.666992 3.83301 -1.16699 5.5 -1.5s3.5 -0.833008 5.5 -1.5h3l1 -1h5l3 -1c3.33301 -0.666992 7 -1.16699 11 -1.5s8 -0.5 12 -0.5c14.667 -0.666992 30.334 0 47.001 2c8 1.33301 16 3 24 5s16 4.66699 24 8
c7.33301 2.66699 15 6.33398 23 11.001c4 2.66699 7.83301 5 11.5 7s7.16699 4.66699 10.5 8s6.83301 6.5 10.5 9.5s7.16699 6.16699 10.5 9.5c2 2 3.83301 4 5.5 6s3.16699 4 4.5 6c1.33301 1.33301 2.16602 2.33301 2.49902 3s1.16602 1.66699 2.49902 3
s2.16602 2.5 2.49902 3.5s1.16602 2.16699 2.49902 3.5l15 22c6.66699 10 14.834 18 24.501 24s20 10 31 12s22.167 1.83301 33.5 -0.5s22 -6.83301 32 -13.5c17.333 -12 28.666 -28.333 33.999 -49c1.33301 -4.66699 2.66602 -10.334 3.99902 -17.001s2 -12 2 -16
c0.666992 -5.33301 1.16699 -11 1.5 -17s0.5 -11.667 0.5 -17c-1.33301 -23.333 -4.33301 -46 -9 -68c-6 -24 -14.333 -46 -25 -66c-9.33301 -19.333 -21.333 -39 -36 -59c-29.333 -37.333 -63.666 -68.666 -102.999 -93.999l-30 -18
c-5.33301 -2.66699 -10.666 -5.16699 -15.999 -7.5s-10.666 -4.83301 -15.999 -7.5c-10.667 -4.66699 -21.5 -8.83398 -32.5 -12.501s-22.167 -6.83398 -33.5 -9.50098c-11.333 -3.33301 -22.666 -6 -33.999 -8s-22.666 -3.66699 -33.999 -5c-4 0 -7 -0.333008 -9 -1h-13
l-4 -1h-44c-23.333 1.33301 -46.833 4.33301 -70.5 9s-46.834 11.667 -69.501 21c-22.667 8.66699 -44.667 19.167 -66 31.5s-41.666 26.833 -60.999 43.5s-37 35 -53 55s-30 41.667 -42 65c-3.33301 5.33301 -6.33301 11 -9 17s-5.33398 12.333 -8.00098 19
c-2.66699 6 -5.16699 12 -7.5 18s-4.5 12.333 -6.5 19c-7.33301 26 -12.333 52 -15 78c-0.666992 7.33301 -1 14.166 -1 20.499v19.5c0 6.66699 0.166992 13.167 0.5 19.5s0.833008 12.833 1.5 19.5c1.33301 13.333 3.5 26.333 6.5 39s6.5 25.334 10.5 38.001
c8 24.667 18.667 47.667 32 69c12.667 22 27.334 41.667 44.001 59c16.667 18 34.334 33.833 53.001 47.5s37.667 25.5 57 35.5c20 10 40.333 18.333 61 25s41.334 11.667 62.001 15c5.33301 1.33301 10.5 2.16602 15.5 2.49902s10.167 0.833008 15.5 1.5s10.333 1 15 1
s9.66699 0.333008 15 1h15c4.66699 0 9.66699 -0.333008 15 -1c5.33301 0 10.333 -0.166992 15 -0.5s9.66699 -0.833008 15 -1.5c21.333 -2 40.666 -5.33301 57.999 -10c18 -4.66699 36.333 -10.667 55 -18s36 -15.666 52 -24.999l24 -15
c2 -1.33301 3.83301 -2.83301 5.5 -4.5s3.5 -3.16699 5.5 -4.5c2.66699 -1.33301 4.66699 -2.66602 6 -3.99902l3 -2v-1h1l1 -1c13.333 -11.333 20.833 -25.166 22.5 -41.499s-2.5 -31.166 -12.5 -44.499v-1l-2 -2c-1.33301 -1.33301 -2.16602 -2.33301 -2.49902 -3
s-0.833008 -1.33398 -1.5 -2.00098c0 -0.666992 -0.166992 -1 -0.5 -1s-0.5 -0.333008 -0.5 -1zM449.997 423c-23.333 -6 -43.6699 -15.0029 -61.0029 -27.0029c-17.333 -11.333 -31.666 -24.666 -42.999 -39.999c-6 -7.33301 -10.833 -14.833 -14.5 -22.5
s-6.5 -15.167 -8.5 -22.5c-1.33301 -3.33301 -2.33301 -6.66602 -3 -9.99902s-1 -6.66602 -1 -9.99902c-1.33301 -6 -1.33301 -11.667 0 -17c0 -5.33301 1 -10.333 3 -15c0 -2 0.666992 -4.33301 2 -7l3 -6c2 -5.33301 4.33301 -9.33301 7 -12l172 196
c-9.33301 -0.666992 -18.666 -1.5 -27.999 -2.5s-18.666 -2.5 -27.999 -4.5z" />
    <glyph glyph-name="f" unicode="f" horiz-adv-x="499" 
d="M-15 -3l36.002 258.007l18 129l2 16l1 8l1 4v2v1v1v-6v1v1v1v1l1 3v6c0 1.33301 0.166992 3 0.5 5s0.5 3.66699 0.5 5c0.666992 3.33301 1.16699 6.66602 1.5 9.99902s0.833008 6.66602 1.5 9.99902c2 13.333 4.16699 26.166 6.5 38.499s5.16602 25.166 8.49902 38.499
c3.33301 12.667 7 25.334 11 38.001s8.33301 25.334 13 38.001c10 26 22.333 51.667 37 77l12 18.5c4 6.33301 8.66699 12.5 14 18.5c9.33301 14 19.666 26 30.999 36c6 6 12.167 11.5 18.5 16.5l20.5 15.5c7.33301 5.33301 14.666 10 21.999 14s14.666 7.66699 21.999 11
c8 3.33301 16 6.16602 24 8.49902s16.333 4.16602 25 5.49902c8 2 16 3.33301 24 4s15.667 1 23 1h12c4 0 7.66699 -0.333008 11 -1h6h1h1l1 -1h1h1h3h2c1.33301 -0.666992 3.33301 -1 6 -1c7.33301 -1.33301 14.666 -2.83301 21.999 -4.5s14.666 -3.5 21.999 -5.5
c7.33301 -2.66699 14.5 -5.5 21.5 -8.5s14.167 -6.5 21.5 -10.5c15.333 -8.66699 28.333 -18.334 39 -29.001c12.667 -12 23 -24.667 31 -38c2.66699 -3.33301 4.83398 -6.83301 6.50098 -10.5s3.5 -7.5 5.5 -11.5c0.666992 -1.33301 1.33398 -3 2.00098 -5l2 -6
c1.33301 -4 2 -6.33301 2 -7c0.666992 -0.666992 1 -2 1 -4l2 -5c4 -15.333 2.33301 -29.666 -5 -42.999s-18.666 -22 -33.999 -26s-29.666 -2.33301 -42.999 5s-22 18.666 -26 33.999v-1v-1l-1 1l-3 3c-1.33301 1.33301 -2.33301 2.16602 -3 2.49902
s-1.66699 1.16602 -3 2.49902c-4.66699 3.33301 -9.33398 6 -14.001 8c-10.667 4 -21.667 5.66699 -33 5h-10.5c-3.66699 0 -7.16699 -0.666992 -10.5 -2h-2h-2l-1 -1h-1h-1h-1l-2 -1c-2 -0.666992 -3.83301 -1 -5.5 -1s-3.16699 -0.666992 -4.5 -2
c-6.66699 -2 -11.667 -4.33301 -15 -7c-2.66699 -1.33301 -4.83398 -2.83301 -6.50098 -4.5s-3.5 -3.16699 -5.5 -4.5c-4 -5.33301 -6.66699 -9.33301 -8 -12l-4 -6c-1.33301 -2 -2.66602 -4.33301 -3.99902 -7l-6 -16.5c-2 -5.66699 -3.66699 -12.167 -5 -19.5
c-1.33301 -6.66699 -2.5 -13.834 -3.5 -21.501s-2.16699 -15.5 -3.5 -23.5c-0.666992 -16 -0.666992 -32.667 0 -50c0 -8.66699 0.333008 -17.167 1 -25.5s1.66699 -16.833 3 -25.5c0.666992 -2 1 -4.16699 1 -6.5s0.333008 -4.5 1 -6.5c0.666992 -1.33301 1 -3 1 -5
c0 -0.666992 0.166992 -1.16699 0.5 -1.5s0.5 -0.833008 0.5 -1.5v-1h1v-6v-1v-1v-2l1 -4l1 -8l2 -16l18 -129l36 -258c4 -27.333 2.33301 -53.833 -5 -79.5s-18.666 -48.667 -33.999 -69s-34.5 -37.333 -57.5 -51s-48.167 -22.5 -75.5 -26.5s-53.833 -2.5 -79.5 4.5
s-48.667 18.333 -69 34s-37.333 34.834 -51 57.501s-22.5 47.667 -26.5 75c-2 18 -2 36.333 0 55zM92.002 290.007l362.004 202.997c13.333 7.33301 27.666 8.83301 42.999 4.5s27 -13.166 35 -26.499c5.33301 -10 7.66602 -20.667 6.99902 -32
s-4.33398 -21.333 -11.001 -30l-247 -333c-12 -16 -26.333 -29 -43 -39s-34.167 -16.333 -52.5 -19s-37 -1.83398 -56 2.49902s-36.5 12.5 -52.5 24.5s-29 26.333 -39 43s-16.333 34.334 -19 53.001s-1.83398 37.334 2.49902 56.001s12.5 36 24.5 52
c12.667 16.667 28 30.334 46 41.001z" />
    <glyph glyph-name="g" unicode="g" horiz-adv-x="870" 
d="M240 13h1.00098l2 -2h2l7 -4l15 -6c10.667 -4.66699 20.334 -8.33398 29.001 -11.001l28.5 -10c9.66699 -3.33301 19.167 -6.33301 28.5 -9c36.667 -10 72 -15 106 -15c17.333 0 32.333 1.33301 45 4c15.333 3.33301 28.666 7.33301 39.999 12
c13.333 5.33301 24.666 12.333 33.999 21l16 14.5c5.33301 5 10.333 11.167 15 18.5c4.66699 6.66699 9.16699 13.667 13.5 21s8.16602 15.333 11.499 24c2.66699 6.66699 5 13.667 7 21c-34 -21.333 -72 -38 -114 -50s-86.667 -18 -134 -18c-54.667 0 -106 8 -154 24
s-90 38 -126 66s-64.333 60.667 -85 98s-31 77.333 -31 120s10.333 82.667 31 120s49 70 85 98s78 50 126 66s99.333 24 154 24c39.333 0 76.833 -4.16699 112.5 -12.5s69.167 -20.166 100.5 -35.499c7.33301 22.667 22.666 37.667 45.999 45
c16.667 5.33301 32.834 4.83301 48.501 -1.5s27.5 -16.833 35.5 -31.5l39 -73.5c12.667 -25 24.667 -50.5 36 -76.5c22.667 -52 41.334 -106.333 56.001 -163c3.33301 -14.667 6.5 -29.334 9.5 -44.001s5.5 -29.667 7.5 -45s3.66699 -30.666 5 -45.999s2 -31.333 2 -48
c0 -16 -0.5 -32.167 -1.5 -48.5s-2.83301 -33.166 -5.5 -50.499c-6 -35.333 -15.333 -69.333 -28 -102c-14.667 -35.333 -32.667 -68.666 -54 -99.999c-11.333 -15.333 -23.833 -30.333 -37.5 -45s-28.167 -28.334 -43.5 -41.001s-31.333 -24 -48 -34
s-33.667 -19.333 -51 -28c-17.333 -8 -35 -15.167 -53 -21.5s-35.667 -11.5 -53 -15.5c-36 -9.33301 -71.333 -15.333 -106 -18c-17.333 -1.33301 -34.5 -2.16602 -51.5 -2.49902s-33.833 -0.166016 -50.5 0.500977c-33.333 1.33301 -66 4.33301 -98 9
c-8 1.33301 -16 2.5 -24 3.5s-16 2.16699 -24 3.5c-3.33301 1.33301 -7 2.16602 -11 2.49902s-8 1.16602 -12 2.49902l-12 2l-6 2h-3l-2 1c-27.333 5.33301 -52 15.666 -74 30.999s-40.333 34 -55 56s-24.667 46.167 -30 72.5s-5.33301 53.166 0 80.499
c6 27.333 16.667 52 32 74s33.833 40.333 55.5 55s45.667 24.667 72 30s53.166 5.33301 80.499 0c7.33301 -1.33301 14.333 -3.16602 21 -5.49902s13.334 -4.83301 20.001 -7.5zM236.001 459c0 -11.333 4 -21.833 12 -31.5s19 -18 33 -25s30.167 -12.667 48.5 -17
s38.166 -6.5 59.499 -6.5s41.333 2.16699 60 6.5s35 10 49 17s25 15.333 33 25s12 20.167 12 31.5c0 10.667 -4 21 -12 31s-19 18.5 -33 25.5s-30.333 12.667 -49 17s-38.667 6.5 -60 6.5s-41.166 -2.16699 -59.499 -6.5s-34.5 -10 -48.5 -17s-25 -15.5 -33 -25.5
s-12 -20.333 -12 -31z" />
    <glyph glyph-name="h" unicode="h" horiz-adv-x="873" 
d="M371 776l39.0039 -705.001c1.33301 -30 -2.83398 -58.333 -12.501 -85s-23.834 -50.334 -42.501 -71.001s-40.667 -37.334 -66 -50.001s-53 -20 -83 -22c-30 -1.33301 -58.333 2.83398 -85 12.501s-50.334 23.834 -71.001 42.501s-37.334 40.667 -50.001 66
s-20 53 -22 83c-1.33301 21.333 0.666992 42 6 62l162 687c4 15.333 10.5 29 19.5 41s19.667 21.833 32 29.5s26 12.834 41 15.501s30.167 2.33398 45.5 -0.999023c25.333 -6 45.833 -18.833 61.5 -38.5s24.167 -41.834 25.5 -66.501zM183.004 457.999l9.99805 10.001
c2 1.33301 3.83301 2.83301 5.5 4.5s3.5 3.16699 5.5 4.5c3.33301 3.33301 6.83301 6.5 10.5 9.5s7.16699 6.16699 10.5 9.5l22.5 16.5c7.66699 5.66699 15.5 11.167 23.5 16.5s16.167 10.5 24.5 15.5s16.833 9.83301 25.5 14.5c19.333 10 38.333 17.667 57 23
c20 7.33301 41.333 12.333 64 15c11.333 1.33301 23 2.16602 35 2.49902s24 -0.166992 36 -1.5c25.333 -3.33301 50 -9.33301 74 -18c12 -4.66699 23.667 -10 35 -16s22.333 -12.667 33 -20c22 -16 41 -32.333 57 -49c16.667 -17.333 32 -35.666 46 -54.999l36 -57
c5.33301 -9.33301 10.333 -19 15 -29l14 -29c9.33301 -19.333 17.5 -38.666 24.5 -57.999l20.5 -58c6 -19.333 11.667 -38.5 17 -57.5s10.333 -38.167 15 -57.5l2 -9c6 -25.333 6.83301 -50.5 2.5 -75.5s-12.833 -47.833 -25.5 -68.5s-29.167 -38.5 -49.5 -53.5
s-43.166 -25.5 -68.499 -31.5s-50.5 -7 -75.5 -3s-47.833 12.5 -68.5 25.5s-38.667 29.5 -54 49.5s-26 43 -32 69c-3.33301 11.333 -5 23.166 -5 35.499s0.666992 24.166 2 35.499c2 15.333 3.83301 30.5 5.5 45.5s3.16699 29.833 4.5 44.5
c1.33301 15.333 2 30.166 2 44.499s-0.333008 28.166 -1 41.499c-1.33301 28 -4.33301 54 -9 78l-4 16l-4 16c-3.33301 10 -7.33301 19.333 -12 28c-5.33301 10 -10.666 18 -15.999 24c-3.33301 3.33301 -6.83301 6.5 -10.5 9.5s-7.83398 5.83301 -12.501 8.5
c-10 6.66699 -20.333 11.334 -31 14.001l-18.5 4c-6.33301 1.33301 -13.166 2.33301 -20.499 3c-27.333 2 -57.333 -0.666992 -90 -8c-16 -3.33301 -31.667 -7.33301 -47 -12c-3.33301 -1.33301 -7 -2.66602 -11 -3.99902l-12 -4
c-2 -1.33301 -3.83301 -2.16602 -5.5 -2.49902s-3.5 -1.16602 -5.5 -2.49902l-6 -2c-2 -0.666992 -3.66699 -1.33398 -5 -2.00098l-2 -1c-8 -3.33301 -16 -3.33301 -24 0s-13.667 8.66602 -17 15.999c-5.33301 13.333 -3 25 7 35z" />
    <glyph glyph-name="i" unicode="i" horiz-adv-x="373" 
d="M284 529l89 -504c4 -22.667 3 -44.5 -3 -65.5s-15.667 -40.167 -29 -57.5s-30 -31.833 -50 -43.5s-42.333 -19.5 -67 -23.5s-48.5 -3.33301 -71.5 2s-43.833 14.166 -62.5 26.499s-34.334 27.833 -47.001 46.5s-21 39.334 -25 62.001c-1.33301 9.33301 -2 18.5 -2 27.5
s0.666992 17.5 2 25.5l89 504c4 22.667 15.833 40.5 35.5 53.5s42.167 17.833 67.5 14.5c19.333 -2.66699 35.833 -10.5 49.5 -23.5s21.834 -27.833 24.501 -44.5zM307 673c0 -14 -3 -27.333 -9 -40s-14 -23.667 -24 -33s-21.833 -16.666 -35.5 -21.999s-28.167 -8 -43.5 -8
s-29.833 2.66699 -43.5 8s-25.5 12.666 -35.5 21.999s-18 20.333 -24 33s-9 26 -9 40c0 14.667 3 28.334 9 41.001s14 23.667 24 33s21.833 16.666 35.5 21.999s28.167 8 43.5 8s29.833 -2.66699 43.5 -8s25.5 -12.666 35.5 -21.999s18 -20.333 24 -33s9 -26.334 9 -41.001z
" />
    <glyph glyph-name="j" unicode="j" horiz-adv-x="365" 
d="M-263 -230l4.00195 1.00293l4 1l7 1l15 3l30 6l27.5 7.5c9 2.33301 18.167 5.16602 27.5 8.49902c35.333 10.667 67.666 25 96.999 43c28.667 17.333 52.667 37.666 72 60.999c4.66699 6 9.33398 12.5 14.001 19.5s9 14.167 13 21.5s7.5 14.833 10.5 22.5l9.5 25.5
c12 34 19 72.667 21 116c1.33301 21.333 1.5 43 0.5 65s-2.83301 44.333 -5.5 67s-6 45.5 -10 68.5s-8.66699 46.167 -14 69.5s-11.333 46.5 -18 69.5l-21 69.5c-6 19.333 -4.5 37.833 4.5 55.5s23.167 29.5 42.5 35.5c16.667 5.33301 32.834 4.83301 48.501 -1.5
s27.5 -16.833 35.5 -31.5c13.333 -22.667 26 -45.5 38 -68.5l35 -69.5c11.333 -24 22.166 -48.333 32.499 -73s20.166 -49.667 29.499 -75c9.33301 -26 17.5 -52.5 24.5 -79.5s13.167 -54.833 18.5 -83.5c2 -14.667 3.83301 -29.167 5.5 -43.5s3.16699 -29.166 4.5 -44.499
c0.666992 -15.333 0.833984 -30.666 0.500977 -45.999s-1.16602 -31 -2.49902 -47s-3.33301 -32 -6 -48s-6 -32 -10 -48c-4 -16.667 -8.83301 -33 -14.5 -49s-12.167 -31.667 -19.5 -47s-15.333 -30.5 -24 -45.5s-18 -29.833 -28 -44.5c-19.333 -26.667 -41 -52.667 -65 -78
c-24 -24 -49 -46 -75 -66c-12.667 -10 -25.667 -19.333 -39 -28l-40 -26l-40 -23c-13.333 -7.33301 -27 -14.333 -41 -21c-6.66699 -3.33301 -13.334 -6.5 -20.001 -9.5s-13.334 -6.16699 -20.001 -9.5l-21 -9l-10 -5l-5 -2l-5 -2c-26 -11.333 -52.333 -16.833 -79 -16.5
s-52.167 5.16602 -76.5 14.499s-46.333 23.333 -66 42s-34.834 41 -45.501 67c-11.333 26 -17 52.333 -17 79s4.83301 52.167 14.5 76.5s23.667 46.166 42 65.499s40.5 34.666 66.5 45.999c7.33301 3.33301 14.5 6 21.5 8s14.167 3.66699 21.5 5zM149.002 660.003
c0 -27.333 -9.5 -50.5 -28.5 -69.5s-42.5 -28.5 -70.5 -28.5c-27.333 0 -50.5 9.5 -69.5 28.5s-28.5 42.167 -28.5 69.5c0 28 9.5 51.5 28.5 70.5s42.167 28.5 69.5 28.5c28 0 51.5 -9.5 70.5 -28.5s28.5 -42.5 28.5 -70.5z" />
    <glyph glyph-name="k" unicode="k" horiz-adv-x="882" 
d="M378 776l39.0039 -705.001c1.33301 -30 -2.83398 -58.333 -12.501 -85s-23.834 -50.334 -42.501 -71.001s-40.667 -37.334 -66 -50.001s-53 -20 -83 -22c-30 -1.33301 -58.333 2.83398 -85 12.501s-50.334 23.834 -71.001 42.501s-37.334 40.667 -50.001 66
s-20 53 -22 83c-1.33301 21.333 0.666992 42 6 62l162 687c4 15.333 10.5 29 19.5 41s19.667 21.833 32 29.5s26 12.834 41 15.501s30.167 2.33398 45.5 -0.999023c25.333 -6 45.833 -18.833 61.5 -38.5s24.167 -41.834 25.5 -66.501zM110.004 308.999l559.001 311.003
c16 9.33301 32.667 11.333 50 6s30.666 -16 39.999 -32c7.33301 -12 10.166 -24.833 8.49902 -38.5s-6.5 -25.5 -14.5 -35.5l-401 -498c-16.667 -20.667 -36.167 -36.834 -58.5 -48.501s-45.666 -18.834 -69.999 -21.501s-48.666 -0.666992 -72.999 6
s-46.833 18.334 -67.5 35.001s-36.834 36.167 -48.501 58.5s-18.834 45.666 -21.501 69.999s-0.666992 48.666 6 72.999s18.334 46.833 35.001 67.5c16 20 34.667 35.667 56 47zM429.005 389.002l341.001 -139.006c26.667 -11.333 49.5 -26.833 68.5 -46.5
s33.667 -41.667 44 -66s15.833 -50.166 16.5 -77.499s-4.33301 -54.333 -15 -81c-11.333 -26.667 -26.833 -49.5 -46.5 -68.5s-41.667 -33.667 -66 -44s-50.166 -15.666 -77.499 -15.999s-54.333 4.83398 -81 15.501c-15.333 6.66699 -29.833 15 -43.5 25
s-25.834 21 -36.501 33l-238 282c-10 12.667 -17.333 26.334 -22 41.001s-6.33398 29.5 -5.00098 44.5s5.5 29.333 12.5 43s16.5 25.834 28.5 36.501c17.333 14.667 36.833 23.334 58.5 26.001s42.167 0 61.5 -8z" />
    <glyph glyph-name="l" unicode="l" horiz-adv-x="466" 
d="M402 776l39.0039 -705.001c1.33301 -30 -2.83398 -58.333 -12.501 -85s-23.834 -50.334 -42.501 -71.001s-40.667 -37.334 -66 -50.001s-53 -20 -83 -22c-30 -1.33301 -58.333 2.83398 -85 12.501s-50.334 23.834 -71.001 42.501s-37.334 40.667 -50.001 66
s-20 53 -22 83c-1.33301 21.333 0.666992 42 6 62l162 687c4 15.333 10.5 29 19.5 41s19.667 21.833 32 29.5s26 12.834 41 15.501s30.167 2.33398 45.5 -0.999023c25.333 -6 45.833 -18.833 61.5 -38.5s24.167 -41.834 25.5 -66.501z" />
    <glyph glyph-name="m" unicode="m" horiz-adv-x="1086" 
d="M323 553l13.001 -519.997c0.666992 -24.667 -3.33301 -47.834 -12 -69.501s-20.834 -40.834 -36.501 -57.501s-34.167 -29.834 -55.5 -39.501s-44.333 -14.834 -69 -15.501s-47.834 3.33301 -69.501 12s-40.667 20.834 -57 36.501s-29.5 34.167 -39.5 55.5
s-15.333 44.333 -16 69c-0.666992 10 -0.166992 19.833 1.5 29.5s3.83398 19.167 6.50098 28.5l158 496c4 12 9.83301 22.5 17.5 31.5s16.667 16.167 27 21.5s21.333 8.66602 33 9.99902s23.5 0 35.5 -4c19.333 -6 34.5 -16.667 45.5 -32s16.833 -32.666 17.5 -51.999z
M554.001 475.003l5.99707 4.99902c1.33301 0.666992 2.33301 1.33398 3 2.00098s1.66699 1.33398 3 2.00098c1.33301 1.33301 3 2.5 5 3.5s3.66699 2.16699 5 3.5c3.33301 2.66699 6.83301 5.16699 10.5 7.5s7.5 4.5 11.5 6.5c7.33301 4.66699 15 8.83398 23 12.501
s16.333 7.16699 25 10.5s17.5 6.16602 26.5 8.49902s18.5 4.16602 28.5 5.49902s20.167 2.16602 30.5 2.49902s20.833 -0.166992 31.5 -1.5c11.333 -1.33301 22.333 -3.33301 33 -6s21.334 -6 32.001 -10c20.667 -8 40 -18.667 58 -32c17.333 -12 33 -25.667 47 -41
c7.33301 -7.33301 14 -14.833 20 -22.5l17 -22.5c21.333 -30.667 39.333 -61.334 54 -92.001c7.33301 -15.333 14.166 -30.666 20.499 -45.999s12.166 -30.666 17.499 -45.999s10.166 -30.5 14.499 -45.5s8.5 -30.167 12.5 -45.5c8 -28.667 15 -58.334 21 -89.001l2 -9
c5.33301 -26 5.5 -51.333 0.5 -76s-14.167 -47.167 -27.5 -67.5s-30.333 -37.833 -51 -52.5s-44 -24.667 -70 -30s-51.333 -5.5 -76 -0.5s-47.167 14.333 -67.5 28s-37.833 30.667 -52.5 51s-24.667 43.5 -30 69.5c-4.66699 24.667 -5 49 -1 73
c8.66699 48 14.667 94.667 18 140c0.666992 11.333 1.16699 22.333 1.5 33s0.166016 21 -0.500977 31c-1.33301 20.667 -3.33301 39.667 -6 57c-1.33301 4 -2.16602 8 -2.49902 12s-1.16602 7.66699 -2.49902 11s-2.33301 6.5 -3 9.5s-1.66699 6.16699 -3 9.5
c-1.33301 2.66699 -2.66602 5.16699 -3.99902 7.5s-2.66602 4.5 -3.99902 6.5c-1.33301 3.33301 -4.66602 7.66602 -9.99902 12.999c-2.66699 1.33301 -5.5 2.83301 -8.5 4.5s-6.16699 3.16699 -9.5 4.5s-7 2.33301 -11 3s-8.33301 1.33398 -13 2.00098
s-9.33398 0.833984 -14.001 0.500977s-9.66699 -0.833008 -15 -1.5c-2.66699 -0.666992 -5.16699 -1 -7.5 -1s-4.83301 -0.333008 -7.5 -1c-1.33301 -0.666992 -2.66602 -1 -3.99902 -1s-2.66602 -0.333008 -3.99902 -1l-3 -1h-3l-39 5
c-15.333 2 -27.833 9.16699 -37.5 21.5s-13.5 26.5 -11.5 42.5c2 14.667 9 27 21 37zM189.998 474.002l6.00488 4.99512c1.33301 0.666992 2.16602 1.33398 2.49902 2.00098s1.16602 1.33398 2.49902 2.00098c2 1.33301 3.83301 2.5 5.5 3.5s3.16699 2.16699 4.5 3.5
c3.33301 2.66699 6.83301 5.16699 10.5 7.5s7.5 4.5 11.5 6.5c15.333 10 30.666 17.667 45.999 23c17.333 7.33301 35 13 53 17c9.33301 1.33301 19.166 2.5 29.499 3.5s21.166 0.833008 32.499 -0.5c20.667 -0.666992 42.667 -5.33398 66 -14.001
c22.667 -9.33301 42.667 -20.666 60 -33.999c8.66699 -7.33301 16.834 -14.666 24.501 -21.999s14.834 -15 21.501 -23s12.667 -16 18 -24l16 -24l13.5 -25c4.33301 -8 8.16602 -16 11.499 -24l10 -24c3.33301 -8 6.33301 -16 9 -24c6 -16 11.167 -31.833 15.5 -47.5
l12.5 -46.5c3.33301 -15.333 6.33301 -30.666 9 -45.999l8 -46c4.66699 -30 8.66699 -60 12 -90v-5c2 -22 -0.166992 -43.333 -6.5 -64s-16 -39 -29 -55s-28.833 -29.167 -47.5 -39.5s-39 -16.833 -61 -19.5c-22 -2 -43.333 0.166992 -64 6.5s-39 16 -55 29
s-29.333 29 -40 48s-17 39.5 -19 61.5c-2 15.333 -1.33301 31.333 2 48c2.66699 12.667 5 25 7 37l6 36l4 36l4 35c0.666992 12 1.16699 23.5 1.5 34.5s0.166016 22.167 -0.500977 33.5c0 21.333 -2 40.666 -6 57.999c-1.33301 8.66699 -3.33301 16.334 -6 23.001
c-1.33301 3.33301 -2.33301 6.33301 -3 9s-1.66699 5.33398 -3 8.00098l-3.5 7c-1 2 -2.16699 4 -3.5 6c-1.33301 1.33301 -3 2.83301 -5 4.5s-4.33301 3.16699 -7 4.5c-6 4 -12.667 6.33301 -20 7c-4 0.666992 -8.16699 1.16699 -12.5 1.5
s-9.16602 0.166016 -14.499 -0.500977l-14.5 -2c-5 -0.666992 -10.167 -1.66699 -15.5 -3c-6.66699 -1.33301 -11.667 -2.66602 -15 -3.99902c-4 -1.33301 -6.66699 -2 -8 -2l-4 -2h-2l-20 -4c-16.667 -3.33301 -32 -0.333008 -46 9s-22.667 22.333 -26 39
c-2.66699 11.333 -1.83398 22.333 2.49902 33s10.833 19.667 19.5 27z" />
    <glyph glyph-name="n" unicode="n" horiz-adv-x="767" 
d="M309 553l13.999 -519.996c0.666992 -24.667 -3.5 -47.834 -12.5 -69.501s-21.167 -40.834 -36.5 -57.501s-33.666 -29.834 -54.999 -39.501s-44.333 -14.834 -69 -15.501s-48 3.33301 -70 12s-41.167 20.834 -57.5 36.501s-29.5 34.167 -39.5 55.5s-15.333 44.333 -16 69
c0 19.333 2.66699 38.666 8 57.999l158 496c4 12 9.83301 22.5 17.5 31.5s16.667 16.167 27 21.5s21.333 8.66602 33 9.99902s23.5 0 35.5 -4c19.333 -6 34.5 -16.667 45.5 -32s16.833 -32.666 17.5 -51.999zM188.999 458.004l0.00390625 0.998047h1v1h1v1h1l2 3l5 5
c1.33301 1.33301 3 2.83301 5 4.5s3.66699 3.16699 5 4.5c3.33301 3.33301 6.66602 6.5 9.99902 9.5s6.66602 5.83301 9.99902 8.5l22 17.5l22 16.5l24 15.5c8 5 16.667 9.83301 26 14.5s18.833 8.83398 28.5 12.501s20.167 6.83398 31.5 9.50098
c5.33301 1.33301 11 2.66602 17 3.99902s12 2.33301 18 3c13.333 2 26.333 2.66699 39 2c12 0 25.667 -1.66699 41 -5c6.66699 -1.33301 13.334 -3 20.001 -5s13.667 -4.66699 21 -8c12 -5.33301 24.667 -12 38 -20c10.667 -7.33301 21.667 -16 33 -26
s20.666 -19.667 27.999 -29l11.5 -15c3.66699 -4.66699 7.16699 -9.66699 10.5 -15c7.33301 -9.33301 13.5 -19 18.5 -29l15.5 -30c9.33301 -20 17 -39.333 23 -58c7.33301 -19.333 13.333 -38.166 18 -56.499s9 -36.5 13 -54.5s7.33301 -36 10 -54l8 -53
c2.66699 -17.333 4.83398 -34.833 6.50098 -52.5s3.16699 -35.167 4.5 -52.5v-5c2 -25.333 -0.833008 -49.333 -8.5 -72s-19.167 -42.834 -34.5 -60.501s-33.666 -32.167 -54.999 -43.5s-44.666 -18 -69.999 -20s-49.5 0.833008 -72.5 8.5s-43.333 19.167 -61 34.5
s-32.167 33.666 -43.5 54.999s-18 44.666 -20 69.999c-0.666992 18.667 1 37.334 5 56.001c6.66699 28.667 12.667 56.667 18 84c5.33301 28.667 9.33301 56 12 82c1.33301 13.333 2.33301 26.333 3 39s1 25 1 37v17c0 5.33301 -0.333008 10.666 -1 15.999
s-1.33398 10.333 -2.00098 15s-1.33398 8.66699 -2.00098 12c-0.666992 4 -1.33398 7.66699 -2.00098 11s-1.33398 6 -2.00098 8s-1 4.33301 -1 7c-0.666992 0.666992 -1 1.33398 -1 2.00098s-0.333008 1.66699 -1 3c0 0.666992 -0.666992 2.33398 -2 5.00098
c-2 2 -3.66699 3.33301 -5 4c-4.66699 3.33301 -11.667 5.66602 -21 6.99902c-10.667 1.33301 -21 1 -31 -1c-6 -0.666992 -12 -1.66699 -18 -3s-12.333 -2.66602 -19 -3.99902l-18.5 -6c-6.33301 -2 -12.833 -4.66699 -19.5 -8
c-3.33301 -1.33301 -6.5 -2.66602 -9.5 -3.99902s-6.16699 -2.66602 -9.5 -3.99902c-1.33301 -0.666992 -2.83301 -1.33398 -4.5 -2.00098s-3.16699 -1.33398 -4.5 -2.00098l-4 -3l-2 -1h-1h-1v-1c-15.333 -9.33301 -31.5 -11.666 -48.5 -6.99902s-29.833 14.667 -38.5 30
c-7.33301 12 -10.333 24.833 -9 38.5s6.66602 25.5 15.999 35.5z" />
    <glyph glyph-name="o" unicode="o" horiz-adv-x="795" 
d="M394 640c54.667 0 106.167 -10.333 154.5 -31s90.5 -49 126.5 -85s64.333 -78.167 85 -126.5s31 -99.833 31 -154.5s-10.333 -106 -31 -154s-49 -90 -85 -126s-78.167 -64.333 -126.5 -85s-99.833 -31 -154.5 -31s-106 10.333 -154 31s-90 49 -126 85s-64.333 78 -85 126
s-31 99.333 -31 154s10.333 106.167 31 154.5s49 90.5 85 126.5s78 64.333 126 85s99.333 31 154 31zM408 294c21.333 0 41.333 2.66699 60 8s35 12.666 49 21.999s25 20.333 33 33s12 26 12 40s-4 27.333 -12 40s-19 23.667 -33 33s-30.333 16.666 -49 21.999
s-38.667 8 -60 8s-41.166 -2.66699 -59.499 -8s-34.5 -12.666 -48.5 -21.999s-25 -20.333 -33 -33s-12 -26 -12 -40s4 -27.333 12 -40s19 -23.667 33 -33s30.167 -16.666 48.5 -21.999s38.166 -8 59.499 -8z" />
    <glyph glyph-name="p" unicode="p" horiz-adv-x="909" 
d="M516 640c54.667 0 106.167 -10.333 154.5 -31s90.5 -49 126.5 -85s64.333 -78.167 85 -126.5s31 -99.833 31 -154.5s-10.333 -106 -31 -154s-49 -90 -85 -126s-78.167 -64.333 -126.5 -85s-99.833 -31 -154.5 -31s-106 10.333 -154 31s-90 49 -126 85s-64.333 78 -85 126
s-31 99.333 -31 154s10.333 106.167 31 154.5s49 90.5 85 126.5s78 64.333 126 85s99.333 31 154 31zM530 294c21.333 0 41.333 2.66699 60 8s35 12.666 49 21.999s25 20.333 33 33s12 26 12 40s-4 27.333 -12 40s-19 23.667 -33 33s-30.333 16.666 -49 21.999
s-38.667 8 -60 8s-41.166 -2.66699 -59.499 -8s-34.5 -12.666 -48.5 -21.999s-25 -20.333 -33 -33s-12 -26 -12 -40s4 -27.333 12 -40s19 -23.667 33 -33s30.167 -16.666 48.5 -21.999s38.166 -8 59.499 -8zM381 -180c1.33301 -30 -2.83008 -58.334 -12.4971 -85.001
s-23.834 -50.334 -42.501 -71.001s-40.667 -37.334 -66 -50.001s-53 -20 -83 -22c-30 -1.33301 -58.333 2.83398 -85 12.501s-50.334 23.834 -71.001 42.501s-37.334 40.667 -50.001 66s-20 53 -22 83c-1.33301 21.333 0.666992 42 6 62l162 687c4 15.333 10.5 29 19.5 41
s19.667 21.833 32 29.5s26 12.834 41 15.501s30.167 2.33398 45.5 -0.999023c25.333 -6 45.833 -18.833 61.5 -38.5s24.167 -41.834 25.5 -66.501z" />
    <glyph glyph-name="q" unicode="q" horiz-adv-x="891" 
d="M398 644c54.667 0 106.167 -10.333 154.5 -31s90.5 -49 126.5 -85s64.333 -78.167 85 -126.5s31 -99.833 31 -154.5s-10.333 -106 -31 -154s-49 -90 -85 -126s-78.167 -64.333 -126.5 -85s-99.833 -31 -154.5 -31s-106 10.333 -154 31s-90 49 -126 85s-64.333 78 -85 126
s-31 99.333 -31 154s10.333 106.167 31 154.5s49 90.5 85 126.5s78 64.333 126 85s99.333 31 154 31zM412 298c21.333 0 41.333 2.66699 60 8s35 12.666 49 21.999s25 20.333 33 33s12 26 12 40s-4 27.333 -12 40s-19 23.667 -33 33s-30.333 16.666 -49 21.999
s-38.667 8 -60 8s-41.166 -2.66699 -59.499 -8s-34.5 -12.666 -48.5 -21.999s-25 -20.333 -33 -33s-12 -26 -12 -40s4 -27.333 12 -40s19 -23.667 33 -33s30.167 -16.666 48.5 -21.999s38.166 -8 59.499 -8zM963 -142c6.66699 -29.333 7.50098 -58.0029 2.50098 -86.0029
s-14.667 -53.833 -29 -77.5s-33 -44 -56 -61s-49.167 -28.833 -78.5 -35.5c-29.333 -7.33301 -58 -8.5 -86 -3.5s-53.667 14.833 -77 29.5s-43.666 33.334 -60.999 56.001s-29.333 48.667 -36 78c-4 22.667 -5.66699 43.334 -5 62.001l38 705
c0.666992 16 4.5 30.667 11.5 44s16 24.833 27 34.5s23.5 17 37.5 22s29 7.16699 45 6.5c25.333 -1.33301 47.666 -10.166 66.999 -26.499s31.666 -36.5 36.999 -60.5z" />
    <glyph glyph-name="r" unicode="r" horiz-adv-x="680" 
d="M7 91l101.001 455c2.66699 11.333 7.33398 21.666 14.001 30.999s14.5 16.833 23.5 22.5s19.167 9.66699 30.5 12s22.666 2.16602 33.999 -0.500977c14 -3.33301 26.167 -9.33301 36.5 -18s18.166 -19 23.499 -31l189 -425c13.333 -30 20.166 -61 20.499 -93
s-5 -62.333 -16 -91s-27.167 -54.667 -48.5 -78s-47 -41.666 -77 -54.999s-61 -20.166 -93 -20.499s-62.333 5 -91 16s-54.667 27.333 -78 49s-41.666 47.5 -54.999 77.5c-10.667 24.667 -17 49.667 -19 75s-0.333008 50 5 74zM480.001 343
c0.666992 -0.666992 0.99707 -0.671875 0.99707 -0.00488281v2v5c0 1.33301 -0.166992 3 -0.5 5s-0.5 3.66699 -0.5 5l-2 10.5c-0.666992 3.66699 -1.66699 7.16699 -3 10.5c-0.666992 3.33301 -1.33398 6.33301 -2.00098 9s-1.66699 5.66699 -3 9
c-2.66699 6.66699 -4.66699 11.334 -6 14.001l-5 10c-2.66699 4 -5 7 -7 9s-5.66699 4 -11 6c-6.66699 1.33301 -12.667 2 -18 2c-6.66699 0 -14 -1 -22 -3c-4.66699 -1.33301 -9 -2.66602 -13 -3.99902s-8.33301 -2.66602 -13 -3.99902
c-18 -7.33301 -35.667 -16.333 -53 -27c-9.33301 -5.33301 -18.166 -11 -26.499 -17l-26.5 -19c-17.333 -13.333 -34.333 -27.333 -51 -42c-6 -5.33301 -13 -7.66602 -21 -6.99902s-14.667 4 -20 10c-8.66699 10 -9.66699 21 -3 33c10.667 20 22.667 40 36 60l20.5 30
c7 10 14.167 19.667 21.5 29l25 28c8.66699 9.33301 18 18.666 28 27.999c11.333 10 22.333 18.667 33 26c12 8.66699 25 16.334 39 23.001c12.667 6 28.334 11.333 47.001 16c19.333 4 38 5.66699 56 5c20.667 -2 40 -6 58 -12
c9.33301 -3.33301 18.333 -7.16602 27 -11.499s17 -9.16602 25 -14.499c16 -10.667 29.667 -21.667 41 -33c6.66699 -6 12.667 -12 18 -18l16 -18c10 -13.333 19 -26.333 27 -39c4.66699 -7.33301 8.66699 -14.333 12 -21c1.33301 -2 3.33301 -5.66699 6 -11l3 -6
c0.666992 -0.666992 1 -1.16699 1 -1.5s0.333008 -0.833008 1 -1.5v-2l1 -1v-1c8 -15.333 12.5 -31.333 13.5 -48s-1 -32.5 -6 -47.5s-12.833 -28.833 -23.5 -41.5s-23.667 -23 -39 -31s-31.166 -12.5 -47.499 -13.5s-32.166 1 -47.499 6s-29.333 12.667 -42 23
s-23 23.166 -31 38.499c-6.66699 13.333 -11 27.333 -13 42v1z" />
    <glyph glyph-name="s" unicode="s" horiz-adv-x="855" 
d="M602 435c0 0.666992 0.166992 0.661133 0.5 -0.00585938s0.5 -0.666992 0.5 0v-1l-1 1l-3 3c-2.66699 2.66699 -4.66699 4.33398 -6 5.00098c-1.33301 1.33301 -2.5 2.33301 -3.5 3s-2.16699 1.66699 -3.5 3c-4 2.66699 -7 4.33398 -9 5.00098
c-11.333 7.33301 -23.666 13 -36.999 17c-27.333 8 -56.666 11 -87.999 9c-2 0 -4 -0.166992 -6 -0.5s-4 -0.5 -6 -0.5l-12 -1c-2 -0.666992 -4 -1 -6 -1s-4 -0.333008 -6 -1c-2 0 -3.83301 -0.166992 -5.5 -0.5s-3.5 -0.5 -5.5 -0.5
c-18 -3.33301 -29 -6.66602 -33 -9.99902s-4.33301 -6.16602 -1 -8.49902s8.66602 -4.5 15.999 -6.5s13.333 -3 18 -3c9.33301 -2.66699 18.666 -5 27.999 -7l28 -6c9.33301 -2.66699 18.666 -5.16699 27.999 -7.5l29 -7.5c9.33301 -2.66699 18.833 -5.16699 28.5 -7.5
s19.834 -5.16602 30.501 -8.49902l30.5 -10.5l32.5 -11.5l33 -15c11.333 -5.33301 23 -11.666 35 -18.999c12.667 -7.33301 25 -15.666 37 -24.999l18.5 -16c6.33301 -5.33301 12.5 -11.333 18.5 -18c11.333 -11.333 22.333 -26 33 -44
c10.667 -17.333 19 -34.666 25 -51.999c3.33301 -9.33301 6.16602 -18.333 8.49902 -27s4.16602 -17.667 5.49902 -27c2 -9.33301 3 -18 3 -26c0 -2.66699 0.166992 -5 0.5 -7s0.5 -4 0.5 -6v-1v-1v-1v-1v-3v-3c0 -4.66699 -0.333008 -8 -1 -10
c-1.33301 -16.667 -3.66602 -31.334 -6.99902 -44.001l-8 -21.5c-2.66699 -7 -5.66699 -13.833 -9 -20.5c-7.33301 -13.333 -15.333 -25.333 -24 -36c-7.33301 -8.66699 -16 -17.667 -26 -27c-8.66699 -8 -17.167 -14.833 -25.5 -20.5s-16.5 -10.834 -24.5 -15.501
c-14.667 -8 -30 -15.333 -46 -22l-21 -7.5c-6.66699 -2.33301 -13.334 -4.16602 -20.001 -5.49902c-6.66699 -2 -13.167 -3.83301 -19.5 -5.5s-12.5 -3.16699 -18.5 -4.5c-12.667 -2.66699 -24.834 -4.83398 -36.501 -6.50098s-23.167 -3.16699 -34.5 -4.5
s-22.5 -2.33301 -33.5 -3s-22.167 -1 -33.5 -1c-5.33301 -0.666992 -10.833 -1 -16.5 -1h-16.5h-8h-2h-2h-1h-1h-3h-10.5c-3.66699 0 -7.16699 0.333008 -10.5 1l-39 4c-12.667 1.33301 -25 3.33301 -37 6c-24 5.33301 -46.667 11.333 -68 18
c-22 7.33301 -42.667 15.333 -62 24c-10.667 4 -20.834 8.16699 -30.501 12.5s-19.5 9.16602 -29.5 14.499l-14 8l-14 8c-2.66699 1.33301 -5.16699 2.83301 -7.5 4.5l-6.5 4.5l-4 2l-4 2l-4 3l-2 1l-1 1l-1 1c-18.667 10 -34.167 22.833 -46.5 38.5
s-21.333 32.834 -27 51.501s-7.66699 38 -6 58s7.5 39.333 17.5 58s22.833 34.167 38.5 46.5s32.834 21.333 51.501 27s38 7.66699 58 6s39.333 -7.5 58 -17.5h1c0.666992 0 1.16699 -0.166992 1.5 -0.5s0.833008 -0.5 1.5 -0.5c1.33301 -0.666992 2.16602 -1 2.49902 -1
s1.16602 -0.333008 2.49902 -1l11 -4l23 -7c7.33301 -3.33301 14.833 -6.16602 22.5 -8.49902s15.167 -4.83301 22.5 -7.5c7.33301 -2 14.5 -4.16699 21.5 -6.5s14.167 -4.5 21.5 -6.5l21 -6c6.66699 -2 13.334 -3.66699 20.001 -5s13 -2.5 19 -3.5s11.667 -1.83301 17 -2.5
c1.33301 0 2.5 -0.166992 3.5 -0.5s2.16699 -0.5 3.5 -0.5h1h1h1h2l6 -1c13.333 2.66699 21.5 5.33398 24.5 8.00098s2.5 5.5 -1.5 8.5s-10.333 6 -19 9s-17.334 5.66699 -26.001 8s-16.667 4.33301 -24 6s-11.333 2.83398 -12 3.50098l-25.5 10
c-8.33301 3.33301 -17.166 6.66602 -26.499 9.99902l-26 10l-27 10l-14.5 5.5l-14.5 5.5c-5.33301 2.66699 -10.5 5 -15.5 7s-10.5 4.33301 -16.5 7l-18 9l-10.5 6l-12.5 7l-12.5 10c-4.33301 3.33301 -9.16602 7.33301 -14.499 12c-2.66699 2 -5.16699 4.33301 -7.5 7
l-7.5 9c-2 3.33301 -4.16699 6.66602 -6.5 9.99902s-4.5 6.66602 -6.5 9.99902c-4 7.33301 -7.66699 14.666 -11 21.999c-3.33301 8 -5.33301 15.333 -6 22c-2 6.66699 -3 13 -3 19c0 1.33301 -0.166992 2.83301 -0.5 4.5s-0.5 3.16699 -0.5 4.5v4v4v1v3v4
c0 1.33301 0.166992 2.66602 0.5 3.99902s0.5 2.66602 0.5 3.99902c0 3.33301 0.666992 8.33301 2 15c0.666992 5.33301 1.66699 10.333 3 15l4 14c1.33301 4.66699 3 9.16699 5 13.5l6 13.5c4 7.33301 8.66699 15 14 23c2.66699 4 5.33398 7.66699 8.00098 11l8 10
c6 6.66699 12 12.667 18 18c12.667 10.667 25.667 19.667 39 27c6.66699 4 13.167 7.5 19.5 10.5l18.5 8.5c26 8.66699 51 14.667 75 18c12 1.33301 23.5 2.33301 34.5 3s22.167 1 33.5 1s22.333 -0.333008 33 -1s21.667 -1.66699 33 -3c22 -3.33301 44 -7.33301 66 -12
c5.33301 -1.33301 10.833 -2.83301 16.5 -4.5s11.167 -3.5 16.5 -5.5l16.5 -6c5.66699 -2 11.167 -4.33301 16.5 -7c22 -10.667 42.667 -22.667 62 -36c4.66699 -3.33301 9.33398 -7 14.001 -11s9.33398 -8.33301 14.001 -13l14 -14
c1.33301 -1.33301 2.33301 -2.66602 3 -3.99902s1.66699 -2.66602 3 -3.99902c2 -2 3.33301 -3.66699 4 -5c0.666992 -0.666992 1 -1.16699 1 -1.5s0.333008 -0.833008 1 -1.5l1 -1l1 -1l1 -1c9.33301 -15.333 12.5 -31.666 9.5 -48.999s-12.167 -31 -27.5 -41
c-14.667 -10 -30.667 -13.333 -48 -10s-31 12.333 -41 27z" />
    <glyph glyph-name="t" unicode="t" horiz-adv-x="719" 
d="M339 723c-1.33301 -11.333 -2.83008 -22.4961 -4.49707 -33.4961s-3.16699 -22.167 -4.5 -33.5l-4 -34l-5 -34l-5 -33l-5 -34l-5 -34l-5 -33c-3.33301 -22.667 -6.83301 -45.167 -10.5 -67.5l-10.5 -66.5l-1 -9v-2v-9v-21c6 -22.667 13.833 -36.834 23.5 -42.501
s19.167 -7.16699 28.5 -4.5s17.833 7.66699 25.5 15s12.167 12.666 13.5 15.999c2 2.66699 4.33301 7.33398 7 14.001c2 2 3 4.33301 3 7c0.666992 0.666992 1 1.66699 1 3l1 1h-1v-1l-1 -2c10 22.667 23.5 42.334 40.5 59.001s36.333 29.167 58 37.5
s44.334 12.666 68.001 12.999s47.167 -4.5 70.5 -14.5c22.667 -10 42.167 -23.5 58.5 -40.5s28.833 -36.167 37.5 -57.5s13.167 -44 13.5 -68s-4.5 -47.333 -14.5 -70l-2 -2v-2l-1 -2l-2 -4c-1.33301 -1.33301 -2.16602 -2.5 -2.49902 -3.5s-0.833008 -2.16699 -1.5 -3.5
c-2.66699 -5.33301 -5 -9.33301 -7 -12c-2 -4 -4.16699 -7.83301 -6.5 -11.5l-6.5 -10.5l-15.5 -21l-15.5 -21c-5.33301 -6.66699 -11 -13.334 -17 -20.001s-12.333 -13 -19 -19c-6.66699 -6.66699 -13.5 -13.167 -20.5 -19.5s-14.5 -12.166 -22.5 -17.499
c-16 -12 -33 -23 -51 -33c-9.33301 -5.33301 -19 -10 -29 -14s-20.333 -7.66699 -31 -11c-22 -7.33301 -44 -12 -66 -14c-5.33301 -0.666992 -10.833 -1.16699 -16.5 -1.5s-11.167 -0.5 -16.5 -0.5h-5h-4h-1h-1h-1h-1h-1v1h-2h-12c-8 1.33301 -16.167 2.33301 -24.5 3
s-16.833 1.66699 -25.5 3s-17.5 3.16602 -26.5 5.49902l-27.5 7.5l-27.5 10c-9 3.33301 -18.167 7.66602 -27.5 12.999c-9.33301 4.66699 -18.5 9.83398 -27.5 15.501s-18.167 11.834 -27.5 18.501c-16 13.333 -32 29 -48 47c-14 16.667 -26 34.667 -36 54
c-4.66699 9.33301 -8.83398 18.666 -12.501 27.999l-10.5 28c-5.33301 18.667 -9.33301 36.667 -12 54c-1.33301 9.33301 -2.16602 18.166 -2.49902 26.499s-0.833008 16.5 -1.5 24.5c0 8.66699 0.166992 17 0.5 25s0.833008 16 1.5 24c1.33301 7.33301 2.33301 15 3 23
s1.66699 15.667 3 23c1.33301 4 2.16602 8 2.49902 12s1.16602 8 2.49902 12c0.666992 2 1.16699 4 1.5 6s1.16602 4.66699 2.49902 8l3 8l19.5 65c6.33301 22 13.166 43.667 20.499 65l11 32l10 32l11 33l10 32l11 32l11 32c3.33301 11.333 6.83301 22.166 10.5 32.499
l11.5 32.5c4.66699 12.667 11.5 24 20.5 34s19.333 17.667 31 23s24 8.5 37 9.5s26.167 -0.833008 39.5 -5.5c23.333 -8 41.166 -22 53.499 -42s16.833 -41.667 13.5 -65zM122.003 512.004l361.003 100.002c16 4.66699 31.167 2.83398 45.5 -5.49902
s23.833 -20.5 28.5 -36.5c3.33301 -13.333 2.66602 -26 -2.00098 -38s-12.667 -21.667 -24 -29l-315 -202c-13.333 -8.66699 -27.666 -14.334 -42.999 -17.001s-30.333 -2.5 -45 0.5s-28.334 8.83301 -41.001 17.5s-23.334 20 -32.001 34
c-8.66699 13.333 -14.334 27.666 -17.001 42.999s-2.5 30.166 0.5 44.499s8.83301 28 17.5 41s20 23.833 34 32.5c10 6.66699 20.667 11.667 32 15z" />
    <glyph glyph-name="u" unicode="u" horiz-adv-x="707" 
d="M554 568l177 -467c8.66699 -24.667 12.5 -49.334 11.5 -74.001s-6.5 -48 -16.5 -70s-24 -41.667 -42 -59s-39 -30.666 -63 -39.999s-48.5 -13.5 -73.5 -12.5s-48.5 6.5 -70.5 16.5s-41.667 24 -59 42s-30.666 39 -39.999 63c-10.667 29.333 -14.334 58 -11.001 86l51 497
c2 19.333 10.5 35.166 25.5 47.499s32.167 17.5 51.5 15.5c14 -1.33301 26.167 -6.16602 36.5 -14.499s17.833 -18.5 22.5 -30.5zM295 528l-8.99707 -27.001c-1.33301 -4.66699 -2.83301 -9 -4.5 -13s-3.16699 -8.33301 -4.5 -13l-4 -13.5l-4 -13.5
c-1.33301 -4.66699 -2.66602 -9 -3.99902 -13s-2.66602 -8.33301 -3.99902 -13c-4.66699 -16 -8.66699 -33.333 -12 -52c-2 -8 -3.5 -16.167 -4.5 -24.5s-2.16699 -16.5 -3.5 -24.5c-0.666992 -4 -1 -7.83301 -1 -11.5v-11.5c-0.666992 -8 -0.666992 -15.333 0 -22
c0 -12.667 1.66699 -25.667 5 -39c0.666992 -3.33301 1.33398 -6.16602 2.00098 -8.49902s1.66699 -4.83301 3 -7.5c1.33301 -2 2.33301 -4.16699 3 -6.5s1.66699 -4.16602 3 -5.49902c3.33301 -6.66699 8 -12.334 14 -17.001c1.33301 -1.33301 2.66602 -2.33301 3.99902 -3
s2.66602 -1.66699 3.99902 -3c1.33301 -0.666992 4 -1.66699 8 -3c2.66699 -2 5.66699 -3 9 -3l9 -3c3.33301 -0.666992 7 -1 11 -1s8 -0.333008 12 -1c3.33301 0 7.16602 0.166992 11.499 0.5s8.16602 0.833008 11.499 1.5l11.5 2c3.66699 0.666992 7.16699 1.66699 10.5 3
l8.5 3.5c2.33301 1 4.16602 1.83301 5.49902 2.5c2.66699 1.33301 4.33398 2 5.00098 2h3c0.666992 0 1.5 -0.166992 2.5 -0.5s2.5 -0.166016 4.5 0.500977l150 40c28 7.33301 54.167 4 78.5 -10s40.166 -35 47.499 -63c4 -16 4.66699 -31.333 2 -46
c-1.33301 -4.66699 -2.5 -9.16699 -3.5 -13.5s-2.16699 -8.83301 -3.5 -13.5c-0.666992 -2.66699 -1.33398 -5 -2.00098 -7s-1.66699 -4.33301 -3 -7c-1.33301 -4 -3 -8.33301 -5 -13c-8.66699 -19.333 -18 -36.333 -28 -51c-12 -16 -24.333 -30 -37 -42
c-7.33301 -6.66699 -14.5 -12.834 -21.5 -18.501s-14.167 -11.167 -21.5 -16.5c-14.667 -9.33301 -29.834 -17.5 -45.501 -24.5s-31.167 -13.167 -46.5 -18.5c-30.667 -8.66699 -62.334 -13.667 -95.001 -15c-31.333 -1.33301 -62.666 1.66699 -93.999 9
c-31.333 6 -61.333 17 -90 33c-7.33301 3.33301 -14.333 7.16602 -21 11.499l-21 13.5l-19.5 16c-6.33301 5.33301 -12.5 11 -18.5 17c-13.333 12 -24.666 24.667 -33.999 38c-10 12.667 -19 26.667 -27 42s-14.5 30.5 -19.5 45.5s-9.16699 30.167 -12.5 45.5
c-1.33301 8 -2.5 15.667 -3.5 23s-1.5 14.666 -1.5 21.999c-0.666992 14.667 -0.666992 29 0 43s2 27.667 4 41s4.66699 26 8 38l5.5 19c1.66699 6 3.5 11.667 5.5 17c2 6 4.16699 11.833 6.5 17.5s4.5 11.167 6.5 16.5c9.33301 22 19.833 42.833 31.5 62.5
s23.834 38.167 36.501 55.5l10 13.5l10 13.5l10 12c3.33301 4 6.66602 8.33301 9.99902 13l21 24l6 5l5 6l6 6l3 3l2 2c12.667 12 27.667 18 45 18s32 -6.33301 44 -19c9.33301 -9.33301 15 -19.666 17 -30.999s1.33301 -22.666 -2 -33.999z" />
    <glyph glyph-name="v" unicode="v" horiz-adv-x="680" 
d="M135 608l347.997 -466.995c14.667 -20 24.834 -41.333 30.501 -64s6.83398 -45.334 3.50098 -68.001s-10.833 -44 -22.5 -64s-27.5 -37.333 -47.5 -52c-19.333 -14.667 -40.333 -24.834 -63 -30.501s-45.334 -6.83398 -68.001 -3.50098s-44.167 10.833 -64.5 22.5
s-37.833 27.5 -52.5 47.5c-10.667 15.333 -19 30.666 -25 45.999l-195 549c-4 12 -5.66699 23.833 -5 35.5s3.33398 22.667 8.00098 33s11.334 19.666 20.001 27.999s19 14.5 31 18.5c19.333 6.66699 38.333 7 57 1s33.667 -16.667 45 -32zM706.997 524.005
l-195.997 -549.001c-8 -23.333 -20 -43.5 -36 -60.5s-34.167 -30.333 -54.5 -40s-42.333 -15.167 -66 -16.5s-46.834 2 -69.501 10c-23.333 8 -43.5 20 -60.5 36s-30.333 34.333 -40 55s-15.334 42.5 -17.001 65.5s1.5 46.167 9.5 69.5c3.33301 8.66699 7 16.834 11 24.501
s8.66699 15.167 14 22.5l349 467c7.33301 10 16 18 26 24s20.667 9.83301 32 11.5s22.833 1 34.5 -2s22.5 -8.16699 32.5 -15.5c16.667 -12 27.667 -27.5 33 -46.5s4.66602 -37.5 -2.00098 -55.5z" />
    <glyph glyph-name="w" unicode="w" horiz-adv-x="943" 
d="M411 597l346.995 -460.997c14.667 -20 24.834 -41.5 30.501 -64.5s6.83398 -45.667 3.50098 -68s-10.833 -43.833 -22.5 -64.5s-27.167 -38.334 -46.5 -53.001c-20 -14.667 -41.5 -24.834 -64.5 -30.501s-45.667 -6.83398 -68 -3.50098s-43.833 10.833 -64.5 22.5
s-38.334 27.167 -53.001 46.5c-7.33301 9.33301 -13.166 19 -17.499 29s-8.16602 20 -11.499 30l-157 555c-5.33301 19.333 -3.33301 37.333 6 54s23.333 27.667 42 33c14.667 4 28.834 3.66699 42.501 -1s24.834 -12.667 33.501 -24zM978.995 524.003l-195.997 -549.001
c-8 -23.333 -20 -43.5 -36 -60.5s-34.167 -30.333 -54.5 -40s-42.333 -15.167 -66 -16.5s-46.834 2 -69.501 10c-23.333 8 -43.5 20 -60.5 36s-30.333 34.333 -40 55s-15.334 42.5 -17.001 65.5s1.5 46.167 9.5 69.5c3.33301 8.66699 7 16.834 11 24.501
s8.66699 15.167 14 22.5l349 467c7.33301 10 16 18 26 24s20.667 9.83301 32 11.5s22.833 1 34.5 -2s22.5 -8.16699 32.5 -15.5c16.667 -12 27.667 -27.5 33 -46.5s4.66602 -37.5 -2.00098 -55.5zM123.998 608.002l347.997 -466.995c14.667 -20 24.834 -41.333 30.501 -64
s6.83398 -45.334 3.50098 -68.001s-10.833 -44 -22.5 -64s-27.5 -37.333 -47.5 -52c-19.333 -14.667 -40.333 -24.834 -63 -30.501s-45.334 -6.83398 -68.001 -3.50098s-44.167 10.833 -64.5 22.5s-37.833 27.5 -52.5 47.5c-10.667 15.333 -19 30.666 -25 45.999l-195 549
c-4 12 -5.66699 23.833 -5 35.5s3.33398 22.667 8.00098 33s11.334 19.666 20.001 27.999s19 14.5 31 18.5c19.333 6.66699 38.333 7 57 1s33.667 -16.667 45 -32zM663.995 533.007l-161.001 -553c-7.33301 -23.333 -18.333 -44.166 -33 -62.499s-32 -33 -52 -44
s-41.667 -18 -65 -21s-47 -0.833008 -71 6.5c-23.333 6.66699 -44.166 17.5 -62.499 32.5s-33 32.5 -44 52.5s-18 41.667 -21 65s-0.833008 46.666 6.5 69.999c3.33301 10.667 7.33301 20.667 12 30s10 18.333 16 27l343 462c12.667 16.667 29 26.5 49 29.5
s38.333 -1.5 55 -13.5c13.333 -9.33301 22.333 -21.5 27 -36.5s5 -29.833 1 -44.5z" />
    <glyph glyph-name="x" unicode="x" horiz-adv-x="754" 
d="M203 625l516 -451c18.667 -16 33 -34.5 43 -55.5s15.667 -42.833 17 -65.5s-1.5 -45 -8.5 -67s-18.5 -42.333 -34.5 -61s-34.5 -33 -55.5 -43s-42.833 -15.833 -65.5 -17.5s-45.167 1.16602 -67.5 8.49902s-42.5 19 -60.5 35c-12 10.667 -22 21.667 -30 33l-387 566
c-13.333 20.667 -17.833 43 -13.5 67s16.833 43 37.5 57c17.333 12 36 17.333 56 16s37.667 -8.66602 53 -21.999zM702 504l-386.999 -566.004c-14 -20 -30.833 -36.167 -50.5 -48.5s-40.5 -20.666 -62.5 -24.999s-44.5 -4.33301 -67.5 0s-44.5 13.5 -64.5 27.5
s-36.333 30.833 -49 50.5s-21 40.667 -25 63s-3.83301 45 0.5 68s13.5 44.5 27.5 64.5c4 6 8.5 11.833 13.5 17.5s10.167 10.834 15.5 15.501l516 451c19.333 16 41.166 23.333 65.499 22s44.833 -11.666 61.5 -30.999c13.333 -15.333 20.5 -33.166 21.5 -53.499
s-4.16699 -38.833 -15.5 -55.5z" />
    <glyph glyph-name="y" unicode="y" horiz-adv-x="670" 
d="M292 523l-11.002 -23c-1.33301 -4 -3 -8 -5 -12s-3.66699 -7.66699 -5 -11c-1.33301 -4 -2.83301 -8 -4.5 -12l-4.5 -11l-4 -11.5l-4 -11.5l-7.5 -21.5c-2.33301 -7 -4.5 -14.167 -6.5 -21.5s-3.5 -12.666 -4.5 -15.999s-2.16699 -8.33301 -3.5 -15
c-0.666992 -3.33301 -1 -6.5 -1 -9.5v-9.5c-4 -16 -1 -28.667 9 -38s23.5 -15.666 40.5 -18.999s36.167 -3.66602 57.5 -0.999023s41.166 8 59.499 16s33.833 18.833 46.5 32.5s19 29.5 19 47.5l114 -74c12 -8 19.167 -14.833 21.5 -20.5s2.66602 -11.667 0.999023 -18
s-4.5 -14 -8.5 -23s-6.33301 -20.5 -7 -34.5c0 -3.33301 2.66699 -7.33301 8 -12s11.166 -9.33398 17.499 -14.001s11.833 -9.33398 16.5 -14.001s6.33398 -8.33398 5.00098 -11.001c-1.33301 -2 -0.833008 -4 1.5 -6s4.83301 -4 7.5 -6s5 -3.83301 7 -5.5
s2.33301 -3.5 1 -5.5c-0.666992 -0.666992 -4.33398 -1.33398 -11.001 -2.00098s-14.167 -1.33398 -22.5 -2.00098s-15.833 -1.5 -22.5 -2.5s-10.334 -1.83301 -11.001 -2.5s1.83301 -1.5 7.5 -2.5s12 -1.83301 19 -2.5s13.333 -1.5 19 -2.5s8.16699 -1.83301 7.5 -2.5
c-5.33301 -6.66699 -10.666 -12.834 -15.999 -18.501l-16 -16.5c-23.333 -20.667 -47 -37.334 -71 -50.001c-25.333 -13.333 -50.333 -23.333 -75 -30c-13.333 -4 -26.166 -7.16699 -38.499 -9.5s-25.166 -4.16602 -38.499 -5.49902c-12.667 -1.33301 -25.334 -2 -38.001 -2
s-25.667 0.666992 -39 2c-25.333 2 -51.666 7 -78.999 15c-26 6.66699 -52 17.667 -78 33c-6.66699 3.33301 -13.167 7 -19.5 11s-12.833 8.66699 -19.5 14l-18.5 16c-6.33301 5.33301 -12.166 11 -17.499 17s-10.666 12.333 -15.999 19s-10.333 13.667 -15 21
c-8.66699 14 -16.334 29 -23.001 45c-3.33301 8 -6.16602 16 -8.49902 24s-4.16602 16 -5.49902 24s-2.33301 16 -3 24s-1 15.667 -1 23c0 14.667 1 29 3 43s5 27 9 39c6.66699 24 15.667 46.333 27 67c5.33301 10.667 10.833 20.5 16.5 29.5l17.5 26.5
c12.667 16.667 25.667 32.667 39 48l21 21l21 21c3.33301 3.33301 6.83301 6.5 10.5 9.5l11.5 9.5l5 4l6 5c1.33301 0.666992 2.33301 1.33398 3 2.00098s1.66699 1.33398 3 2.00098l2 3l3 2c14 10 29.667 13.667 47 11s31.333 -11 42 -25
c7.33301 -9.33301 11.5 -19.666 12.5 -30.999s-0.833008 -22 -5.5 -32v-1zM128.998 -39l1.99512 -1.00488v-1h1c0.666992 0 1 -0.333008 1 -1h1l1 -1l6 -3l12 -6l12 -6c4 -2 7.66699 -4 11 -6c8 -3.33301 15.667 -6.33301 23 -9l22 -8c13.333 -4 26.666 -7 39.999 -9
c6 -0.666992 11.833 -1.16699 17.5 -1.5s11.167 -0.5 16.5 -0.5c5.33301 0.666992 10.166 1.33398 14.499 2.00098s8.83301 1.66699 13.5 3c4.66699 2 9.33398 4.16699 14.001 6.5s9.33398 5.16602 14.001 8.49902c10.667 8 20 17.667 28 29
c10 13.333 18.333 27.666 25 42.999c3.33301 8 6.5 16.5 9.5 25.5l9.5 27.5c4.66699 18.667 8.66699 38.667 12 60s5.5 43 6.5 65s1.16699 44.333 0.5 67c-1.33301 46 -5.33301 92.333 -12 139c-7.33301 46.667 -16.333 93.334 -27 140.001v1c-2 10 -2.16699 19.667 -0.5 29
s4.83398 17.833 9.50098 25.5s10.834 14.334 18.501 20.001s16.167 9.83398 25.5 12.501c17.333 4 33.5 2.33301 48.5 -5s26.167 -18.666 33.5 -33.999c11.333 -23.333 22.166 -47 32.499 -71s20.166 -48.333 29.499 -73c9.33301 -25.333 18.166 -50.666 26.499 -75.999
s15.833 -51.333 22.5 -78s12.334 -53.667 17.001 -81s8 -55.666 10 -84.999c1.33301 -14.667 2.16602 -29.334 2.49902 -44.001s0.166016 -29.667 -0.500977 -45s-1.66699 -30.666 -3 -45.999s-3.66602 -31 -6.99902 -47s-7.16602 -32.167 -11.499 -48.5
s-9.83301 -32.5 -16.5 -48.5c-6.66699 -16.667 -14.167 -33.167 -22.5 -49.5s-18.166 -32.166 -29.499 -47.499s-23.833 -30.333 -37.5 -45s-28.5 -28.334 -44.5 -41.001c-8 -6 -16.167 -11.833 -24.5 -17.5s-16.833 -11.167 -25.5 -16.5
c-19.333 -10.667 -37.666 -19.667 -54.999 -27c-36.667 -14.667 -74.334 -24.667 -113.001 -30c-37.333 -6 -73.666 -8 -108.999 -6c-17.333 0.666992 -34.5 1.83398 -51.5 3.50098s-33.833 4.16699 -50.5 7.5c-8 1.33301 -16 2.83301 -24 4.5s-16 3.5 -24 5.5
c-4 1.33301 -8 2.33301 -12 3s-7.66699 1.66699 -11 3l-12 3l-6 2h-3l-2 1c-27.333 7.33301 -51.5 19.333 -72.5 36s-38 36.167 -51 58.5s-21.667 46.833 -26 73.5s-2.83301 53.667 4.5 81s19.333 51.666 36 72.999s36.334 38.5 59.001 51.5s47.334 21.5 74.001 25.5
s53.667 2.33301 81 -5c7.33301 -2 14.333 -4.33301 21 -7s13.334 -5.66699 20.001 -9z" />
    <glyph glyph-name="z" unicode="z" horiz-adv-x="823" 
d="M112 675l596.001 -62.999c14.667 -1.33301 26.5 -7.66602 35.5 -18.999s12.833 -24.333 11.5 -39c-1.33301 -12.667 -6.5 -23.334 -15.5 -32.001s-19.5 -13.667 -31.5 -15l-596 -62c-16 -2 -31.333 -0.666992 -46 4s-27.834 11.667 -39.501 21
s-21.167 20.666 -28.5 33.999s-12 28 -14 44c-1.33301 16 0.333984 31.167 5.00098 45.5s11.667 27.333 21 39s20.666 21.167 33.999 28.5s28 12 44 14c8 0.666992 16 0.666992 24 0zM744.001 509.001l-475.003 -536.998c-13.333 -15.333 -28.666 -27 -45.999 -35
s-35.333 -12.667 -54 -14s-37.167 1 -55.5 7s-35.166 15.667 -50.499 29s-27 28.666 -35 45.999s-12.5 35.333 -13.5 54s1.5 37.167 7.5 55.5s15.667 35.166 29 50.499c3.33301 4 7.33301 8 12 12s9.33398 7.66699 14.001 11l589 409c13.333 9.33301 28 12.5 44 9.5
s28.667 -11.167 38 -24.5c8 -11.333 11.5 -23.833 10.5 -37.5s-5.83301 -25.5 -14.5 -35.5zM151.998 206.003l500.001 42.999c26.667 2 52.334 -1 77.001 -9s46.667 -20.167 66 -36.5s35.166 -35.833 47.499 -58.5s19.5 -47.334 21.5 -74.001
c2 -27.333 -1 -53.166 -9 -77.499s-20.167 -46.166 -36.5 -65.499s-36 -35.166 -59 -47.499s-47.833 -19.5 -74.5 -21.5c-11.333 -1.33301 -22.333 -1.33301 -33 0l-500 43c-21.333 2 -40.833 7.66699 -58.5 17s-32.667 21.5 -45 36.5s-21.833 32 -28.5 51
s-9 39.167 -7 60.5c1.33301 18.667 6 36.167 14 52.5s18.167 30.666 30.5 42.999s26.666 22.333 42.999 30s33.5 12.167 51.5 13.5z" />
    <glyph glyph-name="braceleft" unicode="{" horiz-adv-x="289" 
d="M-3 186c-18 4 -31.8301 11.3359 -41.4971 22.0029s-14.834 22.167 -15.501 34.5s3.16602 24.166 11.499 35.499s21.166 20 38.499 26c5.33301 10 12.166 17.667 20.499 23s17.5 8.33301 27.5 9c4.66699 12.667 7.16699 25.667 7.5 39s0 26.833 -1 40.5
s-1.83301 27.334 -2.5 41.001s0 27.167 2 40.5c4 22 13.167 42.333 27.5 61s31.333 33.667 51 45s40.5 17.666 62.5 18.999s43 -4.66699 63 -18c15.333 -13.333 24.5 -26.833 27.5 -40.5s-0.166992 -29.167 -9.5 -46.5l-2 -2
c-13.333 -13.333 -27.166 -21.166 -41.499 -23.499s-27.166 -0.166016 -38.499 6.50098c-2 -0.666992 -4.16699 -1.33398 -6.5 -2.00098s-4.83301 -1.33398 -7.5 -2.00098c-5.33301 -8 -8.66602 -17 -9.99902 -27s-1.66602 -20.333 -0.999023 -31s1.66699 -21.334 3 -32.001
s2 -20.334 2 -29.001c0.666992 -20 -1.66602 -39.5 -6.99902 -58.5s-12.666 -37.5 -21.999 -55.5c-0.666992 -1.33301 -1.33398 -2.33301 -2.00098 -3s-1.33398 -1.66699 -2.00098 -3c13.333 -17.333 21.5 -39.333 24.5 -66s3.83301 -57.667 2.5 -93
c-0.666992 -15.333 -0.333984 -29.5 0.999023 -42.5s4.66602 -26.5 9.99902 -40.5c0.666992 -2 1.16699 -4.16699 1.5 -6.5s1.16602 -4.5 2.49902 -6.5c15.333 6 29.5 6.83301 42.5 2.5s22.833 -12 29.5 -23s9.16699 -23.833 7.5 -38.5s-9.5 -29 -23.5 -43
c-19.333 -15.333 -37.5 -24.166 -54.5 -26.499s-32.5 0.166992 -46.5 7.5s-26.667 18.166 -38 32.499s-20.833 30.333 -28.5 48s-13.5 36 -17.5 55s-6 36.5 -6 52.5c0 19.333 1 38.333 3 57s1.33301 37 -2 55c-0.666992 2.66699 -3 4.66699 -7 6s-8.5 2 -13.5 2
s-9.66699 -0.166992 -14 -0.5s-6.83301 -0.5 -7.5 -0.5z" />
    <glyph glyph-name="bar" unicode="|" horiz-adv-x="206" 
d="M30 722c-0.666992 4.66699 -0.998047 9.33301 -0.998047 14s-0.333008 9.33398 -1 14.001c-4 8 -6 17.667 -6 29c0.666992 2.66699 1 5.16699 1 7.5v6.5c4.66699 16 11.667 28.333 21 37s19.666 13.667 30.999 15s22.666 -1.16699 33.999 -7.5s21 -16.5 29 -30.5
c11.333 -46 16.833 -93.333 16.5 -142s-1.16602 -96.334 -2.49902 -143.001c-1.33301 -45.333 -3.33301 -91.666 -6 -138.999s-4.16699 -94.5 -4.5 -141.5s1.66699 -93.833 6 -140.5s13.166 -92.334 26.499 -137.001c4 -21.333 1.83301 -38.833 -6.5 -52.5
s-19.166 -22.5 -32.499 -26.5s-27.333 -2.33301 -42 5s-26 21 -34 41c-16 56 -26.333 115.5 -31 178.5s-6.5 127.167 -5.5 192.5s3.16699 130.5 6.5 195.5s4.66602 127.167 3.99902 186.5v2c0 12 -1 24 -3 36z" />
    <glyph glyph-name="braceright" unicode="}" horiz-adv-x="303" 
d="M37 520c-12 14.667 -18.501 29.3271 -19.501 43.9941s2.16699 27 9.5 37s18 16.833 32 20.5s30 2.16699 48 -4.5l42 -34.5c11.333 -9.66699 20.666 -19.667 27.999 -30s13 -22.666 17 -36.999s7 -32.5 9 -54.5c10 -26 13 -51.667 9 -77s-10.667 -50.666 -20 -75.999
c-2.66699 -7.33301 -5.5 -14.5 -8.5 -21.5s-4.83301 -14.167 -5.5 -21.5h6c10 -1.33301 19.333 -2.66602 28 -3.99902s17.667 -4.33301 27 -9c11.333 -5.33301 20 -12.333 26 -21s9.5 -18 10.5 -28s-0.333008 -20 -4 -30s-9.5 -19 -17.5 -27
c-6.66699 -11.333 -16 -22 -28 -32c-2 -1.33301 -4 -2.83301 -6 -4.5s-3.66699 -3.16699 -5 -4.5l3 -11c1.33301 -5.33301 2.66602 -11 3.99902 -17s2.66602 -11.667 3.99902 -17c5.33301 -22.667 9.33301 -46.167 12 -70.5s0.333984 -48.166 -6.99902 -71.499
c-6 -22.667 -18.167 -42.834 -36.5 -60.501s-38.5 -30.167 -60.5 -37.5s-43.833 -8.16602 -65.5 -2.49902s-39.167 20.834 -52.5 45.501c-6.66699 17.333 -8.16699 32.833 -4.5 46.5s10.334 24.334 20.001 32.001s21 11.667 34 12s25.5 -4.16699 37.5 -13.5
c3.33301 0.666992 6.33301 1.33398 9 2.00098s4.5 2.5 5.5 5.5s1.5 7.83301 1.5 14.5s-0.666992 16.334 -2 29.001c-2 13.333 -5 27 -9 41s-7.5 28 -10.5 42s-4.66699 28 -5 42s2.5 27.667 8.5 41l2 4l2 4c-4 2.66699 -7 5 -9 7c-19.333 14.667 -30.666 31.5 -33.999 50.5
s-3 38.667 1 59s9.5 40.666 16.5 60.999s11.833 39.166 14.5 56.499c0.666992 4 0.5 9.5 -0.5 16.5s-2.33301 14.5 -4 22.5s-3.5 16 -5.5 24s-3.66699 15 -5 21c-3.33301 2 -7.16602 5 -11.499 9l-13 12l-11.5 10.5c-3.33301 3 -5.33301 4.83301 -6 5.5zM117.999 -75.0068
c1.33301 -3.33301 3.66699 -7 7 -11l-1 1c-1.33301 2.66699 -2.83301 5 -4.5 7s-3.16699 4 -4.5 6zM186 143.993h-1h1z" />
    <glyph glyph-name="asciitilde" unicode="~" horiz-adv-x="443" 
d="M25 284l0.000976562 2.99512l2 1v2c1.33301 1.33301 2 2.5 2 3.5s0.333008 2.16699 1 3.5c1.33301 2 3.33301 5.66699 6 11c4 6.66699 9 13.667 15 21c2.66699 3.33301 5.83398 6.5 9.50098 9.5l11.5 9.5c6.66699 6 15.667 11 27 15c10 4 20.667 6 32 6
c3.33301 0 6.33301 -0.166992 9 -0.5s5 -0.5 7 -0.5c5.33301 -0.666992 10.333 -2 15 -4c5.33301 -1.33301 9.83301 -2.5 13.5 -3.5s7.5 -2.16699 11.5 -3.5c3.33301 -2 6.83301 -3.66699 10.5 -5l10.5 -4c6.66699 -3.33301 12.834 -6.16602 18.501 -8.49902
s11.5 -4.16602 17.5 -5.49902c6.66699 -2.66699 11.334 -4 14.001 -4c3.33301 -0.666992 7.66602 -1 12.999 -1c4 0 6.66699 0.333008 8 1c2 0 3.5 0.333008 4.5 1l4.5 3c2.66699 1.33301 5 3.33301 7 6c4.66699 2.66699 7.66699 5.33398 9 8.00098
c10.667 11.333 23.5 17.5 38.5 18.5s28.167 -3.83301 39.5 -14.5c11.333 -10 17.333 -22.5 18 -37.5s-4.33301 -28.5 -15 -40.5l-6 -6l-1 -1c-4.66699 -3.33301 -8.83398 -6.16602 -12.501 -8.49902s-7.83398 -4.83301 -12.501 -7.5c-4 -3.33301 -8.33301 -6 -13 -8
s-9.66699 -4 -15 -6l-16 -4c-5.33301 -1.33301 -10.666 -2 -15.999 -2c-12.667 -1.33301 -23.667 -1 -33 1c-5.33301 1.33301 -10.333 2.5 -15 3.5s-9.33398 2.5 -14.001 4.5c-4 1.33301 -8 3 -12 5l-12 6c-14 6.66699 -27 14 -39 22
c-2.66699 2 -5.33398 3.66699 -8.00098 5s-5.33398 3 -8.00098 5l-7 3.5c-2 1 -4 2.16699 -6 3.5c-2 0 -4 1 -6 3c-2 0 -3.33301 0.333008 -4 1h-9c-3.33301 0 -6.66602 -1.33301 -9.99902 -4c-4 -1.33301 -7.66699 -3.66602 -11 -6.99902c-3.33301 -2 -7 -5.66699 -11 -11
c-0.666992 -0.666992 -1.16699 -1.5 -1.5 -2.5s-0.833008 -2.16699 -1.5 -3.5l-2 -2l-1 -1l-1 -2v-1h-1c-4 -7.33301 -9.83301 -12.666 -17.5 -15.999s-15.167 -3 -22.5 1c-7.33301 3.33301 -12.5 8.66602 -15.5 15.999s-2.83301 15 0.5 23z" />
    <glyph glyph-name="exclamdown" unicode="&#xa1;" horiz-adv-x="373" 
d="M279 376l89 -504c4 -22.667 3 -44.5 -3 -65.5s-15.667 -40.167 -29 -57.5s-30 -31.833 -50 -43.5s-42.333 -19.5 -67 -23.5s-48.5 -3.33301 -71.5 2s-43.833 14.166 -62.5 26.499s-34.334 27.833 -47.001 46.5s-21 39.334 -25 62.001c-1.33301 9.33301 -2 18.5 -2 27.5
s0.666992 17.5 2 25.5l89 504c4 22.667 15.833 40.5 35.5 53.5s42.167 17.833 67.5 14.5c19.333 -2.66699 35.833 -10.5 49.5 -23.5s21.834 -27.833 24.501 -44.5zM302 520c0 -14 -3 -27.333 -9 -40s-14 -23.667 -24 -33s-21.833 -16.666 -35.5 -21.999s-28.167 -8 -43.5 -8
s-29.833 2.66699 -43.5 8s-25.5 12.666 -35.5 21.999s-18 20.333 -24 33s-9 26 -9 40c0 14.667 3 28.334 9 41.001s14 23.667 24 33s21.833 16.666 35.5 21.999s28.167 8 43.5 8s29.833 -2.66699 43.5 -8s25.5 -12.666 35.5 -21.999s18 -20.333 24 -33s9 -26.334 9 -41.001z
" />
    <glyph glyph-name="cent" unicode="&#xa2;" horiz-adv-x="847" 
d="M348 658c-0.666992 22 4.32617 39 14.9932 51s23 18.833 37 20.5s27.667 -2.16602 41 -11.499s22 -24.666 26 -45.999c0 -9.33301 0.5 -19.833 1.5 -31.5s1.5 -23.5 1.5 -35.5l20 -4l21 -4c18 -4.66699 36.333 -10.667 55 -18
c9.33301 -3.33301 18.166 -7.16602 26.499 -11.499l25.5 -13.5l24 -15c2 -2 5.66699 -5 11 -9c2.66699 -1.33301 4.66699 -2.66602 6 -3.99902l3 -2v-1h1l1 -1c13.333 -11.333 20.666 -25.666 21.999 -42.999s-3.66699 -32.666 -15 -45.999
c-9.33301 -10.667 -20.5 -17.667 -33.5 -21s-25.5 -2.33301 -37.5 3l-2 1h-1c-0.666992 0 -1 0.166992 -1 0.5s-0.333008 0.5 -1 0.5c-1.33301 0 -2.16602 0.166992 -2.49902 0.5s-1.16602 0.5 -2.49902 0.5c-1.33301 0.666992 -2.66602 1.16699 -3.99902 1.5
s-2.66602 0.833008 -3.99902 1.5c-3.33301 1.33301 -6.33301 2.16602 -9 2.49902s-5.66699 0.833008 -9 1.5c-6 1.33301 -12.167 2.33301 -18.5 3l-18.5 2c-12 0.666992 -23.833 0.333984 -35.5 -0.999023s-23.167 -3.33301 -34.5 -6c-23.333 -6 -43.666 -15 -60.999 -27
c-9.33301 -5.33301 -17.5 -11.5 -24.5 -18.5s-13.5 -14.167 -19.5 -21.5c-5.33301 -7.33301 -9.83301 -14.833 -13.5 -22.5s-6.5 -15.167 -8.5 -22.5c-2.66699 -6 -4 -12.667 -4 -20c-1.33301 -6 -1.33301 -11.667 0 -17c0 -3.33301 0.166992 -6 0.5 -8
s0.833008 -4.33301 1.5 -7c0.666992 -2 1.66699 -4.33301 3 -7c0 -0.666992 0.666992 -3 2 -7c4.66699 -7.33301 10.334 -14.333 17.001 -21c3.33301 -3.33301 7 -6.66602 11 -9.99902s8.66699 -6.66602 14 -9.99902s10.5 -6.33301 15.5 -9l16.5 -9
c6 -2.66699 12.333 -5.33398 19 -8.00098s13.667 -4.66699 21 -6c2 -0.666992 3.83301 -1.16699 5.5 -1.5s3.5 -0.833008 5.5 -1.5h3l1 -1h5l2 -1c4 -0.666992 8 -1.16699 12 -1.5s8 -0.5 12 -0.5c7.33301 -0.666992 15 -0.833984 23 -0.500977s16 1.16602 24 2.49902
s16 3 24 5s16 4.66699 24 8c4 1.33301 7.83301 3 11.5 5l11.5 6c3.33301 2.66699 7 5 11 7s7.66699 4.66699 11 8c3.33301 2.66699 6.83301 5.66699 10.5 9l10.5 10c1.33301 2 3 4 5 6s3.66699 4 5 6c1.33301 1.33301 2.16602 2.33301 2.49902 3s1.16602 1.66699 2.49902 3
c1.33301 2.66699 3 5 5 7l15 22c6.66699 10 14.834 18 24.501 24s20 10 31 12s22 1.83301 33 -0.5s21.5 -6.83301 31.5 -13.5c18 -12 29.667 -28.333 35 -49c1.33301 -4.66699 2.66602 -10.334 3.99902 -17.001c0.666992 -2.66699 1 -5.33398 1 -8.00098
s0.333008 -5.33398 1 -8.00098c0.666992 -5.33301 1.16699 -11 1.5 -17s0.5 -11.667 0.5 -17c-1.33301 -24.667 -4.66602 -47.334 -9.99902 -68.001c-5.33301 -23.333 -13.333 -45.333 -24 -66c-10.667 -22.667 -23 -42.334 -37 -59.001
c-28 -37.333 -62 -68.666 -102 -93.999l-30 -18c-5.33301 -2.66699 -10.666 -5.16699 -15.999 -7.5s-10.666 -4.83301 -15.999 -7.5c-10.667 -4.66699 -21.5 -8.83398 -32.5 -12.501s-22.167 -7.16699 -33.5 -10.5l-22.5 -4l-22.5 -4
c1.33301 -7.33301 2.33301 -14.666 3 -21.999l2 -22c-2.66699 -19.333 -9 -34.166 -19 -44.499s-21.333 -16.166 -34 -17.499s-25.167 2 -37.5 10s-21.833 20.667 -28.5 38c-0.666992 9.33301 -1.5 18.5 -2.5 27.5s-2.16699 18.167 -3.5 27.5
c-19.333 2 -38.5 5.16699 -57.5 9.5s-37.5 10.166 -55.5 17.499c-47.333 17.333 -89.666 42.333 -126.999 75c-19.333 16.667 -37 35 -53 55s-30.333 41.667 -43 65c-3.33301 5.33301 -6.16602 11 -8.49902 17l-7.5 19c-2.66699 6 -5.16699 12 -7.5 18s-4.5 12.333 -6.5 19
c-3.33301 12.667 -6.33301 25.5 -9 38.5s-4.66699 26.167 -6 39.5c-0.666992 7.33301 -1.16699 14.166 -1.5 20.499s-0.5 12.833 -0.5 19.5c0.666992 6.66699 1 13.167 1 19.5s0.666992 12.833 2 19.5c1.33301 13.333 3.5 26.333 6.5 39s6.5 25.334 10.5 38.001
c8 24.667 18.667 47.667 32 69c6.66699 11.333 13.667 21.666 21 30.999l23 28c16.667 18 34.334 33.833 53.001 47.5s37.667 25.5 57 35.5c38.667 19.333 79.667 32.666 123 39.999c3.33301 0 8.33301 0.666992 15 2c0.666992 1.33301 1 2.83301 1 4.5v4.5
c0 7.33301 0.166992 14.5 0.5 21.5s0.166016 14.167 -0.500977 21.5z" />
    <glyph glyph-name="sterling" unicode="&#xa3;" horiz-adv-x="720" 
d="M396 832c49.333 -30.667 87.166 -56.167 113.499 -76.5s44.333 -37 54 -50s12.334 -22.5 8.00098 -28.5s-13 -9.83301 -26 -11.5s-28.833 -1.33398 -47.5 0.999023s-37.167 5.33301 -55.5 9s-35.333 7.5 -51 11.5s-27.167 7.33301 -34.5 10
c-22.667 8.66699 -37.667 10.667 -45 6s-10.666 -15.667 -9.99902 -33s3.5 -40.833 8.5 -70.5s8.16699 -65.5 9.5 -107.5l192 20c13.333 8 25.333 8.66699 36 2s17.667 -16 21 -28s1.83301 -24.5 -4.5 -37.5s-19.833 -21.5 -40.5 -25.5
c-1.33301 0 -2.66602 -0.166992 -3.99902 -0.5s-2.66602 -0.5 -3.99902 -0.5l-189 -22l16 -156l334 1c20.667 0 38.167 -7.16699 52.5 -21.5s21.5 -32.166 21.5 -53.499c0 -14.667 -3.83301 -28 -11.5 -40s-17.834 -21 -30.501 -27l-429 -203
c-36.667 -16.667 -74.334 -21.334 -113.001 -14.001c-22 1.33301 -42.667 6.5 -62 15.5s-36.5 21 -51.5 36s-27.167 32.333 -36.5 52s-15 40.834 -17 63.501c-1.33301 16.667 -0.333008 32.667 3 48l127 569c13.333 23.333 30.5 47.5 51.5 72.5s43.5 46.5 67.5 64.5
s48.667 30.167 74 36.5s49.666 2.5 72.999 -11.5z" />
    <glyph glyph-name="currency" unicode="&#xa4;" horiz-adv-x="456" 
d="M242 506c12 -2.66699 25.6611 -7.3418 40.9941 -14.0088c6.66699 7.33301 13.834 14.333 21.501 21s15.167 14 22.5 22c15.333 11.333 30.333 16.833 45 16.5s26.667 -4.66602 36 -12.999s15.333 -19.666 18 -33.999s-0.333008 -29.833 -9 -46.5
c-6.66699 -7.33301 -13.334 -14.166 -20.001 -20.499l-21 -19.5c8 -11.333 14.5 -23.666 19.5 -36.999s8.16699 -27.666 9.5 -42.999c0.666992 -32 -7.66602 -61 -24.999 -87c5.33301 -3.33301 10.333 -6.83301 15 -10.5l15 -11.5c16.667 -14 25.834 -29.167 27.501 -45.5
s-1.66602 -30.166 -9.99902 -41.499s-20.333 -18.666 -36 -21.999s-32.834 0.666992 -51.501 12l-28 21c-9.33301 6.66699 -18 14 -26 22c-4.66699 -2 -9.16699 -3.83301 -13.5 -5.5s-8.83301 -3.16699 -13.5 -4.5c-10 -3.33301 -22.5 -3.5 -37.5 -0.5
s-27.167 6.16699 -36.5 9.5c-6.66699 2 -13 4.83301 -19 8.5s-12.333 7.83398 -19 12.501c-2.66699 -4 -5 -7 -7 -9c0 -0.666992 -0.166992 -1 -0.5 -1s-0.5 -0.333008 -0.5 -1v-1c-1.33301 -1.33301 -2.16602 -2.83301 -2.49902 -4.5s-1.16602 -3.16699 -2.49902 -4.5
c-2.66699 -4 -3.66699 -5.33301 -3 -4c-9.33301 -12.667 -20.166 -21.167 -32.499 -25.5s-24 -4.83301 -35 -1.5s-20.5 10.5 -28.5 21.5s-12.333 25.5 -13 43.5c3.33301 13.333 9.33301 27.833 18 43.5s19 29.167 31 40.5c-7.33301 15.333 -12.666 31 -15.999 47
s-4 30.667 -2 44c0.666992 6 1.66699 11.667 3 17l4 16l-25 27.5c-8 9 -15.667 18.167 -23 27.5c-7.33301 18 -9 34 -5 48s11.333 24.667 22 32s23.334 10.5 38.001 9.5s29 -7.83301 43 -20.5c5.33301 -6.66699 10.833 -13.167 16.5 -19.5l17.5 -19.5
c5.33301 4.66699 11.666 9.33398 18.999 14.001c26 11.333 50.333 10.333 73 -3zM210.994 391.992c-3.33301 0.666992 -7.66699 1.66895 -13 3.00195c-6 -4 -11.667 -8.33301 -17 -13s-8 -8.66699 -8 -12c0 -6 2.33301 -14.333 7 -25s10.334 -20.834 17.001 -30.501
s14.167 -17.334 22.5 -23.001s16.166 -6.83398 23.499 -3.50098c6 4.66699 11.833 8.83398 17.5 12.501l17.5 11.5c4.66699 10 5.5 19.5 2.5 28.5s-8.16699 17 -15.5 24s-16 13 -26 18s-19.333 8.16699 -28 9.5z" />
    <glyph glyph-name="yen" unicode="&#xa5;" horiz-adv-x="466" 
d="M518 668l-173.001 -738.998c-5.33301 -24 -15.333 -45.5 -30 -64.5s-32.167 -34.667 -52.5 -47s-42.666 -20.833 -66.999 -25.5s-49.5 -4.33398 -75.5 0.999023s-49.167 14.666 -69.5 27.999s-37.166 29.5 -50.499 48.5s-22.333 39.833 -27 62.5s-4.33398 46 0.999023 70
c1.33301 6.66699 3.33301 13.5 6 20.5s5.66699 13.167 9 18.5l359 681c5.33301 10 12.5 18.667 21.5 26s19 12.666 30 15.999s22.5 4.83301 34.5 4.5s23.667 -3.16602 35 -8.49902c19.333 -8 33.333 -20.667 42 -38s11 -35.333 7 -54zM44.999 761.002l278.005 -427.001
c8.66699 -13.333 14.167 -27.5 16.5 -42.5s1.66602 -29.667 -2.00098 -44s-10.334 -27.666 -20.001 -39.999s-21.834 -22.5 -36.501 -30.5s-30.167 -13.167 -46.5 -15.5s-32.333 -1.66602 -48 2.00098s-30.334 9.83398 -44.001 18.501s-24.834 20 -33.501 34
c-1.33301 3.33301 -2.83301 6.66602 -4.5 9.99902s-3.16699 6.66602 -4.5 9.99902l-186 467c-3.33301 8.66699 -4.83301 17.5 -4.5 26.5s2.5 17.333 6.5 25s9.5 14.5 16.5 20.5s15.167 10.667 24.5 14c17.333 6 34 6.16699 50 0.5s28.667 -15.167 38 -28.5zM17.0039 224.001
l368.999 23.001c17.333 0.666992 34.166 -0.166016 50.499 -2.49902s31 -6.16602 44 -11.499s24 -11.833 33 -19.5s14.5 -16.167 16.5 -25.5c2.66699 -9.33301 1.83398 -18.333 -2.49902 -27s-11.5 -16.334 -21.5 -23.001s-22.167 -12.334 -36.5 -17.001
s-30.5 -7.33398 -48.5 -8.00098c-2 0 -3.66699 -0.166992 -5 -0.5s-3 -0.5 -5 -0.5l-371 -6c-32 -1.33301 -59.5 3.5 -82.5 14.5s-35.833 25.167 -38.5 42.5c-1.33301 15.333 7.33398 29 26.001 41s42.667 18.667 72 20zM-2.99707 359.002l364.999 38.9971
c18 2 35.333 2 52 0s31.834 -5.33301 45.501 -10s25.334 -10.667 35.001 -18s16.167 -15.666 19.5 -24.999c7.33301 -18.667 1.16602 -35.667 -18.501 -51s-46.834 -25 -81.501 -29c-2.66699 0 -4.5 -0.166992 -5.5 -0.5s-2.83301 -0.5 -5.5 -0.5l-369 -22
c-16 -1.33301 -31.167 -0.833008 -45.5 1.5s-27.166 5.83301 -38.499 10.5s-20.833 10.334 -28.5 17.001s-12.5 14 -14.5 22c-3.33301 16 3.66699 30.333 21 43s40.333 20.334 69 23.001z" />
    <glyph glyph-name="brokenbar" unicode="&#xa6;" horiz-adv-x="283" 
d="M199 362c-2.66699 -21.333 -10.333 -37.166 -23 -47.499s-26 -15.166 -40 -14.499s-26.833 6.66699 -38.5 18s-17.834 27.666 -18.501 48.999v295c5.33301 18.667 14 32.334 26 41.001s24.333 12.667 37 12s24.334 -5.83398 35.001 -15.501s18 -23.834 22 -42.501v-295z
M183.001 207c2.66699 -3.33301 5.17285 -7.16797 7.50586 -11.501s4.16602 -9.16602 5.49902 -14.499c0.666992 -1.33301 1.16699 -3 1.5 -5s0.833008 -3.66699 1.5 -5v-284c-2.66699 -21.333 -10.334 -37.166 -23.001 -47.499s-26 -15.166 -40 -14.499
s-26.833 6.66699 -38.5 18s-17.834 27.666 -18.501 48.999v284c0.666992 1.33301 1.16699 3 1.5 5s0.833008 3.66699 1.5 5c1.33301 2.66699 2.33301 4.33398 3 5.00098c3.33301 7.33301 7.66602 14 12.999 20l3 3c0.666992 0.666992 1.33398 1.16699 2.00098 1.5
s1.33398 0.833008 2.00098 1.5s1.16699 1 1.5 1s0.833008 0.333008 1.5 1c2 1.33301 4.33301 2.66602 7 3.99902c2 0.666992 4.33301 1.66699 7 3c4 1.33301 6.66699 2 8 2c0.666992 0 1.16699 0.166992 1.5 0.5s1.16602 0.5 2.49902 0.5
c4.66699 0 8.33398 -0.333008 11.001 -1c1.33301 0 2.66602 -0.166992 3.99902 -0.5s2.66602 -0.5 3.99902 -0.5c0.666992 -0.666992 1.66699 -1 3 -1c1.33301 -0.666992 2.66602 -1.16699 3.99902 -1.5s2.66602 -0.833008 3.99902 -1.5c1.33301 -1.33301 2.33301 -2 3 -2
c4 -2.66699 6.33301 -4.33398 7 -5.00098z" />
    <glyph glyph-name="section" unicode="&#xa7;" horiz-adv-x="435" 
d="M375 510c4 -21.333 1.83398 -38.8252 -6.49902 -52.4922s-19.166 -22.5 -32.499 -26.5s-27.333 -2.33301 -42 5s-26 21 -34 41c-1.33301 4 -2.33301 8.16699 -3 12.5s-2 8.5 -4 12.5c-4 10 -12.667 17.667 -26 23s-26.5 7.5 -39.5 6.5s-23.667 -6.16699 -32 -15.5
s-9.5 -24 -3.5 -44c5.33301 -16.667 15.166 -31 29.499 -43s31 -23 50 -33s38.667 -19.833 59 -29.5s38.833 -20.5 55.5 -32.5s30.5 -26 41.5 -42s16.167 -35.333 15.5 -58c-0.666992 -13.333 -4.33398 -25.833 -11.001 -37.5s-14.667 -22.167 -24 -31.5
c-3.33301 -3.33301 -6.66602 -6.33301 -9.99902 -9s-7 -5.33398 -11 -8.00098c1.33301 -0.666992 2.16602 -1.33398 2.49902 -2.00098s1.16602 -1.66699 2.49902 -3c18 -23.333 27.5 -49.5 28.5 -78.5s-2.83301 -56.833 -11.5 -83.5c-2.66699 -8 -5.66699 -13.833 -9 -17.5
s-8 -8.5 -14 -14.5c-5.33301 -4.66699 -10.333 -9.33398 -15 -14.001s-9.66699 -9.33398 -15 -14.001c-13.333 -10 -29.333 -16.833 -48 -20.5s-37.834 -4.5 -57.501 -2.5s-38.5 6.5 -56.5 13.5s-32.667 16.167 -44 27.5c-10.667 10.667 -19.334 20.334 -26.001 29.001
s-12.334 17.667 -17.001 27s-8.5 19.5 -11.5 30.5s-6.16699 23.5 -9.5 37.5c-0.666992 18.667 3.16602 34 11.499 46s18.5 19.833 30.5 23.5s24.667 2.66699 38 -3s25 -16.834 35 -33.501l4 -22.5c1.33301 -7.66699 3.33301 -15.167 6 -22.5
c3.33301 -8 10.166 -14.667 20.499 -20s20.833 -8.83301 31.5 -10.5s20 -1 28 2s11.333 9.16699 10 18.5c-1.33301 6 -2.83301 11.833 -4.5 17.5s-3.16699 11.167 -4.5 16.5c-1.33301 3.33301 -3.5 5.33301 -6.5 6s-5.83301 1.66699 -8.5 3l-61 33l-59 33
c-18 11.333 -35.833 25.666 -53.5 42.999s-29.167 37 -34.5 59c-5.33301 23.333 -4.66602 46.666 2.00098 69.999s17.667 43.666 33 60.999c0 0.666992 -0.166992 1.16699 -0.5 1.5s-0.5 0.833008 -0.5 1.5c-11.333 18 -19.166 34.167 -23.499 48.5
s-7.83301 32.166 -10.5 53.499c-4 32 0.666992 59.667 14 83s31.333 41.5 54 54.5s48.334 20.833 77.001 23.5s56.334 -0.5 83.001 -9.5s50.834 -24.167 72.501 -45.5s36.834 -49.333 45.501 -84zM267.001 240.008c-17.333 11.333 -35.668 22.002 -55.001 32.002
s-38.666 20.667 -57.999 32l-2 -4l-2 -4c-1.33301 -4 -2 -8.33301 -2 -13s1.33301 -8 4 -10c9.33301 -10 19.666 -18.667 30.999 -26s23.333 -14 36 -20c0.666992 0.666992 1.33398 1 2.00098 1s1.66699 0.333008 3 1c8.66699 1.33301 16 2.66602 22 3.99902
s13 3.66602 21 6.99902zM152.999 305.01c-0.666992 -0.666992 -1 -1.33301 -1 -2c0 0.666992 0.166992 1 0.5 1s0.5 0.333008 0.5 1z" />
    <glyph glyph-name="dieresis" unicode="&#xa8;" horiz-adv-x="426" 
d="M-6 716c0 15.333 2.83301 29.833 8.5 43.5s13.5 25.667 23.5 36s21.833 18.5 35.5 24.5s28.167 9 43.5 9s29.833 -3 43.5 -9s25.667 -14.167 36 -24.5s18.5 -22.333 24.5 -36s9 -28.167 9 -43.5s-3 -29.833 -9 -43.5s-14.167 -25.5 -24.5 -35.5
s-22.333 -17.833 -36 -23.5s-28.167 -8.5 -43.5 -8.5s-29.833 2.83301 -43.5 8.5s-25.5 13.5 -35.5 23.5s-17.833 21.833 -23.5 35.5s-8.5 28.167 -8.5 43.5zM199 716c0 15.333 2.83301 29.833 8.5 43.5s13.5 25.667 23.5 36s21.833 18.5 35.5 24.5s28.167 9 43.5 9
s29.833 -3 43.5 -9s25.667 -14.167 36 -24.5s18.5 -22.333 24.5 -36s9 -28.167 9 -43.5s-3 -29.833 -9 -43.5s-14.167 -25.5 -24.5 -35.5s-22.333 -17.833 -36 -23.5s-28.167 -8.5 -43.5 -8.5s-29.833 2.83301 -43.5 8.5s-25.5 13.5 -35.5 23.5s-17.833 21.833 -23.5 35.5
s-8.5 28.167 -8.5 43.5z" />
    <glyph glyph-name="copyright" unicode="&#xa9;" horiz-adv-x="680" 
d="M192 565c10.667 5.33301 26.5 10.6719 47.5 16.0049s43 9 66 11s45.167 1.16699 66.5 -2.5s38 -11.834 50 -24.501c0.666992 0 1.33398 -0.333008 2.00098 -1c-0.666992 1.33301 1.16602 1.5 5.49902 0.5l10.5 -2.5c5.33301 -1.33301 10.333 -2.16602 15 -2.49902
s9.33398 -0.833008 14.001 -1.5c14 -2 28.167 -5.66699 42.5 -11s26.166 -14 35.499 -26c23.333 -31.333 42.666 -62.833 57.999 -94.5s26.833 -64 34.5 -97s11.167 -67.5 10.5 -103.5s-5.66699 -74.333 -15 -115c-4 -19.333 -10.167 -39.333 -18.5 -60
s-18.833 -40.334 -31.5 -59.001s-27.167 -35.334 -43.5 -50.001s-34.5 -25.334 -54.5 -32.001c-18.667 -6 -34.167 -10.5 -46.5 -13.5s-24.333 -5 -36 -6s-24 -0.833008 -37 0.5l-50.5 5c-34 3.33301 -65.667 13.166 -95 29.499s-55.5 36.666 -78.5 60.999
s-42.5 51.5 -58.5 81.5s-27.667 60.667 -35 92c-4.66699 20 -7.5 39 -8.5 57s-0.833008 35.667 0.5 53s3.5 34.833 6.5 52.5s6.5 36.167 10.5 55.5c4 21.333 10.833 42.5 20.5 63.5s21.834 39.167 36.501 54.5l35.5 38.5c11.667 13 25.167 23.167 40.5 30.5zM383 454.006
c-2.66699 1.33301 -4.83594 2.66699 -6.50293 4s-3.5 2.66602 -5.5 3.99902c-3.33301 1.33301 -6.83301 2.5 -10.5 3.5s-7.16699 2.83301 -10.5 5.5c-18 0 -35 0.5 -51 1.5s-33 -3.83301 -51 -14.5s-33.167 -26.167 -45.5 -46.5s-21.166 -39.833 -26.499 -58.5
c-12 -40 -16.333 -81 -13 -123s14.333 -80 33 -114s45 -61.167 79 -81.5s75 -28.833 123 -25.5c24 1.33301 44.167 8.16602 60.5 20.499s29.333 27.833 39 46.5s16.667 39.5 21 62.5s6.83301 46.333 7.5 70s-0.166016 46.5 -2.49902 68.5s-4.83301 41.333 -7.5 58
c-3.33301 16.667 -9.66602 31.834 -18.999 45.501l-28 40.5c-0.666992 0.666992 -2 2.83398 -4 6.50098s-4.33301 7.5 -7 11.5c-12 4.66699 -24.5 7 -37.5 7s-25.5 2.66699 -37.5 8zM435.998 381.007c14 -12 22.6641 -25.1719 25.9971 -39.5049
s2.16602 -27.166 -3.50098 -38.499s-15 -20 -28 -26s-28.833 -7 -47.5 -3c-1.33301 0 -4.66602 1.33301 -9.99902 4c-4.66699 -4.66699 -8.66699 -9.66699 -12 -15s-4.66602 -10.666 -3.99902 -15.999c0 -4 2.16699 -6.83301 6.5 -8.5s9.16602 -3.16699 14.499 -4.5
c8 4 16.333 6 25 6s17 -2.33301 25 -7s15 -11.167 21 -19.5s10.333 -18.833 13 -31.5c0 -23.333 -7 -40.166 -21 -50.499s-30.5 -16.166 -49.5 -17.499s-38.5 1.16699 -58.5 7.5s-36 14.833 -48 25.5c-21.333 18.667 -35.166 41.334 -41.499 68.001s-6 53 1 79
s19.833 49 38.5 69s42.334 33 71.001 39c14.667 3.33301 28.834 2 42.501 -4zM346.995 202.002l1 0.999023c0 -0.666992 -0.666992 -1.66699 -2 -3c0.666992 0.666992 1 1.33398 1 2.00098z" />
    <glyph glyph-name="ordfeminine" unicode="&#xaa;" horiz-adv-x="557" 
d="M229.157 609.814c27.9072 0 54.1982 -3.57324 78.873 -10.7207c24.6738 -7.14648 46.2002 -16.9307 64.5781 -29.3535c18.3779 -12.4219 32.8418 -26.9707 43.3926 -43.6475c10.5498 -16.6768 15.8252 -34.374 15.8252 -53.0918
c0 -19.0586 -5.27539 -36.8408 -15.8252 -53.3467c-10.5508 -16.5068 -25.0146 -30.9707 -43.3926 -43.3926s-39.9043 -22.2061 -64.5781 -29.3535c-24.6748 -7.14746 -50.9658 -10.7207 -78.873 -10.7207s-54.1123 3.57324 -78.6162 10.7207
s-45.9453 16.9316 -64.3232 29.3535s-32.8418 26.8857 -43.3916 43.3926c-10.5498 16.5059 -15.8252 34.2881 -15.8252 53.3467c0 18.7178 5.27539 36.415 15.8252 53.0918s25.0137 31.2256 43.3916 43.6475c18.3779 12.4229 39.8193 22.207 64.3232 29.3535
c24.5039 7.14746 50.709 10.7207 78.6162 10.7207zM236.305 490.358c10.8906 0 21.1006 0.935547 30.6289 2.80762c9.53027 1.87207 17.8682 4.4248 25.0146 7.6582c7.14746 3.2334 12.7627 6.97754 16.8467 11.2324c4.08398 4.25391 6.12598 8.93359 6.12598 14.0381
c0 4.76465 -2.04199 9.27441 -6.12598 13.5283s-9.69922 7.99805 -16.8467 11.2314c-7.14648 3.2334 -15.4844 5.78613 -25.0146 7.6582c-9.52832 1.87207 -19.7383 2.80762 -30.6289 2.80762s-21.0156 -0.935547 -30.375 -2.80762s-17.6123 -4.4248 -24.7598 -7.6582
c-7.14648 -3.2334 -12.7617 -6.97754 -16.8457 -11.2314s-6.12598 -8.76367 -6.12598 -13.5283c0 -5.10449 2.04199 -9.78418 6.12598 -14.0381c4.08398 -4.25488 9.69922 -7.99902 16.8457 -11.2324c7.14746 -3.2334 15.4004 -5.78613 24.7598 -7.6582
s19.4844 -2.80762 30.375 -2.80762zM85.707 698.131l0.511719 0.000976562l0.510742 0.510742l1.02051 1.02051l2.04199 1.53125l2.04199 1.02148c0.680664 0.34082 1.36133 0.851562 2.04199 1.53223c2.38281 1.70215 5.10547 3.4043 8.16797 5.10645
c4.76465 3.40332 10.04 6.80664 15.8262 10.21c11.9111 6.46582 23.3125 12.0811 34.2031 16.8457c5.78516 2.72266 11.8262 5.18945 18.1221 7.40137s12.6768 4.33887 19.1426 6.38086c6.4668 1.70215 13.1035 3.2334 19.9102 4.59375
c6.80664 1.3623 13.7832 2.55371 20.9297 3.57422c14.2939 1.70215 29.4385 1.70215 45.4336 0c7.82715 -1.02051 15.6553 -2.4668 23.4834 -4.33887c7.82715 -1.87207 15.6543 -4.33984 23.4814 -7.40332c7.82812 -3.0625 15.2305 -6.7207 22.207 -10.9756
c6.97656 -4.25391 13.8682 -8.76367 20.6748 -13.5283c12.9326 -9.86914 24.334 -21.0996 34.2041 -33.6924c5.10449 -5.78613 9.69922 -11.8271 13.7832 -18.123l11.7412 -18.6328c7.14746 -12.9326 13.2734 -25.6953 18.3779 -38.2871
c5.10449 -12.5928 9.5293 -25.1855 13.2734 -37.7783c3.74316 -12.5918 6.97656 -25.0137 9.69922 -37.2666c3.0625 -12.5918 5.53027 -25.0137 7.40234 -37.2656l5.35938 -36.2461c3.06348 -24.5039 5.10547 -48.667 6.12695 -72.4902v-1.02148
c0.680664 -12.251 -1.02148 -23.7373 -5.10547 -34.458s-9.87012 -20.25 -17.3574 -28.5879s-16.4209 -15.0596 -26.8008 -20.165c-10.3799 -5.10449 -21.6963 -7.99707 -33.9482 -8.67773c-11.9111 -0.680664 -23.3125 1.02051 -34.2031 5.10449
s-20.5049 9.86914 -28.8428 17.3564c-8.33887 7.4873 -15.0605 16.4209 -20.165 26.8008s-7.99707 21.5254 -8.67773 33.4365c-0.339844 2.72266 -0.424805 5.27539 -0.254883 7.65723c0.169922 2.38281 0.424805 4.76562 0.765625 7.14746
c1.02051 10.21 1.95605 20.335 2.80664 30.375s1.61621 19.9951 2.29688 29.8643c1.02148 19.7393 1.02148 39.1387 0 58.1973c-0.680664 9.5293 -1.53125 18.7178 -2.55176 27.5664c-1.02148 8.84863 -2.38281 17.5273 -4.08398 26.0361
c-3.74414 16.6758 -8.67871 30.9697 -14.8047 42.8809c-2.72266 5.78613 -6.12598 10.8916 -10.21 15.3164c-3.40332 4.08398 -7.4873 7.82812 -12.252 11.2314c-2.38184 1.70117 -4.84961 3.23242 -7.40234 4.59375c-2.55176 1.36133 -5.35938 2.55273 -8.42285 3.57422
c-6.12598 1.70117 -13.1025 2.89258 -20.9297 3.57324c-3.74316 0.680664 -7.65723 0.935547 -11.7412 0.765625s-8.33789 -0.595703 -12.7627 -1.27637c-8.50879 -0.34082 -17.3574 -1.87207 -26.5459 -4.59473c-4.4248 -1.02051 -8.84863 -2.21191 -13.2725 -3.57324
c-4.4248 -1.36133 -9.01953 -2.89258 -13.7842 -4.59473c-4.76465 -1.70117 -9.18848 -3.40234 -13.2725 -5.10449c-1.02051 -0.680664 -2.04199 -1.10645 -3.06348 -1.27637c-1.02051 -0.169922 -2.04102 -0.595703 -3.06152 -1.27637l-3.06348 -1.53125l-3.0625 -1.02148
l-2.04199 -1.02051c-5.44531 -2.72266 -10.9756 -4.16895 -16.5918 -4.33984c-5.61523 -0.169922 -10.9756 0.680664 -16.0801 2.55273s-9.78418 4.67969 -14.0391 8.42285c-4.25391 3.74414 -7.57227 8.33887 -9.9541 13.7842
c-4.76465 9.18848 -5.87109 18.7178 -3.31836 28.5879c2.55176 9.86914 7.74219 17.6963 15.5703 23.4824z" />
    <glyph glyph-name="guillemotleft" unicode="&#xab;" horiz-adv-x="566" 
d="M184 57l-129.998 167c-4 6.66699 -5.33301 13.834 -4 21.501s4.66602 14.167 9.99902 19.5c11.333 8 21.666 8.66699 30.999 2l184 -98c18 -10 30 -24.833 36 -44.5s4.33301 -38.167 -5 -55.5c-9.33301 -18 -23.833 -30.167 -43.5 -36.5s-38.5 -4.83301 -56.5 4.5l-12 10
c-4 3.33301 -7.33301 6.66602 -10 9.99902zM278.002 304l-189.999 -88.002c-7.33301 -2.66699 -14.833 -2.5 -22.5 0.5s-13.167 7.83301 -16.5 14.5c-2.66699 5.33301 -3.5 10.833 -2.5 16.5s3.16699 10.167 6.5 13.5l137 158c14.667 15.333 32 23.833 52 25.5
s37.667 -4.16602 53 -17.499c8 -6.66699 14 -14.5 18 -23.5s6.33301 -18.333 7 -28s-0.333008 -19.167 -3 -28.5s-7.33398 -17.666 -14.001 -24.999c-8 -8 -16.333 -14 -25 -18zM384.003 54.998l-129.998 167c-4 6.66699 -5.33301 13.834 -4 21.501
s4.66602 14.167 9.99902 19.5c11.333 8 21.666 8.66699 30.999 2l184 -98c18 -10 30 -24.833 36 -44.5s4.33301 -38.167 -5 -55.5c-9.33301 -18 -23.833 -30.167 -43.5 -36.5s-38.5 -4.83301 -56.5 4.5l-12 10c-4 3.33301 -7.33301 6.66602 -10 9.99902zM478.005 301.998
l-189.999 -88.002c-7.33301 -2.66699 -14.833 -2.5 -22.5 0.5s-13.167 7.83301 -16.5 14.5c-2.66699 5.33301 -3.5 10.833 -2.5 16.5s3.16699 10.167 6.5 13.5l137 158c14.667 15.333 32 23.833 52 25.5s37.667 -4.16602 53 -17.499c8 -6.66699 14 -14.5 18 -23.5
s6.33301 -18.333 7 -28s-0.333008 -19.167 -3 -28.5s-7.33398 -17.666 -14.001 -24.999c-8 -8 -16.333 -14 -25 -18z" />
    <glyph glyph-name="logicalnot" unicode="&#xac;" horiz-adv-x="474" 
d="M70 466c3.33301 0 8.32617 -0.665039 14.9932 -1.99805v1c2 -0.666992 5.5 -1.5 10.5 -2.5s10.333 -2.16699 16 -3.5s11.167 -2.5 16.5 -3.5s10 -1.83301 14 -2.5c4 0.666992 7.5 1.16699 10.5 1.5s6.5 0.833008 10.5 1.5c8 2 15.833 4.66699 23.5 8l23.5 10
c14 4.66699 28.333 9.16699 43 13.5s29.167 7.16602 43.5 8.49902s28.5 0.833008 42.5 -1.5s28 -7.83301 42 -16.5c10 -2 18.667 -6.33301 26 -13s12.333 -14.334 15 -23.001s3 -18.334 1 -29.001s-7 -21 -15 -31c-0.666992 -5.33301 -0.666992 -11 0 -17l2 -18
c1.33301 -15.333 3 -30.833 5 -46.5s3.66699 -31.167 5 -46.5c-2.66699 -19.333 -9 -34.166 -19 -44.499s-21.333 -16.166 -34 -17.499s-25.167 2 -37.5 10s-21.833 20.667 -28.5 38c-1.33301 21.333 -4.16602 43.666 -8.49902 66.999s-5.83301 46.333 -4.5 69
c-17.333 -3.33301 -35.166 -9.5 -53.499 -18.5s-34.166 -15.167 -47.499 -18.5c-15.333 -3.33301 -29.833 -5 -43.5 -5s-28.167 1.66699 -43.5 5c-3.33301 0.666992 -6.33301 1.33398 -9 2.00098s-5.66699 1.33398 -9 2.00098c-2.66699 0 -6 0.666992 -10 2
c10 -1.33301 15.333 -1.83301 16 -1.5s-1.16602 0.833008 -5.49902 1.5l-16 2.5c-6.33301 1 -11.166 1.83301 -14.499 2.5c-14 8.66699 -24.167 18.667 -30.5 30s-8.66602 22.666 -6.99902 33.999s6.83398 21.666 15.501 30.999s21 16.333 37 21h3zM69.9932 345.002
c-0.666992 0 -1 0.166992 -1 0.5s-0.333008 0.5 -1 0.5h1z" />
    <glyph glyph-name="uni00AD" unicode="&#xad;" horiz-adv-x="426" 
d="M88 252c-18.667 4 -32.667 11.499 -42 22.499s-14.333 22.667 -15 35s3.5 24.333 12.5 36s22.5 20.167 40.5 25.5c38 4 76.167 5.33301 114.5 4s76.166 -2 113.499 -2c22 -1.33301 38.5 -7.66602 49.5 -18.999s16.833 -24 17.5 -38s-4.33301 -27.167 -15 -39.5
s-26.667 -19.833 -48 -22.5c-37.333 0 -75.166 0.5 -113.499 1.5s-76.5 -0.166992 -114.5 -3.5z" />
    <glyph glyph-name="registered" unicode="&#xae;" horiz-adv-x="650" 
d="M264 616c9.33301 -1.33301 16.333 -2.66797 21 -4.00098c8 2 17.333 3 28 3c0.666992 -0.666992 1.66699 -1 3 -1h15c11.333 1.33301 21.666 1.16602 30.999 -0.500977s19 -4.83398 29 -9.50098c23.333 -9.33301 44.833 -22 64.5 -38s37.167 -34 52.5 -54
c30 -40 54.333 -84.5 73 -133.5s28.667 -98.5 30 -148.5s-7.66699 -98 -27 -144s-52 -85.333 -98 -118c-19.333 -13.333 -40.5 -23 -63.5 -29s-45.5 -12.667 -67.5 -20c-11.333 -3.33301 -22.666 -4.83301 -33.999 -4.5s-23 1.5 -35 3.5s-23.833 4.5 -35.5 7.5
s-23.5 5.16699 -35.5 6.5c-17.333 2.66699 -34.833 9 -52.5 19s-34.5 22.5 -50.5 37.5s-30.833 31.833 -44.5 50.5s-25.334 37.834 -35.001 57.501s-17 39.334 -22 59.001s-6.83301 38.167 -5.5 55.5l10 103l10 102c3.33301 27.333 13 52.666 29 75.999
s35.5 43.833 58.5 61.5s47.833 31.834 74.5 42.501s52.334 17.334 77.001 20.001zM338 494.998c-10 -1.33301 -19.501 -1.66699 -28.501 -1s-18.167 2.66699 -27.5 6c-2.66699 -0.666992 -5 -1.33398 -7 -2.00098s-4.33301 -1 -7 -1
c-26.667 -2.66699 -49.834 -11.5 -69.501 -26.5s-35.834 -34.167 -48.501 -57.5s-21.5 -49.166 -26.5 -77.499s-6.33301 -57 -4 -86s8.5 -57.167 18.5 -84.5s23.833 -51 41.5 -71s39 -35.333 64 -46s54.167 -14 87.5 -10c26 2.66699 49.667 10.167 71 22.5
s39.333 27.833 54 46.5s25.167 39.834 31.5 63.501s7.5 48.834 3.5 75.501c-11.333 73.333 -38.333 139 -81 197c-6 8.66699 -13.667 17 -23 25s-18.666 14.333 -27.999 19c-3.33301 1.33301 -6.16602 2.66602 -8.49902 3.99902s-5.16602 2.66602 -8.49902 3.99902h-4z
M161.999 379.997c-2 6.66699 -2.99707 14.665 -2.99707 23.998c6.66699 24.667 15.334 41.667 26.001 51s23 14.333 37 15s29 -1.66602 45 -6.99902s32.333 -10.333 49 -15l55 -16c18 -5.33301 33.667 -15.333 47 -30c10 -10 17.667 -22 23 -36s8.66602 -28.667 9.99902 -44
s0.5 -30.5 -2.5 -45.5s-7.83301 -28.833 -14.5 -41.5c-3.33301 -6 -7.33301 -11 -12 -15c18 -6.66699 30.667 -16.167 38 -28.5s10.166 -24.666 8.49902 -36.999s-7.83398 -23.5 -18.501 -33.5s-25.334 -16 -44.001 -18c-21.333 1.33301 -42.666 5.16602 -63.999 11.499
s-39.666 16.5 -54.999 30.5c-4.66699 -18 -13.334 -31.167 -26.001 -39.5s-25.5 -11.666 -38.5 -9.99902s-24.833 8.16699 -35.5 19.5s-16.334 27.333 -17.001 48c0 10 0.166992 19.833 0.5 29.5s0.5 19.167 0.5 28.5c-0.666992 12.667 -2 25.334 -4 38.001l-6 37.5
c-2 12.333 -3.33301 24.666 -4 36.999s0 24.833 2 37.5zM287.002 281.995c0 -2 0.167969 -3.83203 0.500977 -5.49902s0.5 -3.5 0.5 -5.5c1.33301 2.66699 4 6.66699 8 12c1.33301 1.33301 5.5 4.33301 12.5 9s14.167 9 21.5 13c0 2 -0.166992 4.16699 -0.5 6.5
s-0.5 5.16602 -0.5 8.49902c-8.66699 3.33301 -17.334 6.5 -26.001 9.5l-27 9.5c0 -0.666992 -0.166992 -1 -0.5 -1s-0.5 -0.333008 -0.5 -1v-1c0.666992 -4 1.66699 -8.83301 3 -14.5l4 -17l3.5 -15c1 -4.33301 1.5 -6.83301 1.5 -7.5z" />
    <glyph glyph-name="macron" unicode="&#xaf;" horiz-adv-x="654" 
d="M86 882l416.997 61c14.667 2.66699 28.834 2.5 42.501 -0.5s26.167 -8.16699 37.5 -15.5s21 -16.833 29 -28.5s13.667 -24.834 17 -39.501c2.66699 -14.667 2.66699 -28.834 0 -42.501s-7.83398 -26.167 -15.501 -37.5s-17.334 -21.166 -29.001 -29.499
s-24.834 -13.833 -39.501 -16.5c-1.33301 0 -2.66602 -0.166992 -3.99902 -0.5s-2.66602 -0.5 -3.99902 -0.5l-421 -36c-13.333 -2 -26 -1.16699 -38 2.5s-22.667 9.16699 -32 16.5s-17.166 16.333 -23.499 27s-10.166 22.667 -11.499 36
c-3.33301 25.333 2.33398 47.833 17.001 67.5s34 31.834 58 36.501z" />
    <glyph glyph-name="macron" unicode="&#x2c9;" horiz-adv-x="654" 
d="M86 882l416.997 61c14.667 2.66699 28.834 2.5 42.501 -0.5s26.167 -8.16699 37.5 -15.5s21 -16.833 29 -28.5s13.667 -24.834 17 -39.501c2.66699 -14.667 2.66699 -28.834 0 -42.501s-7.83398 -26.167 -15.501 -37.5s-17.334 -21.166 -29.001 -29.499
s-24.834 -13.833 -39.501 -16.5c-1.33301 0 -2.66602 -0.166992 -3.99902 -0.5s-2.66602 -0.5 -3.99902 -0.5l-421 -36c-13.333 -2 -26 -1.16699 -38 2.5s-22.667 9.16699 -32 16.5s-17.166 16.333 -23.499 27s-10.166 22.667 -11.499 36
c-3.33301 25.333 2.33398 47.833 17.001 67.5s34 31.834 58 36.501z" />
    <glyph glyph-name="degree" unicode="&#xb0;" horiz-adv-x="401" 
d="M200 865c20 0 38.667 -3.83301 56 -11.5s32.5 -18 45.5 -31s23.333 -28.167 31 -45.5s11.5 -36 11.5 -56s-3.83301 -38.667 -11.5 -56s-18 -32.5 -31 -45.5s-28.167 -23.167 -45.5 -30.5s-36 -11 -56 -11s-38.667 3.66699 -56 11s-32.5 17.5 -45.5 30.5
s-23.167 28.167 -30.5 45.5s-11 36 -11 56s3.66699 38.667 11 56s17.5 32.5 30.5 45.5s28.167 23.333 45.5 31s36 11.5 56 11.5zM205 740c15.333 0 28.5 3.66699 39.5 11s16.5 16 16.5 26c0 10.667 -5.5 19.5 -16.5 26.5s-24.167 10.5 -39.5 10.5s-28.333 -3.5 -39 -10.5
s-16 -15.833 -16 -26.5c0 -10 5.33301 -18.667 16 -26s23.667 -11 39 -11z" />
    </font>
</defs>
</svg>
